<svg width="1440" height="867" viewBox="0 0 1440 867" fill="none" xmlns="http://www.w3.org/2000/svg">
<path d="M298.5 795C127.3 876.2 19.5 857.833 -13 838.5V-68H1481C1687.67 173.833 1998.7 685 1589.5 795C1078 932.5 853.5 838.5 752 795C650.5 751.5 512.5 693.5 298.5 795Z" fill="url(#paint0_linear)"/>
<path opacity="0.3" d="M832.5 183.5C963 124.091 1110 -12.3151 1047.13 -48.5H1141L1768 -35.6638V734.229C1710.19 744.06 1585.65 737.67 1549.98 633.461C1505.38 503.2 1475.03 441.141 1349.91 494.597C1224.8 548.054 1164.89 805 1047.13 805C969.436 805 976.422 769.866 931.826 660.496C887.23 551.126 752.823 624.859 713.802 509.344C674.78 393.829 748.882 268.907 832.5 183.5Z" fill="#2632A5"/>
<path opacity="0.3" d="M1305 679C1399 634.5 1387.5 520.341 1454.5 579C1579 688 1390 803.5 1305 796.5C1256.05 792.469 1221.03 718.75 1305 679Z" fill="#2632A5"/>
<path opacity="0.3" d="M957.142 28.9783C991.286 -18.5091 981.615 -53.2644 972.512 -64.7061C917.93 -153.487 722.832 -119.315 716.339 37.634C709.846 194.583 914.464 88.3376 957.142 28.9783Z" fill="#2632A5"/>
<defs>
<linearGradient id="paint0_linear" x1="1048.42" y1="-244.577" x2="372.238" y2="1007.03" gradientUnits="userSpaceOnUse">
<stop stop-color="#A760FF"/>
<stop offset="0.0001" stop-color="#2445BA"/>
<stop offset="0.705508" stop-color="#9566F9"/>
<stop offset="1" stop-color="#FF80E3"/>
</linearGradient>
</defs>
</svg>
