<svg width="712" height="717" viewBox="0 0 712 717" fill="none" xmlns="http://www.w3.org/2000/svg">
<path d="M296.86 554.575C273.924 538.376 225.916 528.624 217.373 619.199L196.753 614.08" stroke="#561B6F" stroke-width="6.10596" stroke-linecap="round" stroke-linejoin="round"/>
<path d="M290.341 363.619C262.561 345.958 199.883 290.49 171.408 209.901" stroke="#561B6F" stroke-width="6.10596" stroke-linecap="round" stroke-linejoin="round"/>
<path d="M157.049 179.783C151.065 173.594 135.604 167.105 133.191 175.287C129.718 187.07 153.159 205.121 165.314 212.673L166.723 222.459L182.261 216.108L179.539 209.448C187.529 196.251 201.008 168.808 191.001 164.608C180.994 160.409 177.245 171.095 176.622 176.963C173.076 169.345 164.652 154.654 159.325 156.832C153.998 159.01 155.588 173.04 157.049 179.783Z" fill="#55D8CB"/>
<path d="M368.061 174.682C335.316 188.861 330.483 223.078 332.16 238.414C347.951 240.708 386.978 241.593 416.755 226.788C446.533 211.983 439.688 180.472 432.542 166.568C431.292 172.504 421.709 178.751 417.075 181.133C430.7 163.544 419.449 147.793 412.12 142.116C413.485 154.028 408.994 156.957 368.061 174.682Z" fill="url(#paint0_linear)"/>
<mask id="mask0" mask-type="alpha" maskUnits="userSpaceOnUse" x="203" y="179" width="420" height="437">
<path d="M339.597 584L610.052 533.009C621.39 530.871 623.713 515.654 613.53 510.23L578.801 491.732C570.01 487.049 564.056 478.373 562.849 468.487L535.892 247.76C532.448 219.56 505.758 200.237 477.893 205.769L277.487 245.552C248.117 251.383 228.821 279.653 234.092 309.128L275.32 539.671C280.699 569.746 309.574 589.66 339.597 584Z" fill="url(#paint1_linear)"/>
</mask>
<g mask="url(#mask0)">
<path d="M339.597 584L610.052 533.009C621.39 530.871 623.713 515.654 613.53 510.23L578.801 491.732C570.01 487.049 564.056 478.373 562.849 468.487L535.892 247.76C532.448 219.56 505.758 200.237 477.893 205.769L277.487 245.552C248.117 251.383 228.821 279.653 234.092 309.128L275.32 539.671C280.699 569.746 309.574 589.66 339.597 584Z" fill="url(#paint2_linear)"/>
<path d="M404.517 365.73C391.193 366.406 398.453 378.563 381.114 384.072C364.523 385.608 356.31 375.212 350.543 385.228C344.717 395.347 362.454 411.457 384.319 406.644C420.135 398.761 417.841 365.055 404.517 365.73Z" fill="#FC5774"/>
<path opacity="0.5" d="M252.057 508.273L287.782 477.642C298.343 468.587 313.123 466.295 325.931 471.726L352.865 483.148C365.806 488.635 380.745 486.235 391.316 476.971L417.823 453.738C429.23 443.741 445.618 441.806 459.039 448.873L487.801 464.017C500.119 470.503 515.049 469.447 526.332 461.291L560.112 436.873C572.212 428.126 588.409 427.597 601.054 435.536L645.153 463.222" stroke="white" stroke-width="6.10596"/>
<path opacity="0.5" d="M260.644 541.08L296.369 510.45C306.93 501.394 321.71 499.102 334.518 504.534L361.452 515.955C374.393 521.443 389.332 519.043 399.903 509.778L426.41 486.546C437.817 476.548 454.205 474.614 467.626 481.68L496.388 496.824C508.706 503.31 523.636 502.254 534.919 494.098L568.699 469.68C580.799 460.933 596.996 460.404 609.641 468.343L653.74 496.03" stroke="white" stroke-width="6.10596"/>
<path opacity="0.5" d="M269.232 573.888L304.956 543.257C315.518 534.202 330.297 531.91 343.106 537.341L370.04 548.763C382.981 554.25 397.92 551.85 408.49 542.586L434.998 519.353C446.405 509.356 462.793 507.421 476.214 514.488L504.976 529.632C517.294 536.118 532.224 535.062 543.507 526.906L577.287 502.488C589.387 493.741 605.584 493.212 618.229 501.151L662.328 528.837" stroke="white" stroke-width="6.10596"/>
<path opacity="0.5" d="M277.819 606.695L313.543 576.065C324.105 567.009 338.884 564.717 351.693 570.149L378.627 581.57C391.568 587.058 406.507 584.658 417.077 575.393L443.585 552.161C454.992 542.163 471.38 540.229 484.801 547.295L513.562 562.439C525.881 568.925 540.811 567.869 552.093 559.713L585.873 535.295C597.974 526.548 614.171 526.019 626.816 533.958L670.915 561.645" stroke="white" stroke-width="6.10596"/>
</g>
<path d="M485.973 347.866C492.557 315.613 522.003 237.266 587.122 181.905" stroke="#561B6F" stroke-width="6.10596" stroke-linecap="round" stroke-linejoin="round"/>
<path d="M608.835 154.721C611.608 146.57 610.319 129.852 601.938 131.443C589.87 133.734 584.517 162.831 583.35 177.094L575.287 182.817L588.034 193.739L592.715 188.276C608.104 189.357 638.675 188.814 637.84 177.994C637.006 167.174 625.788 168.72 620.282 170.845C625.44 164.211 634.662 150.008 630.292 146.264C625.922 142.519 614.166 150.341 608.835 154.721Z" fill="#55D8CB"/>
<ellipse cx="427.6" cy="315.094" rx="8.47819" ry="13.5651" transform="rotate(-14.668 427.6 315.094)" fill="#962E40"/>
<ellipse cx="318.476" cy="340.151" rx="8.47819" ry="13.5651" transform="rotate(-14.668 318.476 340.151)" fill="#962E40"/>
<path d="M483.185 534.389C469.354 573.065 463.626 640.468 551.365 600.676L556.088 618.72" stroke="#561B6F" stroke-width="6.10596" stroke-linecap="round" stroke-linejoin="round"/>
<path d="M58.9337 182.571C91.4507 182.571 117.811 155.58 117.811 122.286C117.811 88.9907 91.4507 62 58.9337 62C26.4168 62 0.0566406 88.9907 0.0566406 122.286C0.0566406 155.58 26.4168 182.571 58.9337 182.571Z" fill="url(#paint3_linear)"/>
<path fill-rule="evenodd" clip-rule="evenodd" d="M68.0073 115.651L75.7971 111.663C79.3754 109.831 83.7265 111.316 85.5156 114.98C86.0185 116.01 86.2804 117.146 86.2804 118.297V126.273C86.2804 130.37 83.0372 133.69 79.0366 133.69C77.9121 133.69 76.803 133.422 75.7971 132.907L68.0073 128.919C64.429 127.087 62.9787 122.632 64.7678 118.968C65.4687 117.533 66.6054 116.369 68.0073 115.651Z" fill="url(#paint4_linear)"/>
<path d="M61.2409 104.028H39.3506C34.9323 104.028 31.3506 107.61 31.3506 112.028V132.543C31.3506 136.961 34.9323 140.543 39.3506 140.543H61.2409C65.6592 140.543 69.2409 136.961 69.2409 132.543V112.028C69.2409 107.61 65.6592 104.028 61.2409 104.028Z" fill="url(#paint5_linear)"/>
<path d="M73.2282 96.3121C75.7885 96.3121 77.864 94.1869 77.864 91.5654C77.864 88.9438 75.7885 86.8186 73.2282 86.8186C70.6678 86.8186 68.5923 88.9438 68.5923 91.5654C68.5923 94.1869 70.6678 96.3121 73.2282 96.3121Z" fill="url(#paint6_linear)"/>
<path d="M101.136 304.569C88.4665 297.101 80.5219 307.68 78.5109 313.903C73.986 308.159 68.2945 301.886 58.9043 304.569C51.362 306.723 46.8372 313.903 48.3457 323.956C51.0463 341.953 86.0532 349.807 91.3322 347.652C96.6112 345.498 116.973 313.903 101.136 304.569Z" fill="url(#paint7_linear)"/>
<path d="M110.092 475.427L102.591 486.239C100.392 489.408 96.1005 490.152 93.0055 487.9C91.4199 486.747 90.3857 484.96 90.1592 482.982L88.6324 469.654C88.2963 466.719 86.2705 464.279 83.4961 463.467L72.9033 460.367C69.4987 459.371 67.5277 455.737 68.5008 452.251C68.9764 450.547 70.1046 449.113 71.6289 448.273L82.3077 442.394C84.3804 441.253 85.7719 439.14 86.0288 436.745L87.4938 423.087C87.925 419.068 91.4565 416.168 95.3817 416.609C96.9447 416.785 98.4076 417.483 99.5438 418.596L109.24 428.095C110.941 429.76 113.333 430.463 115.637 429.973L128.775 427.179C132.642 426.357 136.427 428.899 137.23 432.858C137.55 434.435 137.353 436.075 136.67 437.526L130.844 449.903C129.822 452.074 129.909 454.62 131.076 456.713L137.064 467.448C138.748 470.466 137.723 474.311 134.775 476.035C133.277 476.911 131.487 477.102 129.844 476.561L118.11 472.697C115.142 471.72 111.898 472.824 110.092 475.427Z" fill="url(#paint8_linear)"/>
<path d="M578.737 80C581.942 80 584.54 82.5978 584.54 85.8026V147.31C584.54 150.515 581.942 153.112 578.737 153.112H503.848L497.453 161.399C494.071 165.782 487.057 163.39 487.057 157.854V85.8026C487.057 82.5978 489.655 80 492.859 80H578.737Z" fill="url(#paint9_linear)"/>
<path d="M508.521 105.936H552.344" stroke="#FFF1F1" stroke-width="5.12" stroke-linecap="round" stroke-linejoin="round"/>
<path d="M508.521 128.294H532.668" stroke="#FFF1F1" stroke-width="5.12" stroke-linecap="round" stroke-linejoin="round"/>
<path d="M192.057 372C198.132 372 203.057 367.075 203.057 361C203.057 354.925 198.132 350 192.057 350C185.982 350 181.057 354.925 181.057 361C181.057 367.075 185.982 372 192.057 372Z" fill="url(#paint10_linear)"/>
<path fill-rule="evenodd" clip-rule="evenodd" d="M304.782 105.051C305.859 105.051 306.732 105.945 306.732 107.048V113.038H312.582C313.61 113.038 314.452 113.852 314.527 114.885L314.532 115.034C314.532 116.137 313.659 117.031 312.582 117.031H306.732V123.021C306.732 124.074 305.937 124.936 304.928 125.012L304.782 125.018C303.705 125.018 302.832 124.124 302.832 123.021V117.031H296.982C295.954 117.031 295.112 116.217 295.038 115.183L295.032 115.034C295.032 113.932 295.905 113.038 296.982 113.038H302.832V107.048C302.832 105.995 303.628 105.133 304.637 105.057L304.782 105.051Z" fill="url(#paint11_linear)"/>
<path d="M163.057 559C169.132 559 174.057 554.075 174.057 548C174.057 541.925 169.132 537 163.057 537C156.982 537 152.057 541.925 152.057 548C152.057 554.075 156.982 559 163.057 559Z" fill="url(#paint12_linear)"/>
<path fill-rule="evenodd" clip-rule="evenodd" d="M604.782 595.051C605.859 595.051 606.732 595.945 606.732 597.048V603.038H612.582C613.61 603.038 614.452 603.852 614.527 604.885L614.532 605.034C614.532 606.137 613.659 607.031 612.582 607.031H606.732V613.021C606.732 614.074 605.937 614.936 604.928 615.012L604.782 615.018C603.705 615.018 602.832 614.124 602.832 613.021V607.031H596.982C595.954 607.031 595.112 606.217 595.038 605.183L595.032 605.034C595.032 603.932 595.905 603.038 596.982 603.038H602.832V597.048C602.832 595.995 603.628 595.133 604.637 595.057L604.782 595.051Z" fill="url(#paint13_linear)"/>
<path d="M613.167 445.609C617.646 445.609 621.277 441.891 621.277 437.304C621.277 432.718 617.646 429 613.167 429C608.688 429 605.057 432.718 605.057 437.304C605.057 441.891 608.688 445.609 613.167 445.609Z" stroke="#EFAA7A" stroke-width="5.2"/>
<path d="M246.167 61.6086C250.646 61.6086 254.277 57.8907 254.277 53.3043C254.277 48.718 250.646 45 246.167 45C241.688 45 238.057 48.718 238.057 53.3043C238.057 57.8907 241.688 61.6086 246.167 61.6086Z" stroke="#EFAA7A" stroke-width="5.2"/>
<path d="M692.057 552C698.132 552 703.057 547.075 703.057 541C703.057 534.925 698.132 530 692.057 530C685.982 530 681.057 534.925 681.057 541C681.057 547.075 685.982 552 692.057 552Z" fill="url(#paint14_linear)"/>
<path d="M143.167 260.609C147.646 260.609 151.277 256.891 151.277 252.304C151.277 247.718 147.646 244 143.167 244C138.688 244 135.057 247.718 135.057 252.304C135.057 256.891 138.688 260.609 143.167 260.609Z" stroke="#EFAA7A" stroke-width="5.2"/>
<path fill-rule="evenodd" clip-rule="evenodd" d="M676.557 232C679.263 232 681.457 234.239 681.457 237V252H696.157C698.74 252 700.856 254.04 701.043 256.627L701.057 257C701.057 259.761 698.863 262 696.157 262H681.457V277C681.457 279.636 679.458 281.795 676.922 281.986L676.557 282C673.85 282 671.657 279.761 671.657 277V262H656.957C654.373 262 652.257 259.96 652.07 257.373L652.057 257C652.057 254.239 654.25 252 656.957 252H671.657V237C671.657 234.364 673.656 232.205 676.191 232.014L676.557 232Z" fill="url(#paint15_linear)"/>
<defs>
<linearGradient id="paint0_linear" x1="370.084" y1="153.119" x2="391.671" y2="235.595" gradientUnits="userSpaceOnUse">
<stop stop-color="#FFDA92"/>
<stop offset="0.511231" stop-color="#FFB070"/>
<stop offset="1" stop-color="#FF6060"/>
</linearGradient>
<linearGradient id="paint1_linear" x1="374.694" y1="216.764" x2="498.026" y2="510.496" gradientUnits="userSpaceOnUse">
<stop stop-color="#FFB783"/>
<stop offset="1" stop-color="#FC5674"/>
<stop offset="1" stop-color="#FF4B6C"/>
</linearGradient>
<linearGradient id="paint2_linear" x1="374.694" y1="216.764" x2="498.026" y2="510.496" gradientUnits="userSpaceOnUse">
<stop stop-color="#FFB783"/>
<stop offset="1" stop-color="#FC5674"/>
<stop offset="1" stop-color="#FF4B6C"/>
</linearGradient>
<linearGradient id="paint3_linear" x1="2.17113" y1="48.0187" x2="120.901" y2="179.787" gradientUnits="userSpaceOnUse">
<stop stop-color="#59DBB0"/>
<stop offset="1" stop-color="#FEFFB5"/>
</linearGradient>
<linearGradient id="paint4_linear" x1="86.2804" y1="108.283" x2="70.8809" y2="133.369" gradientUnits="userSpaceOnUse">
<stop stop-color="#69BED3"/>
<stop offset="0.460079" stop-color="#79AFDA"/>
<stop offset="1" stop-color="#A786EF"/>
</linearGradient>
<linearGradient id="paint5_linear" x1="69.2409" y1="102.765" x2="27.4399" y2="139.987" gradientUnits="userSpaceOnUse">
<stop stop-color="#69BED3"/>
<stop offset="0.460079" stop-color="#79AFDA"/>
<stop offset="1" stop-color="#A786EF"/>
</linearGradient>
<linearGradient id="paint6_linear" x1="77.864" y1="85.8359" x2="67.0608" y2="96.0569" gradientUnits="userSpaceOnUse">
<stop stop-color="#69BED3"/>
<stop offset="0.460079" stop-color="#79AFDA"/>
<stop offset="1" stop-color="#A786EF"/>
</linearGradient>
<linearGradient id="paint7_linear" x1="92.0989" y1="316.276" x2="78.7204" y2="348.483" gradientUnits="userSpaceOnUse">
<stop stop-color="#FF8ECB"/>
<stop offset="1" stop-color="#FF3E3E"/>
</linearGradient>
<linearGradient id="paint8_linear" x1="80.863" y1="522.815" x2="112.493" y2="403.804" gradientUnits="userSpaceOnUse">
<stop stop-color="#FF815E"/>
<stop offset="1" stop-color="#FF9C34"/>
</linearGradient>
<linearGradient id="paint9_linear" x1="584.54" y1="80" x2="501.84" y2="176.356" gradientUnits="userSpaceOnUse">
<stop stop-color="#FFA8E8"/>
<stop offset="1" stop-color="#FFE6E6"/>
</linearGradient>
<linearGradient id="paint10_linear" x1="181.057" y1="350" x2="198.704" y2="372" gradientUnits="userSpaceOnUse">
<stop stop-color="#FF8989"/>
<stop offset="1" stop-color="#FFDDC5"/>
</linearGradient>
<linearGradient id="paint11_linear" x1="297.495" y1="105.517" x2="318.463" y2="130.546" gradientUnits="userSpaceOnUse">
<stop stop-color="#9CB3FF"/>
<stop offset="1" stop-color="#B0FFE9"/>
</linearGradient>
<linearGradient id="paint12_linear" x1="152.057" y1="537" x2="169.704" y2="559" gradientUnits="userSpaceOnUse">
<stop stop-color="#FF8989"/>
<stop offset="1" stop-color="#FFDDC5"/>
</linearGradient>
<linearGradient id="paint13_linear" x1="597.495" y1="595.517" x2="618.463" y2="620.546" gradientUnits="userSpaceOnUse">
<stop stop-color="#9CB3FF"/>
<stop offset="1" stop-color="#B0FFE9"/>
</linearGradient>
<linearGradient id="paint14_linear" x1="681.057" y1="530" x2="698.704" y2="552" gradientUnits="userSpaceOnUse">
<stop stop-color="#FF8989"/>
<stop offset="1" stop-color="#FFDDC5"/>
</linearGradient>
<linearGradient id="paint15_linear" x1="658.245" y1="233.167" x2="710.721" y2="296.022" gradientUnits="userSpaceOnUse">
<stop stop-color="#9CB3FF"/>
<stop offset="1" stop-color="#B0FFE9"/>
</linearGradient>
</defs>
</svg>
