<svg width="2318" height="450" viewBox="0 0 2318 450" fill="none" xmlns="http://www.w3.org/2000/svg">
<path d="M275.004 384.273H16.7845C10.9677 384.273 8.26219 377.06 12.6441 373.234L44.3141 345.586C55.2699 336.021 61.5565 322.188 61.5565 307.644V118.063C61.5565 90.2464 84.1061 67.6968 111.923 67.6968H275.004C302.82 67.6968 325.37 90.2464 325.37 118.063V333.907C325.37 361.723 302.82 384.273 275.004 384.273Z" fill="url(#paint0_linear)"/>
<path d="M325.37 324.875H182.685C155.071 324.875 132.685 302.49 132.685 274.875L132.685 118.063C132.685 90.2464 155.235 67.6968 183.051 67.6968H275.004C302.82 67.6968 325.37 90.2464 325.37 118.063V324.875Z" fill="url(#paint1_linear)"/>
<path d="M244.806 277.139H420.209C424.96 277.139 426.736 270.913 422.701 268.406L414.702 263.437C399.91 254.247 390.914 238.069 390.914 220.654V159.732C390.914 131.916 368.364 109.366 340.548 109.366H244.806C216.99 109.366 194.44 131.916 194.44 159.732V226.773C194.44 254.589 216.99 277.139 244.806 277.139Z" fill="url(#paint2_linear)"/>
<rect x="246.93" y="167.895" width="92.215" height="14.3974" rx="7.19869" fill="white"/>
<rect x="246.93" y="204.213" width="46.2765" height="14.3974" rx="7.19869" fill="white"/>
<rect x="109.547" y="288.518" width="46.2765" height="14.3974" rx="7.19869" fill="white"/>
<path d="M723.5 183.6C718.7 174.8 712.1 168.1 703.7 163.5C695.3 158.9 685.5 156.6 674.3 156.6C661.9 156.6 650.9 159.4 641.3 165C631.7 170.6 624.2 178.6 618.8 189C613.4 199.4 610.7 211.4 610.7 225C610.7 239 613.4 251.2 618.8 261.6C624.4 272 632.1 280 641.9 285.6C651.7 291.2 663.1 294 676.1 294C692.1 294 705.2 289.8 715.4 281.4C725.6 272.8 732.3 260.9 735.5 245.7H663.5V213.6H776.9V250.2C774.1 264.8 768.1 278.3 758.9 290.7C749.7 303.1 737.8 313.1 723.2 320.7C708.8 328.1 692.6 331.8 674.6 331.8C654.4 331.8 636.1 327.3 619.7 318.3C603.5 309.1 590.7 296.4 581.3 280.2C572.1 264 567.5 245.6 567.5 225C567.5 204.4 572.1 186 581.3 169.8C590.7 153.4 603.5 140.7 619.7 131.7C636.1 122.5 654.3 117.9 674.3 117.9C697.9 117.9 718.4 123.7 735.8 135.3C753.2 146.7 765.2 162.8 771.8 183.6H723.5ZM866.773 332.7C850.773 332.7 836.373 329.2 823.573 322.2C810.773 315 800.673 304.9 793.273 291.9C786.073 278.9 782.473 263.9 782.473 246.9C782.473 229.9 786.173 214.9 793.573 201.9C801.173 188.9 811.473 178.9 824.473 171.9C837.473 164.7 851.973 161.1 867.973 161.1C883.973 161.1 898.473 164.7 911.473 171.9C924.473 178.9 934.673 188.9 942.073 201.9C949.673 214.9 953.473 229.9 953.473 246.9C953.473 263.9 949.573 278.9 941.773 291.9C934.173 304.9 923.773 315 910.573 322.2C897.573 329.2 882.973 332.7 866.773 332.7ZM866.773 296.1C874.373 296.1 881.473 294.3 888.073 290.7C894.873 286.9 900.273 281.3 904.273 273.9C908.273 266.5 910.273 257.5 910.273 246.9C910.273 231.1 906.073 219 897.673 210.6C889.473 202 879.373 197.7 867.373 197.7C855.373 197.7 845.273 202 837.073 210.6C829.073 219 825.073 231.1 825.073 246.9C825.073 262.7 828.973 274.9 836.773 283.5C844.773 291.9 854.773 296.1 866.773 296.1ZM1018.18 198.3V278.7C1018.18 284.3 1019.48 288.4 1022.08 291C1024.88 293.4 1029.48 294.6 1035.88 294.6H1055.38V330H1028.98C993.582 330 975.882 312.8 975.882 278.4V198.3H956.082V163.8H975.882V122.7H1018.18V163.8H1055.38V198.3H1018.18ZM1144.39 332.7C1128.39 332.7 1113.99 329.2 1101.19 322.2C1088.39 315 1078.29 304.9 1070.89 291.9C1063.69 278.9 1060.09 263.9 1060.09 246.9C1060.09 229.9 1063.79 214.9 1071.19 201.9C1078.79 188.9 1089.09 178.9 1102.09 171.9C1115.09 164.7 1129.59 161.1 1145.59 161.1C1161.59 161.1 1176.09 164.7 1189.09 171.9C1202.09 178.9 1212.29 188.9 1219.69 201.9C1227.29 214.9 1231.09 229.9 1231.09 246.9C1231.09 263.9 1227.19 278.9 1219.39 291.9C1211.79 304.9 1201.39 315 1188.19 322.2C1175.19 329.2 1160.59 332.7 1144.39 332.7ZM1144.39 296.1C1151.99 296.1 1159.09 294.3 1165.69 290.7C1172.49 286.9 1177.89 281.3 1181.89 273.9C1185.89 266.5 1187.89 257.5 1187.89 246.9C1187.89 231.1 1183.69 219 1175.29 210.6C1167.09 202 1156.99 197.7 1144.99 197.7C1132.99 197.7 1122.89 202 1114.69 210.6C1106.69 219 1102.69 231.1 1102.69 246.9C1102.69 262.7 1106.59 274.9 1114.39 283.5C1122.39 291.9 1132.39 296.1 1144.39 296.1ZM1236.7 225C1236.7 204.4 1241.3 186 1250.5 169.8C1259.9 153.4 1272.6 140.7 1288.6 131.7C1304.8 122.5 1322.9 117.9 1342.9 117.9C1366.3 117.9 1386.8 123.9 1404.4 135.9C1422 147.9 1434.3 164.5 1441.3 185.7H1393C1388.2 175.7 1381.4 168.2 1372.6 163.2C1364 158.2 1354 155.7 1342.6 155.7C1330.4 155.7 1319.5 158.6 1309.9 164.4C1300.5 170 1293.1 178 1287.7 188.4C1282.5 198.8 1279.9 211 1279.9 225C1279.9 238.8 1282.5 251 1287.7 261.6C1293.1 272 1300.5 280.1 1309.9 285.9C1319.5 291.5 1330.4 294.3 1342.6 294.3C1354 294.3 1364 291.8 1372.6 286.8C1381.4 281.6 1388.2 274 1393 264H1441.3C1434.3 285.4 1422 302.1 1404.4 314.1C1387 325.9 1366.5 331.8 1342.9 331.8C1322.9 331.8 1304.8 327.3 1288.6 318.3C1272.6 309.1 1259.9 296.4 1250.5 280.2C1241.3 264 1236.7 245.6 1236.7 225ZM1535.97 332.7C1519.97 332.7 1505.57 329.2 1492.77 322.2C1479.97 315 1469.87 304.9 1462.47 291.9C1455.27 278.9 1451.67 263.9 1451.67 246.9C1451.67 229.9 1455.37 214.9 1462.77 201.9C1470.37 188.9 1480.67 178.9 1493.67 171.9C1506.67 164.7 1521.17 161.1 1537.17 161.1C1553.17 161.1 1567.67 164.7 1580.67 171.9C1593.67 178.9 1603.87 188.9 1611.27 201.9C1618.87 214.9 1622.67 229.9 1622.67 246.9C1622.67 263.9 1618.77 278.9 1610.97 291.9C1603.37 304.9 1592.97 315 1579.77 322.2C1566.77 329.2 1552.17 332.7 1535.97 332.7ZM1535.97 296.1C1543.57 296.1 1550.67 294.3 1557.27 290.7C1564.07 286.9 1569.47 281.3 1573.47 273.9C1577.47 266.5 1579.47 257.5 1579.47 246.9C1579.47 231.1 1575.27 219 1566.87 210.6C1558.67 202 1548.57 197.7 1536.57 197.7C1524.57 197.7 1514.47 202 1506.27 210.6C1498.27 219 1494.27 231.1 1494.27 246.9C1494.27 262.7 1498.17 274.9 1505.97 283.5C1513.97 291.9 1523.97 296.1 1535.97 296.1ZM1730.58 161.4C1750.38 161.4 1766.38 167.7 1778.58 180.3C1790.78 192.7 1796.88 210.1 1796.88 232.5V330H1754.88V238.2C1754.88 225 1751.58 214.9 1744.98 207.9C1738.38 200.7 1729.38 197.1 1717.98 197.1C1706.38 197.1 1697.18 200.7 1690.38 207.9C1683.78 214.9 1680.48 225 1680.48 238.2V330H1638.48V163.8H1680.48V184.5C1686.08 177.3 1693.18 171.7 1701.78 167.7C1710.58 163.5 1720.18 161.4 1730.58 161.4ZM1885.42 332.7C1871.82 332.7 1859.62 330.3 1848.82 325.5C1838.02 320.5 1829.42 313.8 1823.02 305.4C1816.82 297 1813.42 287.7 1812.82 277.5H1855.12C1855.92 283.9 1859.02 289.2 1864.42 293.4C1870.02 297.6 1876.92 299.7 1885.12 299.7C1893.12 299.7 1899.32 298.1 1903.72 294.9C1908.32 291.7 1910.62 287.6 1910.62 282.6C1910.62 277.2 1907.82 273.2 1902.22 270.6C1896.82 267.8 1888.12 264.8 1876.12 261.6C1863.72 258.6 1853.52 255.5 1845.52 252.3C1837.72 249.1 1830.92 244.2 1825.12 237.6C1819.52 231 1816.72 222.1 1816.72 210.9C1816.72 201.7 1819.32 193.3 1824.52 185.7C1829.92 178.1 1837.52 172.1 1847.32 167.7C1857.32 163.3 1869.02 161.1 1882.42 161.1C1902.22 161.1 1918.02 166.1 1929.82 176.1C1941.62 185.9 1948.12 199.2 1949.32 216H1909.12C1908.52 209.4 1905.72 204.2 1900.72 200.4C1895.92 196.4 1889.42 194.4 1881.22 194.4C1873.62 194.4 1867.72 195.8 1863.52 198.6C1859.52 201.4 1857.52 205.3 1857.52 210.3C1857.52 215.9 1860.32 220.2 1865.92 223.2C1871.52 226 1880.22 228.9 1892.02 231.9C1904.02 234.9 1913.92 238 1921.72 241.2C1929.52 244.4 1936.22 249.4 1941.82 256.2C1947.62 262.8 1950.62 271.6 1950.82 282.6C1950.82 292.2 1948.12 300.8 1942.72 308.4C1937.52 316 1929.92 322 1919.92 326.4C1910.12 330.6 1898.62 332.7 1885.42 332.7ZM2127.2 163.8V330H2084.9V309C2079.5 316.2 2072.4 321.9 2063.6 326.1C2055 330.1 2045.6 332.1 2035.4 332.1C2022.4 332.1 2010.9 329.4 2000.9 324C1990.9 318.4 1983 310.3 1977.2 299.7C1971.6 288.9 1968.8 276.1 1968.8 261.3V163.8H2010.8V255.3C2010.8 268.5 2014.1 278.7 2020.7 285.9C2027.3 292.9 2036.3 296.4 2047.7 296.4C2059.3 296.4 2068.4 292.9 2075 285.9C2081.6 278.7 2084.9 268.5 2084.9 255.3V163.8H2127.2ZM2195.64 108V330H2153.64V108H2195.64ZM2271.03 198.3V278.7C2271.03 284.3 2272.33 288.4 2274.93 291C2277.73 293.4 2282.33 294.6 2288.73 294.6H2308.23V330H2281.83C2246.43 330 2228.73 312.8 2228.73 278.4V198.3H2208.93V163.8H2228.73V122.7H2271.03V163.8H2308.23V198.3H2271.03Z" fill="#9566F9"/>
<defs>
<linearGradient id="paint0_linear" x1="162.685" y1="67.6968" x2="162.685" y2="384.273" gradientUnits="userSpaceOnUse">
<stop stop-color="#9360FF"/>
<stop offset="1" stop-color="#60B3FF"/>
</linearGradient>
<linearGradient id="paint1_linear" x1="206.548" y1="67.6968" x2="206.548" y2="298.918" gradientUnits="userSpaceOnUse">
<stop stop-color="#7C42F5"/>
<stop offset="1" stop-color="#5992FF"/>
</linearGradient>
<linearGradient id="paint2_linear" x1="315.599" y1="109.366" x2="315.599" y2="277.139" gradientUnits="userSpaceOnUse">
<stop stop-color="#B57BFF"/>
<stop offset="1" stop-color="#FF82CD"/>
</linearGradient>
</defs>
</svg>
