<?xml version="1.0" encoding="utf-8"?>
<!-- Generator: Adobe Illustrator 24.0.2, SVG Export Plug-In . SVG Version: 6.00 Build 0)  -->
<svg version="1.1" id="Layer_1" xmlns="http://www.w3.org/2000/svg" xmlns:xlink="http://www.w3.org/1999/xlink" x="0px" y="0px"
	 viewBox="0 0 96.2 97.3" style="enable-background:new 0 0 96.2 97.3;" xml:space="preserve">
<style type="text/css">
	.st0{fill:url(#SVGID_1_);}
	.st1{fill:#FFFFFF;}
</style>
<linearGradient id="SVGID_1_" gradientUnits="userSpaceOnUse" x1="22.4232" y1="789.0897" x2="70.6872" y2="677.2787" gradientTransform="matrix(1 0 0 -1 0 780)">
	<stop  offset="0" style="stop-color:#FFAF73"/>
	<stop  offset="1" style="stop-color:#FFFECC"/>
</linearGradient>
<path class="st0" d="M35.1,88.6c21.5,7,44.6-4.8,51.6-26.3c7-21.5-4.8-44.6-26.3-51.6C38.9,3.7,15.8,15.5,8.8,37
	C1.8,58.5,13.6,81.6,35.1,88.6z"/>
<path class="st1" d="M69,44.4c-0.3-0.9-1.1-1.5-2-1.6l-12.9-1.2L49,29.7c-0.4-0.9-1.2-1.4-2.2-1.4s-1.8,0.6-2.2,1.4l-5.1,11.9
	l-12.9,1.2c-0.9,0.1-1.7,0.7-2,1.6c-0.3,0.9,0,1.9,0.7,2.5l9.8,8.6l-2.9,12.7c-0.2,0.9,0.2,1.9,0.9,2.5c0.4,0.3,0.9,0.5,1.4,0.5
	c0.4,0,0.8-0.1,1.2-0.3l11.1-6.7l11.1,6.7c0.8,0.5,1.8,0.4,2.6-0.1c0.8-0.6,1.1-1.5,0.9-2.5l-2.9-12.7l9.8-8.6
	C69,46.3,69.3,45.3,69,44.4z"/>
</svg>
