<?xml version="1.0" encoding="utf-8"?>
<!-- Generator: Adobe Illustrator 24.0.2, SVG Export Plug-In . SVG Version: 6.00 Build 0)  -->
<svg version="1.1" id="Layer_1" xmlns="http://www.w3.org/2000/svg" xmlns:xlink="http://www.w3.org/1999/xlink" x="0px" y="0px"
	 viewBox="0 0 96.2 97.3" style="enable-background:new 0 0 96.2 97.3;" xml:space="preserve">
<style type="text/css">
	.st0{fill:url(#SVGID_1_);}
	.st1{fill:#FFFFFF;}
</style>
<linearGradient id="SVGID_1_" gradientUnits="userSpaceOnUse" x1="22.4232" y1="789.0897" x2="70.6872" y2="677.2787" gradientTransform="matrix(1 0 0 -1 0 780)">
	<stop  offset="0" style="stop-color:#FFAF73"/>
	<stop  offset="1" style="stop-color:#FFFECC"/>
</linearGradient>
<path class="st0" d="M35.1,88.6c21.5,7,44.6-4.8,51.6-26.3c7-21.5-4.8-44.6-26.3-51.6C38.9,3.7,15.8,15.5,8.8,37
	C1.8,58.5,13.6,81.6,35.1,88.6z"/>
<g>
	<g>
		<path class="st1" d="M46.6,30.4c-5.5,0-10,4.5-10,10s4.5,10,10,10s10-4.5,10-10S52.1,30.4,46.6,30.4z"/>
	</g>
</g>
<g>
	<g>
		<path class="st1" d="M59.1,57c-2.8-2.8-6.4-4.3-10.3-4.3h-4.5c-3.9,0-7.5,1.5-10.3,4.3c-2.7,2.8-4.2,6.4-4.2,10.3
			c0,0.6,0.5,1.1,1.1,1.1h31.3c0.6,0,1.1-0.5,1.1-1.1C63.3,63.5,61.8,59.8,59.1,57z"/>
	</g>
</g>
</svg>
