<?xml version="1.0" encoding="utf-8"?>
<!-- Generator: Adobe Illustrator 24.0.2, SVG Export Plug-In . SVG Version: 6.00 Build 0)  -->
<svg version="1.1" id="Layer_1" xmlns="http://www.w3.org/2000/svg" xmlns:xlink="http://www.w3.org/1999/xlink" x="0px" y="0px"
	 viewBox="0 0 96.2 97.3" style="enable-background:new 0 0 96.2 97.3;" xml:space="preserve">
<style type="text/css">
	.st0{fill:url(#SVGID_1_);}
	.st1{fill:none;stroke:#FFFFFF;stroke-width:3;stroke-linecap:round;stroke-linejoin:round;}
	.st2{fill:#FFFFFF;}
</style>
<linearGradient id="SVGID_1_" gradientUnits="userSpaceOnUse" x1="22.4232" y1="789.0897" x2="70.6872" y2="677.2787" gradientTransform="matrix(1 0 0 -1 0 780)">
	<stop  offset="0" style="stop-color:#FFAF73"/>
	<stop  offset="1" style="stop-color:#FFFECC"/>
</linearGradient>
<path class="st0" d="M35.1,88.6c21.5,7,44.6-4.8,51.6-26.3c7-21.5-4.8-44.6-26.3-51.6C38.9,3.7,15.8,15.5,8.8,37
	C1.8,58.5,13.6,81.6,35.1,88.6z"/>
<path class="st1" d="M39.2,76.1c14.6,4.7,30.3-3.2,35.1-17.9C79,43.6,71,27.9,56.4,23.2C41.8,18.4,26.1,26.4,21.3,41
	S24.6,71.4,39.2,76.1z"/>
<path class="st2" d="M52.5,55.7c-0.7,1.3-1.7,2.1-3.1,2.6c-1.4,0.4-2.8,0.3-4.5-0.2l-1.4,2.7l-2.9-1.5l1.4-2.6
	c-1-0.6-1.9-1.3-2.6-2.1c-0.7-0.8-1.3-1.6-1.7-2.5l2.6-2c1,1.9,2.4,3.4,4.2,4.3c1,0.5,1.8,0.7,2.5,0.6c0.7-0.1,1.2-0.4,1.6-1.1
	c0.2-0.4,0.2-0.8,0.1-1.2c-0.1-0.4-0.4-0.8-0.8-1.2l-0.3-0.3c-0.3-0.3-0.7-0.6-1.1-1L46.5,50c-1-0.9-1.8-1.7-2.4-2.5
	c-0.6-0.7-1-1.6-1.2-2.5c-0.2-1,0-2,0.6-3.1c0.7-1.3,1.7-2.1,3.1-2.5c1.4-0.4,2.9-0.4,4.5,0.2l1.4-2.7l2.9,1.5L53.9,41
	c0.9,0.6,1.6,1.3,2.3,2c0.6,0.7,1.1,1.5,1.4,2.2l-2.6,2c-1-1.9-2.3-3.3-3.8-4.1c-0.9-0.5-1.6-0.6-2.4-0.5c-0.7,0.1-1.2,0.5-1.6,1.1
	c-0.2,0.4-0.3,0.9-0.1,1.3s0.4,0.9,0.8,1.3c0.3,0.3,0.7,0.7,1.2,1.2l0.5,0.4c1,0.9,1.8,1.7,2.4,2.4c0.6,0.7,1,1.5,1.2,2.4
	C53.3,53.6,53.1,54.6,52.5,55.7z"/>
</svg>
