<?xml version="1.0" encoding="utf-8"?>
<!-- Generator: Adobe Illustrator 24.0.2, SVG Export Plug-In . SVG Version: 6.00 Build 0)  -->
<svg version="1.1" id="Layer_1" xmlns="http://www.w3.org/2000/svg" xmlns:xlink="http://www.w3.org/1999/xlink" x="0px" y="0px"
	 viewBox="0 0 1440 690.3" style="enable-background:new 0 0 1440 690.3;" xml:space="preserve">
<style type="text/css">
	.st0{fill:url(#SVGID_1_);}
	.st1{fill:#A861FF;}
	.st2{opacity:0.3;fill:#2632A5;enable-background:new    ;}
</style>
<linearGradient id="SVGID_1_" gradientUnits="userSpaceOnUse" x1="1613.2797" y1="1133.0348" x2="973.2797" y2="-81.9652" gradientTransform="matrix(-1 0 0 1 1983 -84)">
	<stop  offset="0" style="stop-color:#A760FF"/>
	<stop  offset="1.000000e-04" style="stop-color:#2445BA"/>
	<stop  offset="0.7055" style="stop-color:#9566F9"/>
	<stop  offset="1" style="stop-color:#FF80E3"/>
</linearGradient>
<path class="st0" d="M788.5,154.3c265,91.5,369.5-121.5,662.5-121.5l18.5,18.5l41.5,822.5L-7.5,930.3L-264,260.8
	c22.2,9.5,109.8-3.2,283-130C235.5-27.8,523.5,62.8,788.5,154.3z"/>
<ellipse class="st1" cx="959" cy="56.8" rx="79" ry="42.5"/>
<ellipse transform="matrix(0.5 -0.866 0.866 0.5 -32.9056 1075.1658)" class="st2" cx="914.7" cy="566.1" rx="75.1" ry="108.3"/>
<path class="st2" d="M719.5,519.8c111.5,206.5,238,215.5,431,215.5H-588c48.8-4,169.4-47.9,261-191.5
	c114.5-179.5,350.1-167.1,491.5-85C354,568.8,608,313.3,719.5,519.8z"/>
</svg>
