<?xml version="1.0" encoding="utf-8"?>
<!-- Generator: Adobe Illustrator 24.0.2, SVG Export Plug-In . SVG Version: 6.00 Build 0)  -->
<svg version="1.1" id="Layer_1" xmlns="http://www.w3.org/2000/svg" xmlns:xlink="http://www.w3.org/1999/xlink" x="0px" y="0px"
	 viewBox="0 0 39 29" style="enable-background:new 0 0 39 29;" xml:space="preserve">
<style type="text/css">
	.st0{fill:none;stroke:#333333;stroke-linecap:round;stroke-linejoin:round;}
	.st1{fill:#333333;}
</style>
<title>icon / visa</title>
<desc>Created with Sketch.</desc>
<g id="if_Visa_Electron_onlyne_payments_pay_online_send_money_credit_card_card_ecommerce_2327511">
	<path id="Shape" class="st0" d="M35.8,28.3H2.5c-1.4,0-2.5-1.1-2.5-2.5V2.5C0,1.1,1.1,0,2.5,0h33.3c1.4,0,2.5,1.1,2.5,2.5v23.3
		C38.3,27.2,37.2,28.3,35.8,28.3z"/>
	<g>
		<path class="st1" d="M34.5,15.3c-0.5,0-0.9,0.4-0.9,0.9l0,0c0,0.5,0.4,0.9,0.9,0.9l0,0c0.5,0,0.9-0.4,0.9-0.9
			C35.4,15.7,34.9,15.3,34.5,15.3L34.5,15.3z M31.5,14.6c0-0.7-0.6-1.2-1.3-1.2s-1.3,0.6-1.3,1.2s0.6,1.2,1.3,1.2
			C30.9,15.9,31.5,15.3,31.5,14.6L31.5,14.6z M31.5,12.2h1.4V17h-1.4v-0.3c-0.4,0.3-0.9,0.4-1.4,0.4c-1.4,0-2.5-1.2-2.5-2.6
			s1.1-2.6,2.5-2.6c0.6,0,1,0.2,1.4,0.4V12.2z M19.9,12.8v-0.6h-1.5V17h1.5v-2.3c0-0.7,0.8-1.2,1.4-1.2l0,0v-1.4
			C20.8,12.2,20.2,12.4,19.9,12.8z M16.3,14.6c0-0.7-0.6-1.2-1.3-1.2c-0.7,0-1.3,0.6-1.3,1.2s0.6,1.2,1.3,1.2
			C15.7,15.8,16.3,15.3,16.3,14.6L16.3,14.6z M16.3,12.2h1.4V17h-1.4v-0.3c-0.4,0.3-0.9,0.4-1.4,0.4c-1.4,0-2.5-1.2-2.5-2.6
			s1.1-2.6,2.5-2.6c0.6,0,1,0.2,1.4,0.4V12.2z M25,12c-0.6,0-1.1,0.2-1.5,0.7v-0.6h-1.4V17h1.5v-2.6c0-0.7,0.5-1.1,1.1-1.1
			s1,0.4,1,1.1V17H27v-3.1C27,12.8,26.1,12,25,12L25,12z M10.2,17h1.5v-7h-1.5C10.2,10,10.2,17,10.2,17z M3.5,17h1.6v-7H3.5V17z
			 M9.1,10c0,1.5-0.6,3-1.7,4l2.2,3h-2l-2.4-3.3l0.6-0.5c1-0.8,1.6-2,1.6-3.3L9.1,10L9.1,10z"/>
	</g>
</g>
</svg>
