<?xml version="1.0" encoding="utf-8"?>
<!-- Generator: Adobe Illustrator 24.0.2, SVG Export Plug-In . SVG Version: 6.00 Build 0)  -->
<svg version="1.1" id="Layer_1" xmlns="http://www.w3.org/2000/svg" xmlns:xlink="http://www.w3.org/1999/xlink" x="0px" y="0px"
	 viewBox="0 0 712 717" style="enable-background:new 0 0 712 717;" xml:space="preserve">
<style type="text/css">
	.st0{fill:none;stroke:#561B6F;stroke-width:6.106;stroke-linecap:round;stroke-linejoin:round;}
	.st1{fill:#55D8CB;}
	.st2{fill:url(#SVGID_1_);}
	.st3{fill:url(#SVGID_2_);filter:url(#Adobe_OpacityMaskFilter);}
	.st4{mask:url(#mask0_1_);}
	.st5{fill:url(#SVGID_3_);}
	.st6{fill:#FC5774;}
	.st7{opacity:0.5;fill:none;stroke:#FFFFFF;stroke-width:6.106;enable-background:new    ;}
	.st8{fill:#962E40;}
	.st9{fill:url(#SVGID_4_);}
	.st10{fill-rule:evenodd;clip-rule:evenodd;fill:url(#SVGID_5_);}
	.st11{fill:url(#SVGID_6_);}
	.st12{fill:url(#SVGID_7_);}
	.st13{fill:url(#SVGID_8_);}
	.st14{fill:url(#SVGID_9_);}
	.st15{fill:url(#SVGID_10_);}
	.st16{fill:none;stroke:#FFF1F1;stroke-width:5.12;stroke-linecap:round;stroke-linejoin:round;}
	.st17{fill:url(#SVGID_11_);}
	.st18{fill-rule:evenodd;clip-rule:evenodd;fill:url(#SVGID_12_);}
	.st19{fill:url(#SVGID_13_);}
	.st20{fill-rule:evenodd;clip-rule:evenodd;fill:url(#SVGID_14_);}
	.st21{fill:none;stroke:#EFAA7A;stroke-width:5.2;}
	.st22{fill:url(#SVGID_15_);}
	.st23{fill-rule:evenodd;clip-rule:evenodd;fill:url(#SVGID_16_);}
</style>
<path class="st0" d="M296.9,554.6c-22.9-16.2-70.9-26-79.5,64.6l-20.6-5.1"/>
<path class="st0" d="M290.3,363.6c-27.8-17.7-90.5-73.1-118.9-153.7"/>
<path class="st1" d="M157,179.8c-6-6.2-21.4-12.7-23.9-4.5c-3.5,11.8,20,29.8,32.1,37.4l1.4,9.8l15.5-6.4l-2.7-6.7
	c8-13.2,21.5-40.6,11.5-44.8c-10-4.2-13.8,6.5-14.4,12.4c-3.5-7.6-12-22.3-17.3-20.1S155.6,173,157,179.8z"/>
<linearGradient id="SVGID_1_" gradientUnits="userSpaceOnUse" x1="370.0837" y1="564.8816" x2="391.6708" y2="482.405" gradientTransform="matrix(1 0 0 -1 0 718)">
	<stop  offset="0" style="stop-color:#FFDA92"/>
	<stop  offset="0.5112" style="stop-color:#FFB070"/>
	<stop  offset="1" style="stop-color:#FF6060"/>
</linearGradient>
<path class="st2" d="M368.1,174.7c-32.7,14.2-37.6,48.4-35.9,63.7c15.8,2.3,54.8,3.2,84.6-11.6c29.8-14.8,22.9-46.3,15.8-60.2
	c-1.3,5.9-10.8,12.2-15.5,14.6c13.6-17.6,2.4-33.3-5-39C413.5,154,409,157,368.1,174.7z"/>
<defs>
	<filter id="Adobe_OpacityMaskFilter" filterUnits="userSpaceOnUse" x="233.2" y="204.8" width="439.3" height="404.2">
		<feColorMatrix  type="matrix" values="1 0 0 0 0  0 1 0 0 0  0 0 1 0 0  0 0 0 1 0"/>
	</filter>
</defs>
<mask maskUnits="userSpaceOnUse" x="233.2" y="204.8" width="439.3" height="404.2" id="mask0_1_">
	
		<linearGradient id="SVGID_2_" gradientUnits="userSpaceOnUse" x1="338.0507" y1="485.8502" x2="461.3827" y2="192.1182" gradientTransform="matrix(1 0 0 -1 0 718)">
		<stop  offset="0" style="stop-color:#FFB783"/>
		<stop  offset="1" style="stop-color:#FC5674"/>
		<stop  offset="1" style="stop-color:#FF4B6C"/>
	</linearGradient>
	<path class="st3" d="M339.6,584l270.5-51c11.3-2.1,13.7-17.4,3.5-22.8l-34.7-18.5c-8.8-4.7-14.7-13.4-16-23.2l-27-220.7
		c-3.4-28.2-30.1-47.5-58-42l-200.4,39.8c-29.4,5.8-48.7,34.1-43.4,63.6l41.2,230.5C280.7,569.7,309.6,589.7,339.6,584z"/>
</mask>
<g class="st4">
	
		<linearGradient id="SVGID_3_" gradientUnits="userSpaceOnUse" x1="338.0507" y1="485.8502" x2="461.3827" y2="192.1182" gradientTransform="matrix(1 0 0 -1 0 718)">
		<stop  offset="0" style="stop-color:#FFB783"/>
		<stop  offset="1" style="stop-color:#FC5674"/>
		<stop  offset="1" style="stop-color:#FF4B6C"/>
	</linearGradient>
	<path class="st5" d="M339.6,584l270.5-51c11.3-2.1,13.7-17.4,3.5-22.8l-34.7-18.5c-8.8-4.7-14.7-13.4-16-23.2l-27-220.7
		c-3.4-28.2-30.1-47.5-58-42l-200.4,39.8c-29.4,5.8-48.7,34.1-43.4,63.6l41.2,230.5C280.7,569.7,309.6,589.7,339.6,584z"/>
	<path class="st6" d="M404.5,365.7c-13.3,0.7-6.1,12.8-23.4,18.3c-16.6,1.5-24.8-8.9-30.6,1.2c-5.8,10.1,11.9,26.2,33.8,21.4
		C420.1,398.8,417.8,365.1,404.5,365.7z"/>
	<path class="st7" d="M252.1,508.3l35.7-30.6c10.6-9.1,25.3-11.3,38.1-5.9l26.9,11.4c12.9,5.5,27.9,3.1,38.5-6.2l26.5-23.2
		c11.4-10,27.8-11.9,41.2-4.9l28.8,15.1c12.3,6.5,27.2,5.4,38.5-2.7l33.8-24.4c12.1-8.7,28.3-9.3,40.9-1.3l44.1,27.7"/>
	<path class="st7" d="M260.6,541.1l35.7-30.6c10.6-9.1,25.3-11.3,38.1-5.9l26.9,11.4c12.9,5.5,27.9,3.1,38.5-6.2l26.5-23.2
		c11.4-10,27.8-11.9,41.2-4.9l28.8,15.1c12.3,6.5,27.2,5.4,38.5-2.7l33.8-24.4c12.1-8.7,28.3-9.3,40.9-1.3l44.1,27.7"/>
	<path class="st7" d="M269.2,573.9l35.7-30.6c10.6-9.1,25.3-11.3,38.1-5.9l26.9,11.4c12.9,5.5,27.9,3.1,38.4-6.2l26.5-23.2
		c11.4-10,27.8-11.9,41.2-4.9l28.8,15.1c12.3,6.5,27.2,5.4,38.5-2.7l33.8-24.4c12.1-8.7,28.3-9.3,40.9-1.3l44.1,27.7"/>
	<path class="st7" d="M277.8,606.7l35.7-30.6c10.6-9.1,25.3-11.3,38.1-5.9l26.9,11.4c12.9,5.5,27.9,3.1,38.4-6.2l26.5-23.2
		c11.4-10,27.8-11.9,41.2-4.9l28.8,15.1c12.3,6.5,27.2,5.4,38.5-2.7l33.8-24.4c12.1-8.7,28.3-9.3,40.9-1.3l44.1,27.7"/>
</g>
<path class="st0" d="M486,347.9c6.6-32.3,36-110.6,101.1-166"/>
<path class="st1" d="M608.8,154.7c2.8-8.2,1.5-24.9-6.9-23.3c-12.1,2.3-17.4,31.4-18.6,45.7l-8.1,5.7l12.7,10.9l4.7-5.5
	c15.4,1.1,46,0.5,45.1-10.3c-0.8-10.8-12.1-9.3-17.6-7.1c5.2-6.6,14.4-20.8,10-24.6C625.9,142.5,614.2,150.3,608.8,154.7z"/>
<ellipse transform="matrix(0.9674 -0.2532 0.2532 0.9674 -65.8516 118.545)" class="st8" cx="427.6" cy="315.1" rx="8.5" ry="13.6"/>
<ellipse transform="matrix(0.9674 -0.2532 0.2532 0.9674 -75.7529 91.7295)" class="st8" cx="318.5" cy="340.2" rx="8.5" ry="13.6"/>
<path class="st0" d="M483.2,534.4c-13.8,38.7-19.6,106.1,68.2,66.3l4.7,18"/>
<linearGradient id="SVGID_4_" gradientUnits="userSpaceOnUse" x1="-3.4338" y1="664.931" x2="115.2961" y2="533.1627" gradientTransform="matrix(1 0 0 -1 0 718)">
	<stop  offset="0" style="stop-color:#59DBB0"/>
	<stop  offset="1" style="stop-color:#FEFFB5"/>
</linearGradient>
<path class="st9" d="M58.9,182.6c32.5,0,58.9-27,58.9-60.3C117.8,89,91.5,62,58.9,62C26.4,62,0.1,89,0.1,122.3
	C0.1,155.6,26.4,182.6,58.9,182.6z"/>
<linearGradient id="SVGID_5_" gradientUnits="userSpaceOnUse" x1="85.3227" y1="610.3049" x2="69.9232" y2="585.2189" gradientTransform="matrix(1 0 0 -1 0 718)">
	<stop  offset="0" style="stop-color:#69BED3"/>
	<stop  offset="0.4601" style="stop-color:#79AFDA"/>
	<stop  offset="1" style="stop-color:#A786EF"/>
</linearGradient>
<path class="st10" d="M68,115.7l7.8-4c3.6-1.8,7.9-0.3,9.7,3.3c0.5,1,0.8,2.2,0.8,3.3v8c0,4.1-3.2,7.4-7.2,7.4
	c-1.1,0-2.2-0.3-3.2-0.8l-7.8-4c-3.6-1.8-5-6.3-3.2-10C65.5,117.5,66.6,116.4,68,115.7z"/>
<linearGradient id="SVGID_6_" gradientUnits="userSpaceOnUse" x1="70.5574" y1="613.7566" x2="28.7564" y2="576.5346" gradientTransform="matrix(1 0 0 -1 0 718)">
	<stop  offset="0" style="stop-color:#69BED3"/>
	<stop  offset="0.4601" style="stop-color:#79AFDA"/>
	<stop  offset="1" style="stop-color:#A786EF"/>
</linearGradient>
<path class="st11" d="M61.2,104H39.4c-4.4,0-8,3.6-8,8v20.5c0,4.4,3.6,8,8,8h21.9c4.4,0,8-3.6,8-8V112C69.2,107.6,65.7,104,61.2,104
	z"/>
<linearGradient id="SVGID_7_" gradientUnits="userSpaceOnUse" x1="78.5347" y1="631.4552" x2="67.7315" y2="621.2342" gradientTransform="matrix(1 0 0 -1 0 718)">
	<stop  offset="0" style="stop-color:#69BED3"/>
	<stop  offset="0.4601" style="stop-color:#79AFDA"/>
	<stop  offset="1" style="stop-color:#A786EF"/>
</linearGradient>
<path class="st12" d="M73.2,96.3c2.6,0,4.6-2.1,4.6-4.7c0-2.6-2.1-4.7-4.6-4.7c-2.6,0-4.6,2.1-4.6,4.7
	C68.6,94.2,70.7,96.3,73.2,96.3z"/>
<linearGradient id="SVGID_8_" gradientUnits="userSpaceOnUse" x1="80.6717" y1="406.4708" x2="67.2932" y2="374.2638" gradientTransform="matrix(1 0 0 -1 0 718)">
	<stop  offset="0" style="stop-color:#FF8ECB"/>
	<stop  offset="1" style="stop-color:#FF3E3E"/>
</linearGradient>
<path class="st13" d="M101.1,304.6c-12.7-7.5-20.6,3.1-22.6,9.3c-4.5-5.7-10.2-12-19.6-9.3c-7.5,2.2-12.1,9.3-10.6,19.4
	c2.7,18,37.7,25.9,43,23.7C96.6,345.5,117,313.9,101.1,304.6z"/>
<linearGradient id="SVGID_9_" gradientUnits="userSpaceOnUse" x1="86.5753" y1="193.6668" x2="118.2053" y2="312.6778" gradientTransform="matrix(1 0 0 -1 0 718)">
	<stop  offset="0" style="stop-color:#FF815E"/>
	<stop  offset="1" style="stop-color:#FF9C34"/>
</linearGradient>
<path class="st14" d="M110.1,475.4l-7.5,10.8c-2.2,3.2-6.5,3.9-9.6,1.7c-1.6-1.2-2.6-2.9-2.8-4.9l-1.5-13.3
	c-0.3-2.9-2.4-5.4-5.1-6.2l-10.6-3.1c-3.4-1-5.4-4.6-4.4-8.1c0.5-1.7,1.6-3.1,3.1-4l10.7-5.9c2.1-1.1,3.5-3.3,3.7-5.6l1.5-13.7
	c0.4-4,4-6.9,7.9-6.5c1.6,0.2,3,0.9,4.2,2l9.7,9.5c1.7,1.7,4.1,2.4,6.4,1.9l13.1-2.8c3.9-0.8,7.7,1.7,8.5,5.7
	c0.3,1.6,0.1,3.2-0.6,4.7l-5.8,12.4c-1,2.2-0.9,4.7,0.2,6.8l6,10.7c1.7,3,0.7,6.9-2.3,8.6c-1.5,0.9-3.3,1.1-4.9,0.5l-11.7-3.9
	C115.1,471.7,111.9,472.8,110.1,475.4z"/>
<linearGradient id="SVGID_10_" gradientUnits="userSpaceOnUse" x1="574.54" y1="646.5827" x2="491.8401" y2="550.2267" gradientTransform="matrix(1 0 0 -1 0 718)">
	<stop  offset="0" style="stop-color:#FFA8E8"/>
	<stop  offset="1" style="stop-color:#FFE6E6"/>
</linearGradient>
<path class="st15" d="M578.7,80c3.2,0,5.8,2.6,5.8,5.8v61.5c0,3.2-2.6,5.8-5.8,5.8h-74.9l-6.4,8.3c-3.4,4.4-10.4,2-10.4-3.5V85.8
	c0-3.2,2.6-5.8,5.8-5.8H578.7z"/>
<path class="st16" d="M508.5,105.9h43.8"/>
<path class="st16" d="M508.5,128.3h24.1"/>
<linearGradient id="SVGID_11_" gradientUnits="userSpaceOnUse" x1="182.3814" y1="369.0623" x2="200.0284" y2="347.0623" gradientTransform="matrix(1 0 0 -1 0 718)">
	<stop  offset="0" style="stop-color:#FF8989"/>
	<stop  offset="1" style="stop-color:#FFDDC5"/>
</linearGradient>
<path class="st17" d="M192.1,372c6.1,0,11-4.9,11-11s-4.9-11-11-11c-6.1,0-11,4.9-11,11S186,372,192.1,372z"/>
<linearGradient id="SVGID_12_" gradientUnits="userSpaceOnUse" x1="297.0918" y1="612.1453" x2="318.0598" y2="587.1163" gradientTransform="matrix(1 0 0 -1 0 718)">
	<stop  offset="0" style="stop-color:#9CB3FF"/>
	<stop  offset="1" style="stop-color:#B0FFE9"/>
</linearGradient>
<path class="st18" d="M304.8,105.1c1.1,0,1.9,0.9,1.9,2v6h5.9c1,0,1.9,0.8,1.9,1.8l0,0.1c0,1.1-0.9,2-2,2h-5.9v6
	c0,1.1-0.8,1.9-1.8,2l-0.1,0c-1.1,0-2-0.9-2-2v-6H297c-1,0-1.9-0.8-1.9-1.8l0-0.1c0-1.1,0.9-2,1.9-2h5.9v-6c0-1.1,0.8-1.9,1.8-2
	L304.8,105.1z"/>
<linearGradient id="SVGID_13_" gradientUnits="userSpaceOnUse" x1="153.3814" y1="182.0623" x2="171.0284" y2="160.0623" gradientTransform="matrix(1 0 0 -1 0 718)">
	<stop  offset="0" style="stop-color:#FF8989"/>
	<stop  offset="1" style="stop-color:#FFDDC5"/>
</linearGradient>
<path class="st19" d="M163.1,559c6.1,0,11-4.9,11-11s-4.9-11-11-11c-6.1,0-11,4.9-11,11S157,559,163.1,559z"/>
<linearGradient id="SVGID_14_" gradientUnits="userSpaceOnUse" x1="597.0919" y1="122.1452" x2="618.0599" y2="97.1162" gradientTransform="matrix(1 0 0 -1 0 718)">
	<stop  offset="0" style="stop-color:#9CB3FF"/>
	<stop  offset="1" style="stop-color:#B0FFE9"/>
</linearGradient>
<path class="st20" d="M604.8,595.1c1.1,0,2,0.9,2,2v6h5.8c1,0,1.9,0.8,1.9,1.8l0,0.1c0,1.1-0.9,2-2,2h-5.8v6c0,1.1-0.8,1.9-1.8,2
	l-0.1,0c-1.1,0-2-0.9-2-2v-6H597c-1,0-1.9-0.8-1.9-1.8l0-0.1c0-1.1,0.9-2,2-2h5.8v-6c0-1.1,0.8-1.9,1.8-2L604.8,595.1z"/>
<path class="st21" d="M613.2,445.6c4.5,0,8.1-3.7,8.1-8.3c0-4.6-3.6-8.3-8.1-8.3s-8.1,3.7-8.1,8.3
	C605.1,441.9,608.7,445.6,613.2,445.6z"/>
<path class="st21" d="M246.2,61.6c4.5,0,8.1-3.7,8.1-8.3c0-4.6-3.6-8.3-8.1-8.3c-4.5,0-8.1,3.7-8.1,8.3
	C238.1,57.9,241.7,61.6,246.2,61.6z"/>
<linearGradient id="SVGID_15_" gradientUnits="userSpaceOnUse" x1="682.3814" y1="189.0623" x2="700.0284" y2="167.0623" gradientTransform="matrix(1 0 0 -1 0 718)">
	<stop  offset="0" style="stop-color:#FF8989"/>
	<stop  offset="1" style="stop-color:#FFDDC5"/>
</linearGradient>
<path class="st22" d="M692.1,552c6.1,0,11-4.9,11-11s-4.9-11-11-11s-11,4.9-11,11S686,552,692.1,552z"/>
<path class="st21" d="M143.2,260.6c4.5,0,8.1-3.7,8.1-8.3c0-4.6-3.6-8.3-8.1-8.3c-4.5,0-8.1,3.7-8.1,8.3
	C135.1,256.9,138.7,260.6,143.2,260.6z"/>
<linearGradient id="SVGID_16_" gradientUnits="userSpaceOnUse" x1="657.3104" y1="484.0527" x2="709.7864" y2="421.1978" gradientTransform="matrix(1 0 0 -1 0 718)">
	<stop  offset="0" style="stop-color:#9CB3FF"/>
	<stop  offset="1" style="stop-color:#B0FFE9"/>
</linearGradient>
<path class="st23" d="M676.6,232c2.7,0,4.9,2.2,4.9,5v15h14.7c2.6,0,4.7,2,4.9,4.6l0,0.4c0,2.8-2.2,5-4.9,5h-14.7v15
	c0,2.6-2,4.8-4.5,5l-0.4,0c-2.7,0-4.9-2.2-4.9-5v-15H657c-2.6,0-4.7-2-4.9-4.6l0-0.4c0-2.8,2.2-5,4.9-5h14.7v-15c0-2.6,2-4.8,4.5-5
	L676.6,232z"/>
</svg>
