<?xml version="1.0" encoding="UTF-8"?>
<svg width="40px" height="30px" viewBox="0 0 40 30" version="1.1" xmlns="http://www.w3.org/2000/svg" xmlns:xlink="http://www.w3.org/1999/xlink">
    <!-- Generator: Sketch 50.2 (55047) - http://www.bohemiancoding.com/sketch -->
    <title>icon / mastercard</title>
    <desc>Created with Sketch.</desc>
    <defs></defs>
    <g id="icon-/-mastercard" stroke="none" stroke-width="1" fill="none" fill-rule="evenodd">
        <g id="if_MasterCard_onlyne_payments_pay_online_send_money_credit_card_card_ecommerce_2327522">
            <path d="M36.6666667,29.1666667 L3.33333333,29.1666667 C1.9526215,29.1666667 0.833333333,28.0473773 0.833333333,26.6666667 L0.833333333,3.33333333 C0.833333333,1.95262117 1.9526215,0.833333333 3.33333333,0.833333333 L36.6666667,0.833333333 C38.0473773,0.833333333 39.1666667,1.95262117 39.1666667,3.33333333 L39.1666667,26.6666667 C39.1666667,28.0473773 38.0473773,29.1666667 36.6666667,29.1666667 Z" id="Shape" stroke="#333333" stroke-linecap="round" stroke-linejoin="round"></path>
            <path d="M10.5219578,24.9389585 L10.5219578,23.4130828 C10.5219578,22.8383478 10.155781,22.4517982 9.56578417,22.4467373 C9.255538,22.441651 8.93511783,22.5382742 8.71132217,22.879041 C8.54348183,22.6095167 8.278966,22.4467373 7.907703,22.4467373 C7.64829967,22.4467373 7.39400867,22.5230153 7.19564767,22.8078525 L7.19564767,22.5077788 L6.66666667,22.5077788 L6.66666667,24.9389585 L7.20070833,24.9389585 L7.20070833,23.5910988 C7.20070833,23.1689677 7.4347035,22.945172 7.79579233,22.945172 C8.14673333,22.945172 8.32477317,23.1740538 8.32477317,23.5860125 L8.32477317,24.9389585 L8.85881483,24.9389585 L8.85881483,23.5910988 C8.85881483,23.1689677 9.10295783,22.945172 9.45389883,22.945172 C9.81499017,22.945172 9.98791517,23.1740538 9.98791517,23.5860125 L9.98791517,24.9389585 L10.5219578,24.9389585 Z M18.4258397,22.5077788 L17.5612035,22.5077788 L17.5612035,21.7702898 L17.0271618,21.7702898 L17.0271618,22.5077788 L16.5337897,22.5077788 L16.5337897,22.9909515 L17.027162,22.9909515 L17.027162,24.0997313 C17.0271618,24.6642685 17.2458697,25 17.8714498,25 C18.1003317,25 18.3647967,24.9287573 18.532637,24.811786 L18.3800825,24.3591087 C18.2223908,24.450671 18.0494388,24.4964537 17.9121447,24.4964537 C17.6476542,24.4964537 17.5612037,24.3336487 17.5612037,24.0895812 L17.5612037,22.9909515 L18.4258398,22.9909515 L18.4258398,22.5077788 L18.4258397,22.5077788 Z M22.9372582,22.4467373 C22.6320967,22.4467373 22.4337102,22.5891687 22.296416,22.8027662 L22.296416,22.5077788 L21.772523,22.5077788 L21.772523,24.9389585 L22.3014768,24.9389585 L22.3014768,23.5758368 C22.3014768,23.1740538 22.474405,22.9502583 22.820309,22.9502583 C22.9270855,22.9502583 23.038996,22.9655172 23.150878,23.0112998 L23.313632,22.5128397 C23.1966337,22.4670855 23.0440537,22.4467373 22.9372582,22.4467373 Z M16.1167447,22.7010282 C15.8624028,22.5331878 15.5114618,22.4467373 15.1249377,22.4467373 C14.5095062,22.4467373 14.1128095,22.7417215 14.1128095,23.2248975 C14.1128095,23.6216452 14.4077953,23.8657857 14.9519857,23.9420638 L15.2012142,23.9776455 C15.4911137,24.0182912 15.6284587,24.09462 15.6284587,24.2319395 C15.6284587,24.4201248 15.4351585,24.5269745 15.0740687,24.5269745 C14.7078927,24.5269745 14.4434023,24.4099777 14.265364,24.2726327 L14.0161593,24.6846167 C14.3060573,24.8982112 14.6722857,25 15.0689825,25 C15.7708645,25 16.1777353,24.6693548 16.1777353,24.2065303 C16.1777353,23.7792842 15.8573405,23.5554887 15.328385,23.4791883 L15.079182,23.4435782 C14.8502732,23.4130828 14.6671978,23.3673542 14.6671978,23.2046002 C14.6671978,23.0265618 14.8400752,22.9197377 15.130024,22.9197377 C15.4402733,22.9197377 15.7403438,23.0367598 15.8878613,23.1282713 L16.1167447,22.7010282 Z M30.2867253,22.4467373 C29.9815368,22.4467373 29.7832012,22.5891687 29.6458817,22.8027662 L29.6458817,22.5077788 L29.1220157,22.5077788 L29.1220157,24.9389585 L29.6509457,24.9389585 L29.6509457,23.5758368 C29.6509457,23.1740538 29.8238977,22.9502583 30.1697287,22.9502583 C30.2765752,22.9502583 30.3884857,22.9655172 30.5003738,23.0112998 L30.6631247,22.5128397 C30.5461248,22.4670855 30.393521,22.4467373 30.2867253,22.4467373 Z M23.4712728,23.7233035 C23.4712728,24.460872 23.9850187,25 24.768289,25 C25.134492,25 25.3785833,24.9186103 25.6430738,24.7100512 L25.388783,24.282805 C25.190422,24.4252363 24.9818867,24.5015143 24.7530065,24.5015143 C24.3308467,24.4964535 24.020626,24.1912428 24.020626,23.7233033 C24.020626,23.2554435 24.3308467,22.9502582 24.7530065,22.9451718 C24.9818867,22.9451718 25.190422,23.0214467 25.388783,23.1639033 L25.6430738,22.736635 C25.3785833,22.5281268 25.134492,22.446737 24.768289,22.446737 C23.9850187,22.4467373 23.4712728,22.9858653 23.4712728,23.7233035 Z M28.4251977,23.7233035 L28.4251977,22.5077788 L27.896239,22.5077788 L27.896239,22.8027662 C27.7283987,22.5840568 27.4741078,22.4467373 27.128226,22.4467373 C26.4466922,22.4467373 25.9126505,22.9808045 25.9126505,23.7233035 C25.9126505,24.4659073 26.4466922,25 27.128226,25 C27.4741078,25 27.7283987,24.8626295 27.896239,24.6439203 L27.896239,24.9389585 L28.4251977,24.9389585 L28.4251977,23.7233035 Z M26.456844,23.7233035 C26.456844,23.296086 26.73659,22.945172 27.1943823,22.945172 C27.6317468,22.945172 27.9267597,23.2808272 27.9267597,23.7233035 C27.9267597,24.1658338 27.6317468,24.5015145 27.1943823,24.5015145 C26.73659,24.5015145 26.456844,24.1505495 26.456844,23.7233035 Z M20.0737715,22.4467373 C19.3616898,22.4467373 18.8632568,22.9655172 18.8632568,23.7233035 C18.8632568,24.4964537 19.3820382,25 20.1093802,25 C20.4755815,25 20.8112622,24.9084123 21.1062512,24.6591822 L20.8468438,24.2675717 C20.643422,24.4303257 20.3840177,24.5218625 20.1398755,24.5218625 C19.7990832,24.5218625 19.488837,24.3641947 19.412559,23.9267538 L21.2181617,23.9267538 C21.223248,23.8606737 21.2283072,23.794546 21.2283072,23.7233033 C21.2232478,22.965517 20.7553068,22.4467373 20.0737715,22.4467373 Z M20.0635735,22.9197375 C20.4043658,22.9197375 20.6230735,23.1333573 20.6790033,23.5097345 L19.417645,23.5097345 C19.4736003,23.1587665 19.687198,22.9197375 20.0635735,22.9197375 Z M33.3333333,23.7233035 L33.3333333,21.5312577 L32.8043525,21.5312577 L32.8043525,22.8027662 C32.6365122,22.5840568 32.3822213,22.4467373 32.0363682,22.4467373 C31.3548057,22.4467373 30.820764,22.9808045 30.820764,23.7233035 C30.8207638,24.4659073 31.3548057,25 32.036368,25 C32.3822212,25 32.636512,24.8626295 32.8043523,24.6439203 L32.8043523,24.9389585 L33.3333333,24.9389585 L33.3333333,23.7233035 Z M31.3650068,23.7233035 C31.3650068,23.296086 31.6447322,22.945172 32.1024737,22.945172 C32.5398637,22.945172 32.8348478,23.2808272 32.8348478,23.7233035 C32.8348478,24.1658338 32.5398637,24.5015145 32.1024737,24.5015145 C31.6447322,24.5015145 31.3650068,24.1505495 31.3650068,23.7233035 Z M13.5024643,23.7233035 L13.5024643,22.5077788 L12.9734842,22.5077788 L12.9734842,22.8027662 C12.8056438,22.5840568 12.5513522,22.4467373 12.2054728,22.4467373 C11.5239382,22.4467373 10.9898957,22.9808045 10.9898957,23.7233035 C10.9898957,24.4659073 11.5239382,25 12.2054728,25 C12.5513522,25 12.805644,24.8626295 12.9734842,24.6439203 L12.9734842,24.9389585 L13.5024643,24.9389585 L13.5024643,23.7233035 Z M11.534137,23.7233035 C11.534137,23.296086 11.8138648,22.945172 12.2716015,22.945172 C12.7089938,22.945172 13.0039797,23.2808272 13.0039797,23.7233035 C13.0039797,24.1658338 12.7089938,24.5015145 12.2716015,24.5015145 C11.8138647,24.5015145 11.534137,24.1505495 11.534137,23.7233035 Z" id="XMLID_1775_" fill="#333333" fill-rule="nonzero"></path>
            <circle id="Oval" stroke="#333333" stroke-linecap="round" stroke-linejoin="round" cx="14.5833333" cy="12.9166667" r="7.08333333"></circle>
            <circle id="Oval" stroke="#333333" stroke-linecap="round" stroke-linejoin="round" cx="25.4166667" cy="12.9166667" r="7.08333333"></circle>
        </g>
    </g>
</svg>