<?xml version="1.0"?>
<svg xmlns="http://www.w3.org/2000/svg" viewBox="0 -16 512 512" width="512px" height="512px" class=""><g><path d="m90 210h60v30h-60zm0 0" data-original="#000000" class="active-path" data-old_color="#000000" fill="#FFFFFF"/><path d="m90 360h60v30h-60zm0 0" data-original="#000000" class="active-path" data-old_color="#000000" fill="#FFFFFF"/><path d="m0 435c0 24.8125 20.1875 45 45 45h422c24.8125 0 45-20.1875 45-45v-285h-512zm437-15h-122c-8.289062 0-15-6.710938-15-15s6.710938-15 15-15h122c8.289062 0 15 6.710938 15 15s-6.710938 15-15 15zm-212-240h212c8.289062 0 15 6.710938 15 15s-6.710938 15-15 15h-212c-8.289062 0-15-6.710938-15-15s6.710938-15 15-15zm227 75c0 8.289062-6.710938 15-15 15h-122c-8.289062 0-15-6.710938-15-15s6.710938-15 15-15h122c8.289062 0 15 6.710938 15 15zm-227 75h212c8.289062 0 15 6.710938 15 15s-6.710938 15-15 15h-212c-8.289062 0-15-6.710938-15-15s6.710938-15 15-15zm-165-135c0-8.289062 6.710938-15 15-15h90c8.289062 0 15 6.710938 15 15v60c0 8.289062-6.710938 15-15 15h-90c-8.289062 0-15-6.710938-15-15zm0 150c0-8.289062 6.710938-15 15-15h90c8.289062 0 15 6.710938 15 15v60c0 8.289062-6.710938 15-15 15h-90c-8.289062 0-15-6.710938-15-15zm0 0" data-original="#000000" class="active-path" data-old_color="#000000" fill="#FFFFFF"/><path d="m467 0h-422c-24.8125 0-45 20.1875-45 45v75h512v-75c0-24.8125-20.1875-45-45-45zm-392.027344 90c-8.285156 0-15-6.714844-15-15s6.714844-15 15-15 15 6.714844 15 15-6.714844 15-15 15zm60 0c-8.285156 0-15-6.714844-15-15s6.714844-15 15-15 15 6.714844 15 15-6.714844 15-15 15zm60 0c-8.285156 0-15-6.714844-15-15s6.714844-15 15-15 15 6.714844 15 15-6.714844 15-15 15zm242.027344 0h-182c-8.289062 0-15-6.710938-15-15s6.710938-15 15-15h182c8.289062 0 15 6.710938 15 15s-6.710938 15-15 15zm0 0" data-original="#000000" class="active-path" data-old_color="#000000" fill="#FFFFFF"/></g> </svg>
