<?xml version="1.0" encoding="utf-8"?>
<!-- Generator: Adobe Illustrator 24.0.2, SVG Export Plug-In . SVG Version: 6.00 Build 0)  -->
<svg version="1.1" id="Layer_1" xmlns="http://www.w3.org/2000/svg" xmlns:xlink="http://www.w3.org/1999/xlink" x="0px" y="0px"
	 viewBox="0 0 600 600" style="enable-background:new 0 0 600 600;" xml:space="preserve">
<style type="text/css">
	.st0{fill:url(#SVGID_1_);}
	.st1{fill-rule:evenodd;clip-rule:evenodd;fill:url(#SVGID_2_);}
	.st2{fill:none;stroke:#FFF1F1;stroke-width:5.12;stroke-linecap:round;stroke-linejoin:round;}
	.st3{fill-rule:evenodd;clip-rule:evenodd;fill:url(#SVGID_3_);}
	.st4{fill:none;stroke:#FFFFFF;stroke-width:3.84;stroke-linecap:round;stroke-linejoin:round;}
</style>
<linearGradient id="SVGID_1_" gradientUnits="userSpaceOnUse" x1="10.142" y1="582.5338" x2="586.52" y2="19.6213" gradientTransform="matrix(1 0 0 -1 0 602)">
	<stop  offset="0" style="stop-color:#FFA8E8"/>
	<stop  offset="1" style="stop-color:#FFE6E6"/>
</linearGradient>
<path class="st0" d="M298.3,589.2c155.5,0,281.5-129.1,281.5-288.3S453.8,12.7,298.3,12.7S16.8,141.7,16.8,300.9
	S142.8,589.2,298.3,589.2z"/>
<linearGradient id="SVGID_2_" gradientUnits="userSpaceOnUse" x1="265.025" y1="401.2842" x2="265.025" y2="149.2917" gradientTransform="matrix(1 0 0 -1 0 602)">
	<stop  offset="0" style="stop-color:#FF8FCA"/>
	<stop  offset="1" style="stop-color:#DC5761"/>
</linearGradient>
<path class="st1" d="M318.3,200.4c47.1,0,85.3,39.1,85.3,87.3v26.2c0,48.2-38.2,87.3-85.3,87.3l-48.2,0l-56.8,48.4
	c-5.4,4.6-13.5,3.9-18-1.7c-2.3-2.8-3.3-6.5-2.9-10.1l4.8-37.9c-40.2-7-70.9-42.9-70.9-86.1v-26.2c0-48.2,38.2-87.3,85.3-87.3H318.3
	z"/>
<path class="st2" d="M185.1,277.9h87.4"/>
<path class="st2" d="M185.1,321.6h58.6"/>
<linearGradient id="SVGID_3_" gradientUnits="userSpaceOnUse" x1="380.9205" y1="328.0027" x2="194.8894" y2="76.9293" gradientTransform="matrix(1 0 0 -1 0 602)">
	<stop  offset="0" style="stop-color:#FFAAD7"/>
	<stop  offset="1" style="stop-color:#DC5761"/>
</linearGradient>
<path class="st3" d="M351.4,207c-28.3,0-51.2,23.5-51.2,52.4v15.7c0,28.9,22.9,52.4,51.2,52.4l28.9,0l34.1,29.1
	c3.3,2.8,8.1,2.3,10.8-1c1.4-1.7,2-3.9,1.7-6l-2.9-22.7c24.1-4.2,42.5-25.7,42.5-51.6v-15.7c0-28.9-22.9-52.4-51.2-52.4H351.4z"/>
<path class="st4" d="M345,256.1h76.7"/>
<path class="st4" d="M345,286.7h38.4"/>
</svg>
