<?xml version="1.0"?>
<svg xmlns="http://www.w3.org/2000/svg" height="512px" viewBox="0 0 96 96" width="512px" class=""><g><g id="_09-timer" data-name="09-timer"><path d="m77.08 28.577 5.748-5.748-5.656-5.658-6.149 6.149a39.747 39.747 0 0 0 -19.023-7.12v-8.2h8v-8h-24v8h8v8.2a39.747 39.747 0 0 0 -19.023 7.12l-6.149-6.149-5.656 5.658 5.748 5.748a40 40 0 1 0 58.16 0zm-29.08 59.423a32 32 0 1 1 32-32 32.036 32.036 0 0 1 -32 32z" data-original="#000000" class="active-path" data-old_color="#000000" fill="#6571FB"/><path d="m48 32v24h-24a24 24 0 1 0 24-24z" data-original="#000000" class="active-path" data-old_color="#000000" fill="#6571FB"/></g></g> </svg>
