<?xml version="1.0" encoding="UTF-8"?>
<svg width="39px" height="29px" viewBox="0 0 39 29" version="1.1" xmlns="http://www.w3.org/2000/svg" xmlns:xlink="http://www.w3.org/1999/xlink">
    <!-- Generator: Sketch 50.2 (55047) - http://www.bohemiancoding.com/sketch -->
    <title>icon / visa</title>
    <desc>Created with Sketch.</desc>
    <defs></defs>
    <g id="icon-/-visa" stroke="none" stroke-width="1" fill="none" fill-rule="evenodd">
        <g id="if_Visa_Electron_onlyne_payments_pay_online_send_money_credit_card_card_ecommerce_2327511">
            <path d="M35.8333333,28.3333333 L2.5,28.3333333 C1.11928817,28.3333333 0,27.214044 0,25.8333333 L0,2.5 C0,1.11928783 1.11928817,0 2.5,0 L35.8333333,0 C37.214044,0 38.3333333,1.11928783 38.3333333,2.5 L38.3333333,25.8333333 C38.3333333,27.214044 37.214044,28.3333333 35.8333333,28.3333333 Z" id="Shape" stroke="#333333" stroke-linecap="round" stroke-linejoin="round"></path>
            <g id="XMLID_2043_" transform="translate(5.000000, 10.000000)" fill="#333333" fill-rule="nonzero">
                <path d="M9.27384189,0.126712639 C9.22647775,0.0603040278 9.14614283,0.0203517222 9.06000375,0.0203517222 L9.05977003,0.0203517222 L7.19511897,0.0212084444 C7.08982439,0.0212084444 6.99520889,0.0808690556 6.95678278,0.171378861 L4.77520283,5.31325414 L4.54058286,4.52962844 C4.53756489,4.5192385 4.53361786,4.50895589 4.52885767,4.49910183 C4.18453233,3.76164056 3.25917181,2.60783872 1.96800781,1.69235831 C1.88001158,1.62991247 1.75869614,1.62691394 1.66733253,1.68464606 C1.57596872,1.74237992 1.53510506,1.84788411 1.56621753,1.94599864 L3.35947364,7.59900964 C3.39139928,7.69969433 3.49146933,7.76888817 3.60523839,7.76888817 L3.60547017,7.76888817 L5.6706125,7.76621047 C5.77277225,7.76621047 5.86506511,7.70986922 5.90546425,7.62332414 L9.29520219,0.350039861 C9.32921694,0.276990389 9.32120797,0.193013528 9.27384189,0.126712639 Z M3.63948492,2.69374214 C3.68917267,2.75404422 3.76532781,2.78703542 3.84345694,2.78703542 C3.8794455,2.78703542 3.91566603,2.78017989 3.94991236,2.76571944 C4.05880533,2.71977008 4.11870881,2.61008806 4.09398092,2.50190422 L3.66711489,0.639775111 C3.66618583,0.635704806 3.66514089,0.631742028 3.66398006,0.627886778 C3.51050797,0.0959709722 3.02455183,0.0169230833 2.67244736,0.00374966667 C2.66908075,0.00374966667 2.66571414,0.00364213889 2.66246439,0.00364213889 L0.256596083,0 L0.256131556,0 C0.131798139,0 0.0253427222,0.0824747778 0.00386536111,0.195478111 C-0.0176110278,0.308481444 0.0521595278,0.419554139 0.169411083,0.458436611 C1.63633672,0.945578667 2.83625203,1.71849358 3.63948492,2.69374214 Z M12.3655756,0.0140320833 L10.591707,0.0140320833 C10.4669081,0.0140320833 10.3602209,0.0971502778 10.3393259,0.210580028 L8.99359883,7.49853806 C8.98094458,7.56719775 9.00172467,7.63767667 9.05025158,7.69069681 C9.09889342,7.74393006 9.17052208,7.77456419 9.24597994,7.77456419 L11.0185728,7.77456419 C11.1433698,7.77456419 11.2500589,7.69155353 11.2709539,7.57790853 L12.6179567,0.2899505 C12.630611,0.221398333 12.6099478,0.151026944 12.5613057,0.0978992778 C12.5126637,0.0447716111 12.4410354,0.0140320833 12.3655756,0.0140320833 Z M25.4737509,0.207153139 C25.4477454,0.0988637222 25.3439601,0.0218499167 25.2236896,0.0218499167 L23.6584371,0.0218499167 C23.0323584,0.0218499167 22.673175,0.2143295 22.4574751,0.665589556 L19.2128506,7.4458405 C19.177907,7.51921042 19.1853373,7.60350811 19.2325867,7.67056014 C19.2798359,7.73750464 19.3604026,7.77777778 19.4471221,7.77777778 L21.2844936,7.77777778 C21.3909473,7.77777778 21.4862579,7.71704539 21.5241056,7.6252505 C21.7499007,7.07566261 21.8947824,6.72540983 21.9426138,6.61230092 C22.0645087,6.61230092 22.6288259,6.61294258 23.2338909,6.61379931 L23.2680224,6.61379931 C23.9634062,6.61455025 24.7020931,6.61540697 24.8788997,6.61540697 C24.931026,6.82138081 25.0603494,7.36689839 25.1137514,7.59172556 C25.1394084,7.70033581 25.2435423,7.77756272 25.3639277,7.77756272 L26.9662155,7.77756272 C27.0437652,7.77756272 27.11725,7.74510936 27.165775,7.68930419 C27.2143,7.63349903 27.2328772,7.56034222 27.2162769,7.49050497 L25.4737509,0.207153139 Z M22.6023568,5.02405439 L23.8214286,2.11394847 L23.9764091,2.78435772 L24.5070622,5.02405439 L22.6023568,5.02405439 Z M17.2771515,1.58674639 C17.2972343,1.58642556 17.32115,1.5862105 17.3446004,1.5862105 C18.0389401,1.5862105 18.529307,1.73145369 18.8376456,1.84070756 C18.9093891,1.86609189 18.9894923,1.86052339 19.0562439,1.82539058 C19.1229974,1.79036531 19.1690839,1.72963292 19.1820868,1.65968989 L19.3893086,0.535342889 C19.4106708,0.419341028 19.3362552,0.306552944 19.2148238,0.270670944 C18.8338146,0.158203694 18.2176029,0.0242069722 17.4459472,0.0242069722 C15.2584452,0.0242069722 13.7222137,1.03951536 13.710025,2.49237275 C13.6962099,3.56819847 14.8083608,4.16834192 15.6466534,4.52630889 C16.50654,4.89219947 16.7953742,5.12634481 16.7914262,5.45421353 C16.7853902,5.95602933 16.1021951,6.18449844 15.4698468,6.18449844 C14.5699097,6.18449844 14.0848834,6.05928419 13.3987861,5.79600486 C13.3268088,5.768371 13.2450813,5.77254708 13.1768185,5.80735906 C13.1085574,5.84184844 13.0611931,5.90343756 13.0479586,5.97434483 L12.8283143,7.15835244 C12.8071856,7.27199919 12.8780021,7.38317961 12.9959492,7.42131094 C13.6005506,7.61689658 14.4447641,7.73857447 15.2541505,7.74660775 L15.2569358,7.74660775 C17.5777109,7.74617939 19.0879368,6.74265356 19.104539,5.18997014 C19.1133602,4.33618636 18.5231542,3.69051803 17.254048,3.1608535 C16.4772852,2.812635 16.0013121,2.58138242 16.0058385,2.22737822 C16.0058385,1.90904467 16.4410639,1.58674639 17.2771515,1.58674639 Z" id="Shape"></path>
            </g>
        </g>
    </g>
</svg>