<svg width="2308" height="450" viewBox="0 0 2308 450" fill="none" xmlns="http://www.w3.org/2000/svg">
<path fill-rule="evenodd" clip-rule="evenodd" d="M265.004 384.576H6.78445C0.967682 384.576 -1.73786 377.363 2.64401 373.538L34.314 345.889C45.2699 336.325 51.5565 322.491 51.5565 307.948V118.366C51.5565 90.5496 74.1061 68 101.922 68H265.004C287.154 68 305.965 82.2987 312.709 102.169H234.806C202.848 102.169 176.94 128.077 176.94 160.035V227.076C176.94 259.035 202.848 284.942 234.806 284.942H315.37V334.21C315.37 362.026 292.82 384.576 265.004 384.576ZM99.5468 296.02C99.5468 292.045 102.77 288.822 106.746 288.822H138.625C142.6 288.822 145.823 292.045 145.823 296.02C145.823 299.996 142.6 303.219 138.625 303.219H106.746C102.77 303.219 99.5468 299.996 99.5468 296.02Z" fill="white"/>
<path fill-rule="evenodd" clip-rule="evenodd" d="M373.414 160.035C373.414 136.361 354.222 117.169 330.548 117.169H234.806C211.132 117.169 191.94 136.361 191.94 160.035V227.076C191.94 250.75 211.132 269.942 234.806 269.942H400.474C383.64 259.356 373.414 240.859 373.414 220.958V160.035ZM244.129 168.198C240.153 168.198 236.93 171.421 236.93 175.397C236.93 179.373 240.153 182.596 244.129 182.596H321.946C325.922 182.596 329.145 179.373 329.145 175.397C329.145 171.421 325.922 168.198 321.946 168.198H244.129ZM236.93 211.715C236.93 207.739 240.153 204.516 244.129 204.516H276.008C279.984 204.516 283.207 207.739 283.207 211.715C283.207 215.69 279.984 218.913 276.008 218.913H244.129C240.153 218.913 236.93 215.69 236.93 211.715Z" fill="white"/>
<path d="M713.5 183.6C708.7 174.8 702.1 168.1 693.7 163.5C685.3 158.9 675.5 156.6 664.3 156.6C651.9 156.6 640.9 159.4 631.3 165C621.7 170.6 614.2 178.6 608.8 189C603.4 199.4 600.7 211.4 600.7 225C600.7 239 603.4 251.2 608.8 261.6C614.4 272 622.1 280 631.9 285.6C641.7 291.2 653.1 294 666.1 294C682.1 294 695.2 289.8 705.4 281.4C715.6 272.8 722.3 260.9 725.5 245.7H653.5V213.6H766.9V250.2C764.1 264.8 758.1 278.3 748.9 290.7C739.7 303.1 727.8 313.1 713.2 320.7C698.8 328.1 682.6 331.8 664.6 331.8C644.4 331.8 626.1 327.3 609.7 318.3C593.5 309.1 580.7 296.4 571.3 280.2C562.1 264 557.5 245.6 557.5 225C557.5 204.4 562.1 186 571.3 169.8C580.7 153.4 593.5 140.7 609.7 131.7C626.1 122.5 644.3 117.9 664.3 117.9C687.9 117.9 708.4 123.7 725.8 135.3C743.2 146.7 755.2 162.8 761.8 183.6H713.5ZM856.773 332.7C840.773 332.7 826.373 329.2 813.573 322.2C800.773 315 790.673 304.9 783.273 291.9C776.073 278.9 772.473 263.9 772.473 246.9C772.473 229.9 776.173 214.9 783.573 201.9C791.173 188.9 801.473 178.9 814.473 171.9C827.473 164.7 841.973 161.1 857.973 161.1C873.973 161.1 888.473 164.7 901.473 171.9C914.473 178.9 924.673 188.9 932.073 201.9C939.673 214.9 943.473 229.9 943.473 246.9C943.473 263.9 939.573 278.9 931.773 291.9C924.173 304.9 913.773 315 900.573 322.2C887.573 329.2 872.973 332.7 856.773 332.7ZM856.773 296.1C864.373 296.1 871.473 294.3 878.073 290.7C884.873 286.9 890.273 281.3 894.273 273.9C898.273 266.5 900.273 257.5 900.273 246.9C900.273 231.1 896.073 219 887.673 210.6C879.473 202 869.373 197.7 857.373 197.7C845.373 197.7 835.273 202 827.073 210.6C819.073 219 815.073 231.1 815.073 246.9C815.073 262.7 818.973 274.9 826.773 283.5C834.773 291.9 844.773 296.1 856.773 296.1ZM1008.18 198.3V278.7C1008.18 284.3 1009.48 288.4 1012.08 291C1014.88 293.4 1019.48 294.6 1025.88 294.6H1045.38V330H1018.98C983.582 330 965.882 312.8 965.882 278.4V198.3H946.082V163.8H965.882V122.7H1008.18V163.8H1045.38V198.3H1008.18ZM1134.39 332.7C1118.39 332.7 1103.99 329.2 1091.19 322.2C1078.39 315 1068.29 304.9 1060.89 291.9C1053.69 278.9 1050.09 263.9 1050.09 246.9C1050.09 229.9 1053.79 214.9 1061.19 201.9C1068.79 188.9 1079.09 178.9 1092.09 171.9C1105.09 164.7 1119.59 161.1 1135.59 161.1C1151.59 161.1 1166.09 164.7 1179.09 171.9C1192.09 178.9 1202.29 188.9 1209.69 201.9C1217.29 214.9 1221.09 229.9 1221.09 246.9C1221.09 263.9 1217.19 278.9 1209.39 291.9C1201.79 304.9 1191.39 315 1178.19 322.2C1165.19 329.2 1150.59 332.7 1134.39 332.7ZM1134.39 296.1C1141.99 296.1 1149.09 294.3 1155.69 290.7C1162.49 286.9 1167.89 281.3 1171.89 273.9C1175.89 266.5 1177.89 257.5 1177.89 246.9C1177.89 231.1 1173.69 219 1165.29 210.6C1157.09 202 1146.99 197.7 1134.99 197.7C1122.99 197.7 1112.89 202 1104.69 210.6C1096.69 219 1092.69 231.1 1092.69 246.9C1092.69 262.7 1096.59 274.9 1104.39 283.5C1112.39 291.9 1122.39 296.1 1134.39 296.1ZM1226.7 225C1226.7 204.4 1231.3 186 1240.5 169.8C1249.9 153.4 1262.6 140.7 1278.6 131.7C1294.8 122.5 1312.9 117.9 1332.9 117.9C1356.3 117.9 1376.8 123.9 1394.4 135.9C1412 147.9 1424.3 164.5 1431.3 185.7H1383C1378.2 175.7 1371.4 168.2 1362.6 163.2C1354 158.2 1344 155.7 1332.6 155.7C1320.4 155.7 1309.5 158.6 1299.9 164.4C1290.5 170 1283.1 178 1277.7 188.4C1272.5 198.8 1269.9 211 1269.9 225C1269.9 238.8 1272.5 251 1277.7 261.6C1283.1 272 1290.5 280.1 1299.9 285.9C1309.5 291.5 1320.4 294.3 1332.6 294.3C1344 294.3 1354 291.8 1362.6 286.8C1371.4 281.6 1378.2 274 1383 264H1431.3C1424.3 285.4 1412 302.1 1394.4 314.1C1377 325.9 1356.5 331.8 1332.9 331.8C1312.9 331.8 1294.8 327.3 1278.6 318.3C1262.6 309.1 1249.9 296.4 1240.5 280.2C1231.3 264 1226.7 245.6 1226.7 225ZM1525.97 332.7C1509.97 332.7 1495.57 329.2 1482.77 322.2C1469.97 315 1459.87 304.9 1452.47 291.9C1445.27 278.9 1441.67 263.9 1441.67 246.9C1441.67 229.9 1445.37 214.9 1452.77 201.9C1460.37 188.9 1470.67 178.9 1483.67 171.9C1496.67 164.7 1511.17 161.1 1527.17 161.1C1543.17 161.1 1557.67 164.7 1570.67 171.9C1583.67 178.9 1593.87 188.9 1601.27 201.9C1608.87 214.9 1612.67 229.9 1612.67 246.9C1612.67 263.9 1608.77 278.9 1600.97 291.9C1593.37 304.9 1582.97 315 1569.77 322.2C1556.77 329.2 1542.17 332.7 1525.97 332.7ZM1525.97 296.1C1533.57 296.1 1540.67 294.3 1547.27 290.7C1554.07 286.9 1559.47 281.3 1563.47 273.9C1567.47 266.5 1569.47 257.5 1569.47 246.9C1569.47 231.1 1565.27 219 1556.87 210.6C1548.67 202 1538.57 197.7 1526.57 197.7C1514.57 197.7 1504.47 202 1496.27 210.6C1488.27 219 1484.27 231.1 1484.27 246.9C1484.27 262.7 1488.17 274.9 1495.97 283.5C1503.97 291.9 1513.97 296.1 1525.97 296.1ZM1720.58 161.4C1740.38 161.4 1756.38 167.7 1768.58 180.3C1780.78 192.7 1786.88 210.1 1786.88 232.5V330H1744.88V238.2C1744.88 225 1741.58 214.9 1734.98 207.9C1728.38 200.7 1719.38 197.1 1707.98 197.1C1696.38 197.1 1687.18 200.7 1680.38 207.9C1673.78 214.9 1670.48 225 1670.48 238.2V330H1628.48V163.8H1670.48V184.5C1676.08 177.3 1683.18 171.7 1691.78 167.7C1700.58 163.5 1710.18 161.4 1720.58 161.4ZM1875.42 332.7C1861.82 332.7 1849.62 330.3 1838.82 325.5C1828.02 320.5 1819.42 313.8 1813.02 305.4C1806.82 297 1803.42 287.7 1802.82 277.5H1845.12C1845.92 283.9 1849.02 289.2 1854.42 293.4C1860.02 297.6 1866.92 299.7 1875.12 299.7C1883.12 299.7 1889.32 298.1 1893.72 294.9C1898.32 291.7 1900.62 287.6 1900.62 282.6C1900.62 277.2 1897.82 273.2 1892.22 270.6C1886.82 267.8 1878.12 264.8 1866.12 261.6C1853.72 258.6 1843.52 255.5 1835.52 252.3C1827.72 249.1 1820.92 244.2 1815.12 237.6C1809.52 231 1806.72 222.1 1806.72 210.9C1806.72 201.7 1809.32 193.3 1814.52 185.7C1819.92 178.1 1827.52 172.1 1837.32 167.7C1847.32 163.3 1859.02 161.1 1872.42 161.1C1892.22 161.1 1908.02 166.1 1919.82 176.1C1931.62 185.9 1938.12 199.2 1939.32 216H1899.12C1898.52 209.4 1895.72 204.2 1890.72 200.4C1885.92 196.4 1879.42 194.4 1871.22 194.4C1863.62 194.4 1857.72 195.8 1853.52 198.6C1849.52 201.4 1847.52 205.3 1847.52 210.3C1847.52 215.9 1850.32 220.2 1855.92 223.2C1861.52 226 1870.22 228.9 1882.02 231.9C1894.02 234.9 1903.92 238 1911.72 241.2C1919.52 244.4 1926.22 249.4 1931.82 256.2C1937.62 262.8 1940.62 271.6 1940.82 282.6C1940.82 292.2 1938.12 300.8 1932.72 308.4C1927.52 316 1919.92 322 1909.92 326.4C1900.12 330.6 1888.62 332.7 1875.42 332.7ZM2117.2 163.8V330H2074.9V309C2069.5 316.2 2062.4 321.9 2053.6 326.1C2045 330.1 2035.6 332.1 2025.4 332.1C2012.4 332.1 2000.9 329.4 1990.9 324C1980.9 318.4 1973 310.3 1967.2 299.7C1961.6 288.9 1958.8 276.1 1958.8 261.3V163.8H2000.8V255.3C2000.8 268.5 2004.1 278.7 2010.7 285.9C2017.3 292.9 2026.3 296.4 2037.7 296.4C2049.3 296.4 2058.4 292.9 2065 285.9C2071.6 278.7 2074.9 268.5 2074.9 255.3V163.8H2117.2ZM2185.64 108V330H2143.64V108H2185.64ZM2261.03 198.3V278.7C2261.03 284.3 2262.33 288.4 2264.93 291C2267.73 293.4 2272.33 294.6 2278.73 294.6H2298.23V330H2271.83C2236.43 330 2218.73 312.8 2218.73 278.4V198.3H2198.93V163.8H2218.73V122.7H2261.03V163.8H2298.23V198.3H2261.03Z" fill="white"/>
</svg>
