<?xml version="1.0" encoding="utf-8"?>
<!-- Generator: Adobe Illustrator 24.0.2, SVG Export Plug-In . SVG Version: 6.00 Build 0)  -->
<svg version="1.1" id="Layer_1" xmlns="http://www.w3.org/2000/svg" xmlns:xlink="http://www.w3.org/1999/xlink" x="0px" y="0px"
	 viewBox="0 0 427 317" style="enable-background:new 0 0 427 317;" xml:space="preserve">
<style type="text/css">
	.st0{fill-rule:evenodd;clip-rule:evenodd;fill:#FFFFFF;}
</style>
<path class="st0" d="M265,316.6H6.8c-5.8,0-8.5-7.2-4.1-11l31.7-27.6c11-9.6,17.2-23.4,17.2-37.9V50.4C51.6,22.5,74.1,0,101.9,0H265
	c22.1,0,41,14.3,47.7,34.2h-77.9c-32,0-57.9,25.9-57.9,57.9v67c0,32,25.9,57.9,57.9,57.9h80.6v49.3C315.4,294,292.8,316.6,265,316.6
	z M99.5,228c0-4,3.2-7.2,7.2-7.2h31.9c4,0,7.2,3.2,7.2,7.2c0,4-3.2,7.2-7.2,7.2h-31.9C102.8,235.2,99.5,232,99.5,228z"/>
<path class="st0" d="M373.4,92c0-23.7-19.2-42.9-42.9-42.9h-95.7c-23.7,0-42.9,19.2-42.9,42.9v67c0,23.7,19.2,42.9,42.9,42.9h165.7
	c-16.8-10.6-27.1-29.1-27.1-49V92z M244.1,100.2c-4,0-7.2,3.2-7.2,7.2c0,4,3.2,7.2,7.2,7.2h77.8c4,0,7.2-3.2,7.2-7.2
	c0-4-3.2-7.2-7.2-7.2H244.1z M236.9,143.7c0-4,3.2-7.2,7.2-7.2H276c4,0,7.2,3.2,7.2,7.2c0,4-3.2,7.2-7.2,7.2h-31.9
	C240.2,150.9,236.9,147.7,236.9,143.7z"/>
</svg>
