<?xml version="1.0" encoding="utf-8"?>
<!-- Generator: Adobe Illustrator 24.0.2, SVG Export Plug-In . SVG Version: 6.00 Build 0)  -->
<svg version="1.1" id="Layer_1" xmlns="http://www.w3.org/2000/svg" xmlns:xlink="http://www.w3.org/1999/xlink" x="0px" y="0px"
	 viewBox="0 0 183.7 187.1" style="enable-background:new 0 0 183.7 187.1;" xml:space="preserve">
<style type="text/css">
	.st0{fill:url(#SVGID_1_);}
	.st1{fill-rule:evenodd;clip-rule:evenodd;fill:url(#SVGID_2_);}
	.st2{fill:none;stroke:#FFF1F1;stroke-width:5.12;stroke-linecap:round;stroke-linejoin:round;}
	.st3{fill-rule:evenodd;clip-rule:evenodd;fill:url(#SVGID_3_);}
	.st4{fill:none;stroke:#FFFFFF;stroke-width:3.84;stroke-linecap:round;stroke-linejoin:round;}
</style>
<linearGradient id="SVGID_1_" gradientUnits="userSpaceOnUse" x1="5.9269" y1="175.2897" x2="178.9849" y2="6.2747" gradientTransform="matrix(1 0 0 -1 0 184.9388)">
	<stop  offset="0" style="stop-color:#FFA8E8"/>
	<stop  offset="1" style="stop-color:#FFE6E6"/>
</linearGradient>
<path class="st0" d="M92.5,180.7c46.7,0,84.5-38.8,84.5-86.6S139.1,7.6,92.5,7.6S7.9,46.4,7.9,94.2S45.8,180.7,92.5,180.7z"/>
<linearGradient id="SVGID_2_" gradientUnits="userSpaceOnUse" x1="82.4558" y1="120.8693" x2="82.4558" y2="45.2083" gradientTransform="matrix(1 0 0 -1 0 184.9388)">
	<stop  offset="0" style="stop-color:#FF8FCA"/>
	<stop  offset="1" style="stop-color:#DC5761"/>
</linearGradient>
<path class="st1" d="M98.5,64c14.1,0,25.6,11.7,25.6,26.2v7.9c0,14.5-11.5,26.2-25.6,26.2l-14.5,0l-17,14.5
	c-1.6,1.4-4.1,1.2-5.4-0.5c-0.7-0.8-1-1.9-0.9-3l1.5-11.4c-12.1-2.1-21.3-12.9-21.3-25.8v-7.9C40.9,75.7,52.3,64,66.5,64H98.5z"/>
<path class="st2" d="M58.5,87.3h26.2"/>
<path class="st2" d="M58.5,100.4h17.6"/>
<linearGradient id="SVGID_3_" gradientUnits="userSpaceOnUse" x1="117.2535" y1="98.8665" x2="61.3975" y2="23.4815" gradientTransform="matrix(1 0 0 -1 0 184.9388)">
	<stop  offset="0" style="stop-color:#FFAAD7"/>
	<stop  offset="1" style="stop-color:#DC5761"/>
</linearGradient>
<path class="st3" d="M108.4,66C99.9,66,93,73,93,81.7v4.7c0,8.7,6.9,15.7,15.4,15.7l8.7,0l10.2,8.7c1,0.8,2.4,0.7,3.2-0.3
	c0.4-0.5,0.6-1.2,0.5-1.8l-0.9-6.8c7.2-1.3,12.8-7.7,12.8-15.5v-4.7c0-8.7-6.9-15.7-15.4-15.7H108.4z"/>
<path class="st4" d="M106.5,80.7h23"/>
<path class="st4" d="M106.5,89.9H118"/>
</svg>
