<?xml version="1.0" encoding="utf-8"?>
<!-- Generator: Adobe Illustrator 24.0.2, SVG Export Plug-In . SVG Version: 6.00 Build 0)  -->
<svg version="1.1" id="Layer_1" xmlns="http://www.w3.org/2000/svg" xmlns:xlink="http://www.w3.org/1999/xlink" x="0px" y="0px"
	 viewBox="0 0 183.7 187.1" style="enable-background:new 0 0 183.7 187.1;" xml:space="preserve">
<style type="text/css">
	.st0{fill:url(#SVGID_1_);}
	.st1{fill:#FF791F;}
</style>
<linearGradient id="SVGID_1_" gradientUnits="userSpaceOnUse" x1="4.8143" y1="189.9389" x2="169.7546" y2="6.8847" gradientTransform="matrix(1 0 0 -1 0 184.9388)">
	<stop  offset="0" style="stop-color:#FFDCC5"/>
	<stop  offset="1" style="stop-color:#FFB580"/>
</linearGradient>
<path class="st0" d="M91.5,174.9c45.2,0,81.8-37.5,81.8-83.7c0-46.3-36.6-83.7-81.8-83.7C46.3,7.4,9.7,44.9,9.7,91.2
	C9.7,137.4,46.3,174.9,91.5,174.9z"/>
<g>
	<g>
		<path class="st1" d="M77,122.6c7.6-5.1,15.8-12.1,23.9-20.1c8-8,14.9-16.2,20-23.7l0.9-1.3c0,0,0-0.1,0-0.1
			c5.5-8.4,10.7-18.9,6-23.6c-2.4-2.4-6.4-2.4-12-0.3c-2.6,1-5.5,2.5-8.7,4.5c1.8,1,3.4,2.2,5,3.5l2.5,2.1l-1.1,3.1
			c-1.3,3.7-4,8.3-8,13.5c-3.6,4.7-8,9.7-12.9,14.6c-4.9,4.9-9.9,9.3-14.6,12.9c-5.3,4-9.8,6.6-13.5,7.9l-3,1l-2-2.5
			c-1.3-1.5-2.4-3.2-3.4-4.9c-1.9,3.1-3.3,6-4.3,8.5c-2.2,5.6-2.1,9.6,0.3,12c1.3,1.3,3,1.8,5,1.8c5.2,0,12.1-3.7,18.1-7.6L77,122.6
			z"/>
		<path class="st1" d="M63,111.1c13.4-4.5,41.3-32.5,46.1-46c-2-1.6-4.1-3-6.4-4.2c-4.4-2.2-9.3-3.4-14.5-3.4c-0.9,0-1.8,0-2.7,0.1
			c-15.9,1.3-28.6,14-29.9,29.9c-0.1,0.9-0.1,1.8-0.1,2.7c0,5.2,1.2,10.2,3.4,14.5C60,107.1,61.4,109.2,63,111.1z M75.7,82.5h4.7
			v4.7h-4.7V82.5z M66.3,87.2H71v4.7h-4.7V87.2z"/>
		<path class="st1" d="M122.3,84.9c-4.9,6.8-11.1,13.9-18.1,20.9c-7,7-14.3,13.3-21.1,18.3c3.2,1.1,6.6,1.7,10.2,1.7
			c4.8,0,9.3-1.1,13.3-3c2.9-1.6,5.7-3.6,8.1-6.1c3.3-3.3,5.8-7,7.5-11.2c1.2-3.3,1.9-6.8,1.9-10.5C124,91.5,123.5,88.1,122.3,84.9
			L122.3,84.9z M111.5,114.2h-4.7v-4.7h4.7V114.2z"/>
	</g>
</g>
</svg>
