<?xml version="1.0" encoding="utf-8"?>
<!-- Generator: Adobe Illustrator 24.0.2, SVG Export Plug-In . SVG Version: 6.00 Build 0)  -->
<svg version="1.1" id="Layer_1" xmlns="http://www.w3.org/2000/svg" xmlns:xlink="http://www.w3.org/1999/xlink" x="0px" y="0px"
	 viewBox="0 0 183.7 187.1" style="enable-background:new 0 0 183.7 187.1;" xml:space="preserve">
<style type="text/css">
	.st0{fill:url(#SVGID_1_);}
	.st1{fill:#CE5763;}
</style>
<linearGradient id="SVGID_1_" gradientUnits="userSpaceOnUse" x1="2.814" y1="189.9386" x2="167.7543" y2="6.8844" gradientTransform="matrix(1 0 0 -1 0 184.9388)">
	<stop  offset="0" style="stop-color:#F9C1AB"/>
	<stop  offset="1" style="stop-color:#E49398"/>
</linearGradient>
<path class="st0" d="M89.5,174.9c45.2,0,81.8-37.5,81.8-83.7c0-46.3-36.6-83.7-81.8-83.7C44.3,7.4,7.7,44.9,7.7,91.2
	C7.7,137.4,44.3,174.9,89.5,174.9z"/>
<g>
	<g>
		<g>
			<path class="st1" d="M65.2,98c0.2,2,1.3,3.8,3.2,4.9c1.5,0.9,3.1,1.5,4.8,1.9c-0.9,3.1-2.6,7.6-5.6,12.4
				c-2.8,4.6-2.9,10.1-0.1,15.1c4.1,7.4,13.2,12.4,22.6,12.4c6.5,0,12.2-3,16.2-8.4c5.7-7.7,6.9-19.1,3.4-30.5
				c-3.3-10.5,1.1-16.2,4-18.6c2.4,2.3,5.6,3.7,9.2,3.7c7.3,0,13.3-5.9,13.3-13.3c0-7.3-5.9-13.3-13.3-13.3
				c-7.3,0-13.3,5.9-13.3,13.3c0,1,0.1,2,0.4,3c-5.5,4-11.9,13.1-7.4,27.4c2.8,9,2,18.1-2.3,23.8c-1.8,2.4-5,5.3-10.2,5.3
				c-6.7,0-13.3-3.5-16.1-8.6c-1-1.9-1.9-4.7-0.1-7.5c4-6.3,6-12.3,6.9-15.9c2.2-0.3,4.4-1,6.4-2.1c1.8-1,3-2.8,3.2-4.7
				c8.8-7.9,12.8-22.2,13.1-23.1c0.5-1.7-0.3-3.5-1.8-4.3c1.2-10.7-2.8-16.1-5.2-18.3c0.2-1-0.2-2.1-1.1-2.7l-4.4-2.9
				c-1.1-0.8-2.6-0.4-3.2,0.9L85.6,52c-0.6,1.2-0.1,2.5,1.2,2.9l5,1.5c1.3,0.4,2.8-0.2,3.5-1.3c2,2.1,4.8,6.7,3.9,15.6
				c-1.4,0.3-2.5,1.2-2.9,2.7c-1.2,4.3-4.6,13.2-9.8,18.5c-1.6-0.6-3.5-0.6-5.2,0.3C80.2,92.7,79.1,93,78,93h-0.2
				c-1.1,0-2.3-0.3-3.4-1c-1.6-0.9-3.5-1-5.1-0.4c-5-5.3-8.4-14-9.6-18.2c-0.4-1.4-1.6-2.4-2.9-2.7c-1-8.9,1.9-13.5,3.9-15.6
				c0.7,1.1,2.2,1.7,3.5,1.3l5-1.5c1.3-0.4,1.9-1.7,1.2-2.9L68.3,48c-0.6-1.2-2.1-1.6-3.2-0.9L60.7,50c-0.9,0.6-1.3,1.7-1.1,2.7
				c-2.4,2.2-6.4,7.6-5.2,18.3c-1.5,0.8-2.3,2.6-1.8,4.3C52.8,76.2,56.7,90,65.2,98z M122.8,72.5c2.9,0,5.2,2.3,5.2,5.2
				c0,2.9-2.3,5.2-5.2,5.2c-2.9,0-5.2-2.3-5.2-5.2C117.6,74.8,119.9,72.5,122.8,72.5z"/>
		</g>
	</g>
</g>
</svg>
