<?xml version="1.0" encoding="utf-8"?>
<!-- Generator: Adobe Illustrator 24.0.2, SVG Export Plug-In . SVG Version: 6.00 Build 0)  -->
<svg version="1.1" id="Layer_1" xmlns="http://www.w3.org/2000/svg" xmlns:xlink="http://www.w3.org/1999/xlink" x="0px" y="0px"
	 viewBox="0 0 183.7 187.1" style="enable-background:new 0 0 183.7 187.1;" xml:space="preserve">
<style type="text/css">
	.st0{fill:url(#SVGID_1_);}
	.st1{fill:#DC5761;}
</style>
<linearGradient id="SVGID_1_" gradientUnits="userSpaceOnUse" x1="6.7067" y1="176.5521" x2="176.2041" y2="11.013" gradientTransform="matrix(1 0 0 -1 0 184.9388)">
	<stop  offset="0" style="stop-color:#FFA8E8"/>
	<stop  offset="1" style="stop-color:#FFE6E6"/>
</linearGradient>
<path class="st0" d="M91.5,175.9c45.7,0,82.8-38,82.8-84.8c0-46.8-37.1-84.8-82.8-84.8c-45.7,0-82.8,38-82.8,84.8
	C8.7,138,45.7,175.9,91.5,175.9z"/>
<g id="money_路_ecommerce_路_shopping_路_buy_路_dollar">
	<path class="st1" d="M109.7,124.4c11,0,19.9-8.9,19.9-19.9s-8.9-19.9-19.9-19.9c-2,0-4,0.3-5.9,0.9c-2,8-7,14.9-14,19.2
		C89.9,115.6,98.8,124.4,109.7,124.4z M113,106.1h-6.6c-2.8,0-5-2.2-5-5v-3.3c0-2.8,2.2-5,5-5h1.7v-3.3c0-0.9,0.7-1.7,1.7-1.7
		s1.7,0.7,1.7,1.7v3.3h1.7c2.8,0,5,2.2,5,5c0,0.9-0.7,1.7-1.7,1.7c-0.9,0-1.7-0.7-1.7-1.7c0-0.9-0.7-1.7-1.7-1.7h-6.6
		c-0.9,0-1.7,0.7-1.7,1.7v3.3c0,0.9,0.7,1.7,1.7,1.7h6.6c2.8,0,5,2.2,5,5v3.3c0,2.8-2.2,5-5,5h-1.7v3.3c0,0.9-0.7,1.7-1.7,1.7
		s-1.7-0.7-1.7-1.7v-3.3h-1.7c-2.8,0-5-2.2-5-5c0-0.9,0.7-1.7,1.7-1.7c0.9,0,1.7,0.7,1.7,1.7c0,0.9,0.7,1.7,1.7,1.7h6.6
		c0.9,0,1.7-0.7,1.7-1.7v-3.3C114.7,106.9,114,106.1,113,106.1z"/>
	<path class="st1" d="M109.7,76.2c-1.7,0-3.4,0.2-5,0.5c0,0.4,0.1,0.8,0.1,1.2c0,1.3-0.1,2.6-0.3,3.9c12.5-2.9,25,4.9,27.9,17.4
		s-4.9,25-17.4,27.9c-12.5,2.9-25-4.9-27.9-17.4c-0.3-1.1-0.4-2.2-0.5-3.3c-1.5,0.7-3.1,1.3-4.8,1.8c2.1,15.4,16.3,26.2,31.7,24.2
		s26.2-16.3,24.2-31.7C135.8,86.7,123.8,76.2,109.7,76.2z"/>
	<path class="st1" d="M73.2,97.8c11,0,19.9-8.9,19.9-19.9S84.2,58,73.2,58s-19.9,8.9-19.9,19.9C53.3,88.9,62.2,97.8,73.2,97.8z
		 M76.5,79.6h-6.6c-2.8,0-5-2.2-5-5v-3.3c0-2.8,2.2-5,5-5h1.7V63c0-0.9,0.7-1.7,1.7-1.7c0.9,0,1.7,0.7,1.7,1.7v3.3h1.7
		c2.8,0,5,2.2,5,5c0,0.9-0.7,1.7-1.7,1.7c-0.9,0-1.7-0.7-1.7-1.7c0-0.9-0.7-1.7-1.7-1.7h-6.6c-0.9,0-1.7,0.7-1.7,1.7v3.3
		c0,0.9,0.7,1.7,1.7,1.7h6.6c2.8,0,5,2.2,5,5v3.3c0,2.8-2.2,5-5,5h-1.7v3.3c0,0.9-0.7,1.7-1.7,1.7c-0.9,0-1.7-0.7-1.7-1.7v-3.3h-1.7
		c-2.8,0-5-2.2-5-5c0-0.9,0.7-1.7,1.7-1.7s1.7,0.7,1.7,1.7c0,0.9,0.7,1.7,1.7,1.7h6.6c0.9,0,1.7-0.7,1.7-1.7v-3.3
		C78.2,80.3,77.4,79.6,76.5,79.6z"/>
	<path class="st1" d="M73.2,106.1c15.6,0,28.2-12.6,28.2-28.2S88.8,49.7,73.2,49.7S45,62.3,45,77.9C45,93.5,57.6,106.1,73.2,106.1z
		 M73.2,54.7c12.8,0,23.2,10.4,23.2,23.2S86,101.1,73.2,101.1S50,90.7,50,77.9C50,65.1,60.4,54.7,73.2,54.7z"/>
</g>
</svg>
