<?xml version="1.0" encoding="utf-8"?>
<!-- Generator: Adobe Illustrator 24.0.2, SVG Export Plug-In . SVG Version: 6.00 Build 0)  -->
<svg version="1.1" id="Layer_1" xmlns="http://www.w3.org/2000/svg" xmlns:xlink="http://www.w3.org/1999/xlink" x="0px" y="0px"
	 viewBox="0 0 183.7 187.1" style="enable-background:new 0 0 183.7 187.1;" xml:space="preserve">
<style type="text/css">
	.st0{fill:url(#SVGID_1_);}
	.st1{fill:#4C82DE;}
</style>
<linearGradient id="SVGID_1_" gradientUnits="userSpaceOnUse" x1="24.9414" y1="170.7901" x2="200.8429" y2="-39.176" gradientTransform="matrix(1 0 0 -1 0 184.9388)">
	<stop  offset="0" style="stop-color:#9CB3FF"/>
	<stop  offset="1" style="stop-color:#B0FFE9"/>
</linearGradient>
<path class="st0" d="M89.5,174.9c45.2,0,81.8-37.5,81.8-83.7c0-46.3-36.6-83.7-81.8-83.7C44.3,7.4,7.7,44.9,7.7,91.2
	C7.7,137.4,44.3,174.9,89.5,174.9z"/>
<g id="surface1">
	<path class="st1" d="M48.2,128.5h43.3c1.3,0,2.4-1.1,2.4-2.4v-2.5c0-2.6-2.1-4.8-4.8-4.8V116c0-3.8-3.1-6.9-6.9-6.9H57.4
		c-3.8,0-6.9,3.1-6.9,6.9v2.9c-2.6,0-4.8,2.1-4.8,4.8v2.5C45.8,127.5,46.8,128.5,48.2,128.5z"/>
	<path class="st1" d="M75.7,99.6c1.6,2.1,4.6,2.5,6.7,0.9c2.1-1.6,2.5-4.6,0.9-6.7L68.9,74.7c-1.6-2.1-4.6-2.5-6.7-0.9
		c-2.1,1.6-2.5,4.6-0.9,6.7L75.7,99.6z"/>
	<path class="st1" d="M110,73.7c1.6,2.1,4.6,2.5,6.7,0.9c2.1-1.6,2.5-4.6,0.9-6.7l-14.4-19.1c-1.6-2.1-4.6-2.5-6.7-0.9
		s-2.5,4.6-0.9,6.7L110,73.7z"/>
	<path class="st1" d="M99.6,87.6c3.5-2.7,6.2-6,7.8-9.4L90.7,55.9c-3.8,0.6-7.7,2.3-11.2,4.9c-3.5,2.7-6.2,6-7.8,9.4l16.7,22.2
		C92.1,91.9,96,90.2,99.6,87.6z"/>
	<path class="st1" d="M106,88.2c-1.1,1.1-2.3,2.2-3.6,3.2c-1.3,1-2.7,1.8-4.1,2.6l3.1,4.1l7.6-5.8L106,88.2z"/>
	<path class="st1" d="M112,96.2l-7.6,5.8l14.4,19.1c1.6,2.1,4.6,2.5,6.7,0.9c2.1-1.6,2.5-4.6,0.9-6.7L112,96.2z"/>
</g>
</svg>
