<?xml version="1.0" encoding="utf-8"?>
<!-- Generator: Adobe Illustrator 24.0.2, SVG Export Plug-In . SVG Version: 6.00 Build 0)  -->
<svg version="1.1" id="Layer_1" xmlns="http://www.w3.org/2000/svg" xmlns:xlink="http://www.w3.org/1999/xlink" x="0px" y="0px"
	 viewBox="0 0 183.7 187.1" style="enable-background:new 0 0 183.7 187.1;" xml:space="preserve">
<style type="text/css">
	.st0{fill:url(#SVGID_1_);}
	.st1{fill:#50A091;}
</style>
<linearGradient id="SVGID_1_" gradientUnits="userSpaceOnUse" x1="2.8143" y1="189.9389" x2="167.7546" y2="6.8847" gradientTransform="matrix(1 0 0 -1 0 184.9388)">
	<stop  offset="0" style="stop-color:#B7EFF3"/>
	<stop  offset="1" style="stop-color:#6EDEC6"/>
</linearGradient>
<path class="st0" d="M89.5,174.9c45.2,0,81.8-37.5,81.8-83.7c0-46.3-36.6-83.7-81.8-83.7C44.3,7.4,7.7,44.9,7.7,91.2
	C7.7,137.4,44.3,174.9,89.5,174.9z"/>
<g>
	<g>
		<g>
			<path class="st1" d="M73.5,68.4l-1.8-9.2c-0.2-0.9-1.1-1.6-2.1-1.4c-0.9,0.2-1.6,1.1-1.4,2.1l1.8,9.2c0.2,0.8,0.9,1.4,1.7,1.4
				c0.1,0,0.2,0,0.3,0C73.1,70.2,73.7,69.3,73.5,68.4z"/>
		</g>
	</g>
</g>
<g>
	<g>
		<g>
			<path class="st1" d="M105.5,57.8c-1-0.2-1.9,0.4-2.1,1.4l-1.8,9.2c-0.2,0.9,0.4,1.9,1.4,2.1c0.1,0,0.2,0,0.3,0
				c0.8,0,1.6-0.6,1.7-1.4l1.8-9.2C107,58.9,106.4,58,105.5,57.8z"/>
		</g>
	</g>
</g>
<g>
	<g>
		<g>
			<path class="st1" d="M111.4,78.3c-0.3-0.9-1.3-1.4-2.2-1.1c-0.9,0.3-1.4,1.3-1.1,2.2c0.3,1,0.5,2.1,0.5,3.3
				c0,3.4-1.2,5.3-1.9,5.2c-0.5-0.3-1.1-0.4-1.6-0.1c-0.5,0.2-0.9,0.7-1,1.2c-2.4,9.9-9.1,16.5-16.5,16.5c-7.4,0-14.1-6.6-16.5-16.5
				c-0.1-0.5-0.6-0.9-1.1-1.2c-0.5-0.2-1.2-0.1-1.6,0.2c-0.4,0-1.8-1.9-1.8-5.3c0-1.2,0.2-2.3,0.5-3.3c0.3-0.9-0.2-1.9-1.1-2.2
				c-0.9-0.3-1.9,0.2-2.2,1.1c-0.4,1.3-0.7,2.9-0.7,4.4c0,4.9,2.2,8.6,5,8.8C71.3,102,78.9,109,87.5,109s16.3-7,19.5-17.5
				c2.9-0.2,5-3.9,5-8.8C112.1,81.1,111.8,79.6,111.4,78.3z"/>
		</g>
	</g>
</g>
<g>
	<g>
		<g>
			<path class="st1" d="M82.3,81h-3.5c-1,0-1.8,0.8-1.8,1.8c0,1,0.8,1.8,1.8,1.8h3.5c1,0,1.8-0.8,1.8-1.8C84,81.7,83.3,81,82.3,81z"
				/>
		</g>
	</g>
</g>
<g>
	<g>
		<g>
			<path class="st1" d="M96.3,81h-3.5c-1,0-1.8,0.8-1.8,1.8c0,1,0.8,1.8,1.8,1.8h3.5c1,0,1.8-0.8,1.8-1.8C98,81.7,97.3,81,96.3,81z"
				/>
		</g>
	</g>
</g>
<g>
	<g>
		<g>
			<path class="st1" d="M76.7,100.9L66.5,87.4V74c0-1-0.8-1.8-1.8-1.8c-1,0-1.8,0.8-1.8,1.8c0,5.7-3.1,18.2-6.5,21.5
				c-0.7,0.7-0.7,1.8,0,2.5c3.9,3.9,17,5.6,18.5,5.8c0.1,0,0.1,0,0.2,0c0.6,0,1.2-0.3,1.5-0.9C77.2,102.2,77.1,101.5,76.7,100.9z"/>
		</g>
	</g>
</g>
<g>
	<g>
		<g>
			<path class="st1" d="M118.5,95.5c-3.4-3.3-6.5-15.9-6.5-21.5c0-1-0.8-1.8-1.8-1.8c-1,0-1.8,0.8-1.8,1.8v13.4l-10.2,13.5
				c-0.4,0.6-0.5,1.3-0.1,1.9c0.3,0.5,0.9,0.9,1.5,0.9c0.1,0,0.1,0,0.2,0c1.5-0.2,14.7-1.9,18.5-5.8
				C119.2,97.3,119.2,96.2,118.5,95.5z"/>
		</g>
	</g>
</g>
<g>
	<g>
		<g>
			<path class="st1" d="M107.5,49.6c-0.4-0.2-9-3.6-19.9-3.6S68,49.4,67.6,49.6c-0.8,0.3-1.2,1.1-1.1,2L70.1,69
				c0.2,0.8,0.9,1.4,1.7,1.4h31.5c0.8,0,1.6-0.6,1.7-1.4l3.5-17.5C108.7,50.7,108.2,49.9,107.5,49.6z M91,59.9h-1.8v1.8
				c0,1-0.8,1.8-1.8,1.8c-1,0-1.8-0.8-1.8-1.8v-1.8H84c-1,0-1.8-0.8-1.8-1.8c0-1,0.8-1.8,1.8-1.8h1.8v-1.8c0-1,0.8-1.8,1.8-1.8
				s1.8,0.8,1.8,1.8v1.8H91c1,0,1.8,0.8,1.8,1.8C92.8,59.2,92,59.9,91,59.9z"/>
		</g>
	</g>
</g>
<g>
	<g>
		<g>
			<path class="st1" d="M109.7,63.5l-1.2,6.2c-0.5,2.4-2.7,4.2-5.1,4.2H89.2c6,3.7,13.4,6.6,20.5,6.6c0.8,0,1.5-0.6,1.7-1.4
				c0.4-2,0.6-3.6,0.6-5.2C112.1,70.2,111.2,66.7,109.7,63.5z"/>
		</g>
	</g>
</g>
<g>
	<g>
		<g>
			<path class="st1" d="M71.8,74c-2.5,0-4.7-1.8-5.2-4.2l-1.2-6.2C63.9,66.7,63,70.2,63,74c0,1.6,0.2,3.3,0.6,5.2
				c0.1,0.5,0.4,0.9,0.9,1.2c0.5,0.2,1,0.3,1.5,0.1c0.4-0.1,5.4-2.2,9.4-6.5H71.8z"/>
		</g>
	</g>
</g>
<g>
	<g>
		<g>
			<path class="st1" d="M114.3,107.7l-1.4-0.5c-0.6-0.2-1.2-0.1-1.7,0.3c-0.5,0.4-0.7,1-0.6,1.6l1.4,7.6c0.3,1.4,0,2.8-0.9,3.9
				c-0.8,1.1-2,1.9-3.4,2.2l-19.3,3.5c-0.3,0.1-0.6,0.1-0.9,0.1c-0.3,0-0.6,0-0.9-0.1l-19.3-3.5c-1.4-0.2-2.6-1-3.4-2.2
				c-0.8-1.2-1.1-2.6-0.9-3.9l1.4-7.6c0.1-0.6-0.1-1.2-0.6-1.6c-0.5-0.4-1.1-0.5-1.7-0.3l-1.4,0.5c-9.4,3.3-15.3,11.2-15.3,20.6
				c0,1,0.8,1.8,1.8,1.8h40.3h40.3c1,0,1.8-0.8,1.8-1.8C129.6,118.8,123.7,110.9,114.3,107.7z"/>
		</g>
	</g>
</g>
<g>
	<g>
		<g>
			<path class="st1" d="M108.5,117.4l-2.1-11.5c-0.1-0.6-0.5-1.1-1.1-1.3c-0.6-0.2-1.2-0.1-1.7,0.3l-16.1,12.5l-16.1-12.5
				c-0.5-0.4-1.1-0.5-1.7-0.3c-0.6,0.2-1,0.7-1.1,1.3l-2.1,11.5c-0.1,0.5,0,0.9,0.3,1.3c0.3,0.4,0.7,0.6,1.1,0.7l19.3,3.5
				c0.1,0,0.2,0,0.3,0c0.1,0,0.2,0,0.3,0l19.3-3.5c0.5-0.1,0.9-0.3,1.1-0.7C108.5,118.3,108.6,117.9,108.5,117.4z"/>
		</g>
	</g>
</g>
</svg>
