<?xml version="1.0" encoding="utf-8"?>
<!-- Generator: Adobe Illustrator 24.0.2, SVG Export Plug-In . SVG Version: 6.00 Build 0)  -->
<svg version="1.1" id="Layer_1" xmlns="http://www.w3.org/2000/svg" xmlns:xlink="http://www.w3.org/1999/xlink" x="0px" y="0px"
	 viewBox="0 0 183.7 187.1" style="enable-background:new 0 0 183.7 187.1;" xml:space="preserve">
<style type="text/css">
	.st0{fill:url(#SVGID_1_);}
	.st1{fill:#69BED3;}
	.st2{fill:url(#Shape_9_);}
	.st3{fill:url(#Shape_10_);}
	.st4{fill:url(#Shape_11_);}
	.st5{fill:url(#Shape_12_);}
	.st6{fill:url(#Shape_13_);}
	.st7{fill:url(#Shape_14_);}
	.st8{fill:url(#Shape_15_);}
	.st9{fill:url(#Shape_16_);}
</style>
<linearGradient id="SVGID_1_" gradientUnits="userSpaceOnUse" x1="-8.698342e-02" y1="193.1584" x2="170.376" y2="3.9754" gradientTransform="matrix(1 0 0 -1 0 184.9388)">
	<stop  offset="0" style="stop-color:#59DBB0"/>
	<stop  offset="1" style="stop-color:#FEFFB5"/>
</linearGradient>
<path class="st0" d="M89.5,177.7c46.7,0,84.5-38.8,84.5-86.6S136.1,4.6,89.5,4.6C42.8,4.6,4.9,43.4,4.9,91.2S42.8,177.7,89.5,177.7z
	"/>
<g id="Page-1">
	<g id="_x30_13---Brain-Monitor">
		<path id="Shape" class="st1" d="M127.5,89.6c0,3-1.1,5.9-3.2,8.2c0,0,0,0,0,0c0,0,0,0,0,0.1c-0.3,1.5-0.7,2.9-1.4,4.2
			c-1.2,2.5-3,4.7-5.2,6.3h0c-0.3,0.2-0.5,0.4-0.8,0.6c0,0-0.1,0.1-0.1,0.1c-0.9,0.6-1.8,1.1-2.8,1.4l0,0c0.7,0.7,1.4,1.4,2,2.3
			c3.3,4.8,4.1,11.7,4.3,14.7c0,0.4-0.1,0.8-0.4,1.1c-0.3,0.3-0.6,0.4-1,0.4h-4.4c-0.7,0-1.3-0.5-1.4-1.2c-0.4-2.2-2-6.7-8.5-8.9
			c-7-2.3-9.3-4.7-9.9-8.6c-0.1-1-0.2-1.9-0.2-2.9c-2.5,0-4.9-0.5-7.3-1.4c-2.8,3.3-7.2,4.8-11.5,4c-4.3-0.8-7.8-3.9-9.2-8
			c-0.9,0.3-1.8,0.6-2.7,0.7c-1,0.2-2,0.3-3,0.3c-9.1,0-16.5-7.4-16.5-16.5c0-2.5,0.6-4.9,1.7-7.1c0.4-1,1-1.9,1.6-2.7
			c-0.1-0.2-0.2-0.5-0.2-0.7c-0.1-0.5-0.2-1.1-0.2-1.6c0-3.4,2.4-6.4,5.8-7c0-0.3,0-0.6,0-0.8c0-0.7,0.1-1.4,0.2-2.1
			c1-4.3,4.7-7.3,9.1-7.3c1.4,0,2.8,0.3,4,0.9c2.1-3.5,5.6-5.9,9.6-6.5s8.1,0.5,11.1,3.2c1.4-2.3,4-3.6,6.7-3.4c2.7,0.2,5,1.9,6,4.4
			c0.7-0.1,1.3-0.1,2-0.1c9,0,16.4,6.9,17.2,15.8h0.1c2.6,0,4.9,1.4,6.2,3.6c1.3,2.2,1.3,4.9,0,7.2C126.6,84.5,127.5,87,127.5,89.6
			L127.5,89.6z"/>
		<g>
			<linearGradient id="Shape_9_" gradientUnits="userSpaceOnUse" x1="52.8287" y1="67.3522" x2="61.4408" y2="67.3522">
				<stop  offset="0" style="stop-color:#69BED3"/>
				<stop  offset="0.4601" style="stop-color:#79AFDA"/>
				<stop  offset="1" style="stop-color:#A786EF"/>
			</linearGradient>
			<path id="Shape_1_" class="st2" d="M60.9,69.9c-0.2,0.2-0.5,0.3-0.9,0.3c-0.5,0-0.9-0.2-1.1-0.6c-1.3-1.8-3.6-2.6-5.7-2.2
				c-0.1,0-0.2,0-0.3,0c0-0.3,0-0.6,0-0.8c0-0.7,0.1-1.4,0.2-2.1c3.1-0.4,6.2,0.9,8.1,3.4C61.6,68.6,61.5,69.5,60.9,69.9z"/>
			<linearGradient id="Shape_10_" gradientUnits="userSpaceOnUse" x1="98.5966" y1="96.1957" x2="124.279" y2="96.1957">
				<stop  offset="0" style="stop-color:#69BED3"/>
				<stop  offset="0.4601" style="stop-color:#79AFDA"/>
				<stop  offset="1" style="stop-color:#A786EF"/>
			</linearGradient>
			<path id="Shape_2_" class="st3" d="M124.3,97.9c-0.3,1.5-0.7,2.9-1.4,4.2c-1.7,0.8-3.6,1.2-5.5,1.2c-2.2,0-4.3-0.5-6.2-1.5
				c-1.1-0.5-2.1-1.2-3-2.1c-3.5,1.7-7.7,0.2-9.4-3.3c-0.3-0.5-0.3-1,0-1.5c0.3-0.5,0.8-0.7,1.3-0.7c0.5,0,1,0.4,1.2,0.9
				c0.9,1.8,2.9,2.7,4.8,2.3c2-0.5,3.3-2.2,3.3-4.2c0-0.7-0.2-1.3-0.5-1.9c-0.3-0.7-0.1-1.6,0.6-1.9c0.7-0.4,1.6-0.1,1.9,0.6
				c1.3,2.6,0.9,5.7-1,7.9c0.6,0.5,1.2,0.9,1.9,1.3C116.4,101.1,121,100.6,124.3,97.9L124.3,97.9z"/>
			<linearGradient id="Shape_11_" gradientUnits="userSpaceOnUse" x1="109.2762" y1="112.4916" x2="115.9542" y2="112.4916">
				<stop  offset="0" style="stop-color:#69BED3"/>
				<stop  offset="0.4601" style="stop-color:#79AFDA"/>
				<stop  offset="1" style="stop-color:#A786EF"/>
			</linearGradient>
			<path id="Shape_3_" class="st4" d="M114,110.6c0.7,0.7,1.4,1.4,2,2.3c-1.6,0.8-3.3,1.3-5,1.6c-0.1,0-0.2,0-0.2,0
				c-0.7,0-1.3-0.5-1.4-1.2c-0.1-0.4,0-0.8,0.3-1.1c0.2-0.3,0.6-0.5,0.9-0.6C111.7,111.4,112.9,111,114,110.6z"/>
			<linearGradient id="Shape_12_" gradientUnits="userSpaceOnUse" x1="94.4515" y1="108.5206" x2="101.806" y2="108.5206">
				<stop  offset="0" style="stop-color:#69BED3"/>
				<stop  offset="0.4601" style="stop-color:#79AFDA"/>
				<stop  offset="1" style="stop-color:#A786EF"/>
			</linearGradient>
			<path id="Shape_4_" class="st5" d="M100.8,109.5c-1.6,0.5-3.2,0.8-4.8,0.9c-0.4,0-0.9,0.1-1.4,0.1c-0.1-1-0.2-1.9-0.2-2.9
				c0.4,0,0.9,0,1.3-0.1c1.4-0.1,2.8-0.3,4.2-0.8c0.5-0.1,1,0,1.4,0.3c0.4,0.4,0.5,0.9,0.4,1.4C101.7,108.9,101.3,109.3,100.8,109.5
				L100.8,109.5z"/>
			<linearGradient id="Shape_13_" gradientUnits="userSpaceOnUse" x1="55.6995" y1="95.8918" x2="67.4798" y2="95.8918">
				<stop  offset="0" style="stop-color:#69BED3"/>
				<stop  offset="0.4601" style="stop-color:#79AFDA"/>
				<stop  offset="1" style="stop-color:#A786EF"/>
			</linearGradient>
			<path id="Shape_5_" class="st6" d="M67.3,92.7c-1,1.7-1.5,3.6-1.5,5.5c0,1.2,0.2,2.4,0.6,3.5c0.1,0.2,0.1,0.3,0.1,0.5
				c-0.9,0.3-1.8,0.6-2.7,0.7c0-0.1-0.1-0.2-0.1-0.3c-0.5-1.4-0.8-3-0.8-4.5c0-0.2,0-0.5,0-0.7h0c-4,0-7.2-3.2-7.2-7.2
				c0-0.8,0.6-1.4,1.4-1.5c0.4,0,0.7,0.1,1,0.4c0.3,0.3,0.4,0.6,0.4,1v0.1c0,2.4,1.9,4.3,4.3,4.3c0.2,0,0.3,0,0.5,0
				c0.3-1.2,0.8-2.3,1.4-3.4c0.4-0.7,1.3-0.9,2-0.5C67.5,91.1,67.7,92,67.3,92.7L67.3,92.7z"/>
			<linearGradient id="Shape_14_" gradientUnits="userSpaceOnUse" x1="63.3172" y1="56.6298" x2="88.4039" y2="56.6298">
				<stop  offset="0" style="stop-color:#69BED3"/>
				<stop  offset="0.4601" style="stop-color:#79AFDA"/>
				<stop  offset="1" style="stop-color:#A786EF"/>
			</linearGradient>
			<path id="Shape_6_" class="st7" d="M64.8,63.1c-0.1,0-0.2,0-0.4,0c-0.4-0.1-0.7-0.3-0.9-0.7c-0.2-0.3-0.2-0.7-0.1-1.1
				c1.3-5,5.2-9.1,10.2-10.6c5-1.5,10.4-0.4,14.3,3.1c0.4,0.3,0.6,0.9,0.5,1.4c-0.1,0.5-0.5,0.9-1,1.1c-0.5,0.2-1,0-1.4-0.3
				c-2.2-2-5.1-3-8-3c-4.3,0-8.3,2.3-10.5,6c-0.6,1-1,2-1.3,3.1C66,62.7,65.4,63.1,64.8,63.1L64.8,63.1z"/>
			<linearGradient id="Shape_15_" gradientUnits="userSpaceOnUse" x1="84.4059" y1="55.136" x2="101.6297" y2="55.136">
				<stop  offset="0" style="stop-color:#69BED3"/>
				<stop  offset="0.4601" style="stop-color:#79AFDA"/>
				<stop  offset="1" style="stop-color:#A786EF"/>
			</linearGradient>
			<path id="Shape_7_" class="st8" d="M100.2,60.2c-0.8,0-1.4-0.6-1.4-1.4c0-3.2-2.6-5.7-5.7-5.7s-5.7,2.6-5.7,5.7
				c0,0.8-0.6,1.4-1.4,1.4s-1.4-0.6-1.4-1.4c0-4.8,3.9-8.6,8.6-8.6c4.8,0,8.6,3.9,8.6,8.6c0,0.4-0.2,0.7-0.4,1
				C100.9,60,100.6,60.2,100.2,60.2z"/>
			<linearGradient id="Shape_16_" gradientUnits="userSpaceOnUse" x1="113.1122" y1="78.4814" x2="127.4654" y2="78.4814">
				<stop  offset="0" style="stop-color:#69BED3"/>
				<stop  offset="0.4601" style="stop-color:#79AFDA"/>
				<stop  offset="1" style="stop-color:#A786EF"/>
			</linearGradient>
			<path id="Shape_8_" class="st9" d="M121.9,86.8c-0.7,0-1.3-0.5-1.4-1.1c-0.1-0.7,0.2-1.3,0.8-1.6c1.1-0.5,2-1.3,2.6-2.4
				c1.3-2.4,0.8-5.4-1.2-7.2c-2-1.8-5.1-1.9-7.2-0.3c-0.4,0.3-1,0.4-1.4,0.2c-0.5-0.2-0.8-0.6-0.9-1.1c-0.1-0.5,0.2-1,0.6-1.3
				c2.6-2,6.1-2.3,9-0.8c2.9,1.5,4.8,4.4,4.8,7.7c0,3.3-1.9,6.4-5,7.8C122.3,86.7,122.1,86.8,121.9,86.8L121.9,86.8z"/>
		</g>
	</g>
</g>
</svg>
