<?xml version="1.0" encoding="utf-8"?>
<!-- Generator: Adobe Illustrator 24.0.2, SVG Export Plug-In . SVG Version: 6.00 Build 0)  -->
<svg version="1.1" id="Layer_1" xmlns="http://www.w3.org/2000/svg" xmlns:xlink="http://www.w3.org/1999/xlink" x="0px" y="0px"
	 viewBox="0 0 183.7 187.1" style="enable-background:new 0 0 183.7 187.1;" xml:space="preserve">
<style type="text/css">
	.st0{fill:url(#SVGID_1_);}
	.st1{fill:#B957FF;}
</style>
<linearGradient id="SVGID_1_" gradientUnits="userSpaceOnUse" x1="5.8735" y1="188.7632" x2="168.7973" y2="7.9471" gradientTransform="matrix(1 0 0 -1 0 184.9388)">
	<stop  offset="0" style="stop-color:#EDD0FF"/>
	<stop  offset="1" style="stop-color:#DDA7FE"/>
</linearGradient>
<path class="st0" d="M91.5,173.9c44.6,0,80.8-37,80.8-82.7c0-45.7-36.2-82.7-80.8-82.7c-44.6,0-80.8,37-80.8,82.7
	C10.7,136.8,46.8,173.9,91.5,173.9z"/>
<path class="st1" d="M55.8,110.5V74.9c-1.8-0.1-3.5-0.1-5.1-0.2c-0.9,0-1.7,0.7-1.7,1.6v41.4c0,0.9,0.7,1.6,1.5,1.6
	c8.5,0.5,19.7,0.9,30.2,3.5c-7.9-6.1-16.5-8.8-23-10C56.6,112.6,55.8,111.6,55.8,110.5L55.8,110.5z"/>
<path class="st1" d="M124.2,74.6v35.9c0,1.2-0.8,2.2-2,2.4c-6.5,1.2-15.1,4-23,10c10.5-2.5,21.7-3,30.2-3.5c0.9,0,1.5-0.8,1.5-1.6
	V76.2c0-0.9-0.7-1.6-1.6-1.6C127.9,74.6,126.1,74.6,124.2,74.6L124.2,74.6z"/>
<path class="st1" d="M60.6,63.4v45.1c8,1.8,18.2,5.6,27,13.8V75c-5.6-7-15.9-11.5-25.1-13.2C61.5,61.6,60.6,62.4,60.6,63.4
	L60.6,63.4z M80.6,100.1c-0.7,1.1-2.2,1.5-3.3,0.8c-1.3-0.8-4.6-2.7-7.5-3.2c-1.3-0.2-2.2-1.5-2-2.8s1.5-2.2,2.8-2
	c3.6,0.6,7.3,2.6,9.2,3.8C80.9,97.5,81.3,99,80.6,100.1L80.6,100.1z M80.7,84.9c-0.8,1.1-2.3,1.4-3.4,0.6c-1.6-1.1-4.5-2.5-7.5-3.1
	c-1.3-0.2-2.2-1.5-2-2.8s1.5-2.2,2.8-2c3.8,0.6,7.4,2.4,9.5,3.9C81.1,82.3,81.4,83.8,80.7,84.9L80.7,84.9z"/>
<path class="st1" d="M117.4,61.8C108.4,63.5,98,67.9,92.4,75v47.4c8.8-8.3,19-12.1,27-13.8V63.4C119.3,62.4,118.4,61.6,117.4,61.8
	L117.4,61.8z M110.1,97.8c-2.9,0.5-6.2,2.4-7.5,3.2c-1.1,0.7-2.6,0.3-3.3-0.8c-0.7-1.1-0.3-2.6,0.8-3.3c1.9-1.2,5.6-3.2,9.2-3.8
	c1.3-0.2,2.6,0.7,2.8,2C112.3,96.3,111.4,97.5,110.1,97.8L110.1,97.8z M110.1,82.5c-3,0.5-5.9,2-7.5,3.1c-1.1,0.8-2.6,0.5-3.4-0.6
	c-0.8-1.1-0.5-2.6,0.6-3.4c2.1-1.4,5.6-3.2,9.5-3.9c1.3-0.2,2.6,0.7,2.8,2C112.3,81,111.4,82.2,110.1,82.5L110.1,82.5z"/>
</svg>
