<?xml version="1.0" encoding="utf-8"?>
<!-- Generator: Adobe Illustrator 24.0.2, SVG Export Plug-In . SVG Version: 6.00 Build 0)  -->
<svg version="1.1" id="Layer_1" xmlns="http://www.w3.org/2000/svg" xmlns:xlink="http://www.w3.org/1999/xlink" x="0px" y="0px"
	 viewBox="0 0 183.7 187.1" style="enable-background:new 0 0 183.7 187.1;" xml:space="preserve">
<style type="text/css">
	.st0{fill:url(#SVGID_1_);}
	.st1{fill:url(#SVGID_2_);}
	.st2{fill:url(#SVGID_3_);}
	.st3{fill:url(#SVGID_4_);}
	.st4{fill:url(#SVGID_5_);}
	.st5{fill:url(#SVGID_6_);}
</style>
<linearGradient id="SVGID_1_" gradientUnits="userSpaceOnUse" x1="26.2284" y1="172.8348" x2="206.8006" y2="-42.7065" gradientTransform="matrix(1 0 0 -1 0 184.9388)">
	<stop  offset="0" style="stop-color:#71DFC8"/>
	<stop  offset="1" style="stop-color:#EEFFFF"/>
</linearGradient>
<path class="st0" d="M92.5,177.1c46.4,0,84-38.5,84-86c0-47.5-37.6-86-84-86c-46.4,0-84,38.5-84,86C8.5,138.6,46.1,177.1,92.5,177.1
	z"/>
<linearGradient id="SVGID_2_" gradientUnits="userSpaceOnUse" x1="92.7786" y1="132.349" x2="102.851" y2="132.349">
	<stop  offset="0" style="stop-color:#4CC9AB"/>
	<stop  offset="1" style="stop-color:#31AD8C"/>
</linearGradient>
<path class="st1" d="M92.8,137.4l10.1-2.3l-7.7-7.7L92.8,137.4z"/>
<linearGradient id="SVGID_3_" gradientUnits="userSpaceOnUse" x1="48.216" y1="105.3858" x2="115.3745" y2="105.3858">
	<stop  offset="0" style="stop-color:#4CC9AB"/>
	<stop  offset="1" style="stop-color:#31AD8C"/>
</linearGradient>
<path class="st2" d="M90.8,130.7l1.7-7.2c0,0,0,0,0-0.1c0,0,0-0.1,0-0.1s0-0.1,0-0.1s0-0.1,0-0.1c0,0,0-0.1,0-0.1c0,0,0,0,0-0.1
	c0,0,0-0.1,0.1-0.1c0,0,0,0,0-0.1c0,0,0-0.1,0.1-0.1c0,0,0,0,0,0c0,0,0-0.1,0.1-0.1c0,0,0,0,0,0l22.5-22.5
	c-6.3-12.9-17.9-20.6-31.2-20.6c-9.8,0-18.8,4.2-25.4,11.8c-6.7,7.6-10.4,18.3-10.6,30.1c3.9,2,20.1,9.6,36,9.6
	C86.4,131.1,88.6,131,90.8,130.7L90.8,130.7z"/>
<linearGradient id="SVGID_4_" gradientUnits="userSpaceOnUse" x1="96.5384" y1="115.4279" x2="132.8993" y2="115.4279">
	<stop  offset="0" style="stop-color:#4CC9AB"/>
	<stop  offset="1" style="stop-color:#31AD8C"/>
</linearGradient>
<path class="st3" d="M96.5,123.9l26.7-26.7l9.7,9.7l-26.7,26.7L96.5,123.9z"/>
<linearGradient id="SVGID_5_" gradientUnits="userSpaceOnUse" x1="67.0644" y1="59.099" x2="101.3509" y2="59.099">
	<stop  offset="0" style="stop-color:#4CC9AB"/>
	<stop  offset="1" style="stop-color:#31AD8C"/>
</linearGradient>
<circle class="st4" cx="84.2" cy="59.1" r="17.1"/>
<linearGradient id="SVGID_6_" gradientUnits="userSpaceOnUse" x1="125.6457" y1="98.6658" x2="137.3518" y2="98.6658">
	<stop  offset="0" style="stop-color:#4CC9AB"/>
	<stop  offset="1" style="stop-color:#31AD8C"/>
</linearGradient>
<path class="st5" d="M137.4,99.7c0-3.8-3.1-6.9-6.9-6.9c-1.8,0-3.6,0.7-4.8,2l9.7,9.7C136.6,103.2,137.4,101.5,137.4,99.7
	L137.4,99.7z"/>
</svg>
