<?xml version="1.0" encoding="utf-8"?>
<!-- Generator: Adobe Illustrator 24.0.2, SVG Export Plug-In . SVG Version: 6.00 Build 0)  -->
<svg version="1.1" id="Layer_1" xmlns="http://www.w3.org/2000/svg" xmlns:xlink="http://www.w3.org/1999/xlink" x="0px" y="0px"
	 viewBox="0 0 183.7 187.1" style="enable-background:new 0 0 183.7 187.1;" xml:space="preserve">
<style type="text/css">
	.st0{fill:url(#SVGID_1_);}
	.st1{fill-rule:evenodd;clip-rule:evenodd;fill:url(#SVGID_2_);}
	.st2{fill:none;stroke:#4C82DE;stroke-width:4.8;stroke-linecap:round;stroke-linejoin:round;}
</style>
<linearGradient id="SVGID_1_" gradientUnits="userSpaceOnUse" x1="24.8926" y1="170.3701" x2="206.6339" y2="-46.5666" gradientTransform="matrix(1 0 0 -1 0 184.9388)">
	<stop  offset="0" style="stop-color:#9CB3FF"/>
	<stop  offset="1" style="stop-color:#B0FFE9"/>
</linearGradient>
<path class="st0" d="M91.5,180.7c46.7,0,84.5-38.7,84.5-86.5c0-47.8-37.8-86.5-84.5-86.5C44.9,7.6,7,46.3,7,94.1
	C7,141.9,44.9,180.7,91.5,180.7z"/>
<linearGradient id="SVGID_2_" gradientUnits="userSpaceOnUse" x1="45.8482" y1="102.3127" x2="112.2544" y2="102.3127">
	<stop  offset="0" style="stop-color:#4C82DE"/>
	<stop  offset="1" style="stop-color:#2663BC"/>
</linearGradient>
<path class="st1" d="M54.6,68.8c1.6-0.6,3.4-0.7,4.8-0.2l1,0.3c2.3,0.8,4.8,3.4,5.4,5.8l2.4,8.9c0.6,2.4-0.2,5.9-2,7.6L63,94.6
	c3.1,11.7,12.1,21,23.6,24.1l3.2-3.2c1.7-1.8,5.1-2.7,7.5-2l8.7,2.4c2.4,0.7,4.9,3.1,5.7,5.5l0.3,1c0.4,1.3,0.4,2.9,0,4.4
	c-0.1,0.4-0.1,0.8-0.2,1.2c-1.2,4.6-5,7.7-9.4,8.2c-0.1,0-0.2,0-0.2,0c-0.1,0-0.2,0-0.2,0c-0.5,0-1,0-1.5,0
	c-14.3-0.3-28.1-6.3-38.2-16.7c-10.6-10.9-16.5-25.7-16.3-41c0,0,0.1-0.2,0.2-0.6c0.6-3.7,3-7,6.6-8.6c0.6-0.2,1.2-0.4,1.8-0.6
	L54.6,68.8z"/>
<path class="st2" d="M101.6,101.3c0-12.8-10.1-23.2-22.6-23.2"/>
<path class="st2" d="M116.3,91.8c0-16.6-13.2-30.1-29.4-30.1"/>
</svg>
