<svg width="876" height="827" viewBox="0 0 876 827" fill="none" xmlns="http://www.w3.org/2000/svg">
<path d="M184.825 552.916C205.825 515.031 206.253 444.386 179.144 424.034C152.034 403.682 140.244 473.052 93.107 513.998C45.9701 554.943 26.2664 584.984 52.1764 607.268C78.0865 629.553 163.825 590.801 184.825 552.916Z" fill="url(#paint0_linear)"/>
<path d="M560.976 478.697C606.309 512.827 617.643 548.323 594.976 585.184C560.976 640.476 518.976 649.691 493.976 723.414C468.976 797.136 558.976 882.121 697.976 778.705C836.976 675.289 902.976 616.926 864.976 478.697C826.976 340.467 778.976 264.697 821.976 164.353C864.976 64.0087 870.976 -31.2159 744.976 9.74088C618.976 50.6977 615.976 120.324 468.976 120.324C321.976 120.324 304.976 198.142 304.976 312.821C304.976 427.5 328.976 452.075 259.976 518.629C190.976 585.184 155.976 622.045 169.976 679.385C183.976 736.725 291.976 806.351 392.976 695.768C460.309 622.045 516.309 549.688 560.976 478.697Z" fill="url(#paint1_linear)"/>
<path d="M579.519 606.961L579.77 606.944L581.852 606.834C617.006 605.024 707.529 603.084 717.976 630.237C725.708 650.334 730.964 707.378 733.112 752.247L729.16 755.266C719.221 762.843 708.82 770.637 697.976 778.705C636.182 824.68 584.073 833.42 547.446 822.469C548.409 792.553 562.089 695.595 564.894 679.838L564.976 679.385C567.07 667.95 567.702 637.559 567.893 620.245C571.798 616.071 575.683 611.687 579.519 606.961Z" fill="url(#paint2_linear)"/>
<path opacity="0.35" d="M655.976 639.452C661.66 636.542 698.148 637.768 720.585 638.721C726.894 663.502 731.215 712.622 733.112 752.247L729.16 755.267C719.221 762.843 708.82 770.637 697.976 778.705C695.685 780.41 693.408 782.062 691.145 783.665C691.666 777.162 691.976 770.218 691.976 762.323C691.976 737.749 685.976 742.868 660.976 739.797C635.976 736.725 621.976 712.151 614.976 712.151C610.435 712.151 591.517 723.912 575.517 725.96V718.793L585.976 684.505L599.584 675.548C618.316 663.248 650.376 642.319 655.976 639.452Z" fill="#6B0015"/>
<path d="M643.959 303.065C657.959 333.783 666.625 354.944 669.959 366.549C674.959 383.955 678.959 395.218 700.959 410.577C722.959 425.936 728.959 433.103 728.959 454.606C728.959 476.108 726.959 481.228 737.959 492.491C748.959 503.754 753.959 522.185 715.959 512.969C677.959 503.754 611.959 473.036 591.959 445.391C571.959 417.745 577.959 410.577 558.959 402.386C539.959 394.194 522.958 370.644 522.958 331.735C522.958 292.826 537.958 263.133 543.958 255.965C547.958 251.187 567.959 256.648 603.959 272.348L643.959 303.065Z" fill="url(#paint3_linear)"/>
<path fill-rule="evenodd" clip-rule="evenodd" d="M562.958 430.032C547.625 444.367 534.292 460.749 522.958 479.18C505.958 506.826 498.958 534.472 492.958 539.591C486.958 544.711 478.958 485.323 469.958 475.084C460.958 464.845 440.958 478.156 440.958 499.658C440.958 521.161 443.958 621.505 469.958 621.505C495.958 621.505 538.958 573.381 557.958 563.141C570.625 556.315 572.292 511.945 562.958 430.032Z" fill="url(#paint4_linear)"/>
<path opacity="0.35" d="M456.958 481.228L469.958 475.084L469.953 476.304C469.851 488.547 469.958 492.491 465.958 498.635C461.958 504.778 450.776 512.766 440.988 503.781L440.967 501.79C440.961 501.012 440.958 500.3 440.958 499.659C440.958 496.617 441.359 493.739 442.071 491.069C445.175 488.001 450.138 484.72 456.958 481.228Z" fill="#6B001F"/>
<path opacity="0.3" d="M543.959 502.73L546.999 511.915C555.543 537.856 559.862 552.172 559.957 554.864L559.959 561.665C559.326 562.272 558.659 562.764 557.959 563.141C544.251 570.529 518.051 597.635 494.756 612.163C495.979 610.125 497.267 608.029 498.579 605.903L500.959 602.051C512.959 582.596 517.959 574.405 529.959 554.95C537.959 541.98 542.625 524.574 543.959 502.73Z" fill="#27006D"/>
<path fill-rule="evenodd" clip-rule="evenodd" d="M603.959 409.553C611.292 402.727 622.626 401.021 637.959 404.434C660.959 409.553 684.959 431.056 693.959 456.654C702.959 482.252 701.959 621.505 706.959 658.366C711.959 695.227 721.959 732.088 688.959 732.088C655.959 732.088 618.959 700.347 614.959 700.347C610.959 700.347 576.517 734.151 559.517 729.032C542.517 723.912 565.959 680.892 561.959 635.84C557.959 590.787 540.959 579.524 543.959 535.496C546.959 491.467 536.959 458.702 555.959 436.175C568.626 421.158 584.626 412.284 603.959 409.553Z" fill="url(#paint5_linear)"/>
<path d="M642.958 669.629L685.958 676.797" stroke="#C79EFF" stroke-width="4" stroke-linecap="round" stroke-linejoin="round"/>
<path opacity="0.3" d="M600.958 604.098L601.42 606.103C602.808 612.348 606.859 632.19 606.957 651.516L606.958 652.223C606.958 675.773 610.958 684.988 614.958 699.323C615.055 699.671 615.15 700.024 615.243 700.385C615.134 700.36 615.039 700.347 614.958 700.347C614.322 700.347 613.203 701.281 611.704 702.832C610.745 697.421 609.238 691.36 607.181 687.447L606.958 687.036C603.208 680.317 602.974 659.198 602.959 647.304L602.958 645.055C602.958 633.792 600.958 604.098 600.958 604.098Z" fill="#27006D"/>
<path opacity="0.3" d="M680.959 554.95L703.062 586.345L703.586 601.696C704.454 626.071 705.423 647.046 706.959 658.366C711.959 695.227 721.959 732.088 688.959 732.088C686.404 732.088 683.825 731.898 681.24 731.547C675.531 706.565 677.772 666.555 680.747 639.757L680.959 637.888C683.582 615.053 683.625 587.923 681.086 556.499L680.959 554.95Z" fill="#27006D"/>
<path fill-rule="evenodd" clip-rule="evenodd" d="M573.959 420.816C561.292 434.469 557.292 445.049 561.959 452.558C568.959 463.821 571.959 464.845 566.959 474.06C561.959 483.276 560.959 500.682 568.959 515.017C574.292 524.574 582.959 539.932 594.959 561.094V474.06L573.959 420.816Z" fill="url(#paint6_linear)"/>
<path fill-rule="evenodd" clip-rule="evenodd" d="M655.917 411.601C665.292 431.397 667.635 442.66 662.948 445.39C655.917 449.486 635.827 458.701 637.836 469.965C639.845 481.228 642.859 509.897 627.792 518.089C617.747 523.55 606.803 537.885 594.958 561.094C592.292 525.598 592.292 502.389 594.958 491.467C597.625 480.545 613.958 454.606 643.958 413.649L655.917 411.601Z" fill="url(#paint7_linear)"/>
<path fill-rule="evenodd" clip-rule="evenodd" d="M637.959 404.434C644.141 405.81 650.395 408.37 656.411 411.875C633.969 429.677 614.915 502.73 594.958 502.73C581.173 502.73 574.175 475.263 573.963 420.328C582.864 414.711 592.862 411.121 603.958 409.553C611.292 402.727 622.625 401.021 637.959 404.434Z" fill="url(#paint8_linear)"/>
<path opacity="0.5" d="M594.959 422.864C596.292 422.864 596.292 430.373 594.959 445.391C576.292 454.265 561.292 457.337 549.959 454.606C548.768 454.319 547.745 453.982 546.871 453.601C548.68 447.228 551.532 441.424 555.959 436.175C564.632 425.893 574.867 418.49 586.665 413.968L587.461 415.046C591.263 420.143 593.736 422.747 594.883 422.86L594.959 422.864Z" fill="#006A8F"/>
<path d="M590.958 366.549C588.958 378.153 587.292 388.392 585.958 397.266C583.958 410.577 582.958 439.247 590.958 444.367C598.958 449.487 614.958 427.984 623.958 420.817C632.958 413.649 638.958 408.53 637.958 404.434C636.958 400.338 624.958 386.003 630.958 356.31C634.958 336.514 621.625 339.927 590.958 366.549Z" fill="#FCB8AC"/>
<path d="M588.226 382.824L617.959 365.525L617.755 367.192C614.371 394.218 608.105 411.41 598.959 418.769C594.398 422.438 589.677 424.64 584.798 425.375C584.13 415.533 584.906 404.272 585.959 397.266L586.301 395.003C586.884 391.184 587.526 387.124 588.226 382.824Z" fill="#F39793"/>
<path d="M699.63 729.045C701.63 738.602 701.964 744.745 700.63 747.476C698.63 751.571 699.63 762.834 700.63 766.93C701.63 771.026 703.517 775.108 705.517 776.132C707.517 777.156 708.63 777.169 712.63 777.169C713.874 777.169 715.63 778.193 718.63 778.193C721.63 778.193 722.941 776.981 724.517 777.156C727.044 777.436 728.933 778.628 730.63 778.193C734.63 777.169 735.63 775.121 732.63 773.074C729.63 771.026 727.63 767.954 727.63 766.93C727.63 765.906 730.63 755.667 732.63 751.571C734.63 747.476 732.63 733.141 730.63 726.997C728.63 720.854 720.63 716.758 720.63 716.758C720.63 716.758 713.63 720.854 699.63 729.045Z" fill="url(#paint9_linear)"/>
<path d="M545.958 299.994C539.292 306.82 535.958 313.987 535.958 321.496C535.958 332.759 537.959 388.051 559.958 397.266C581.958 406.482 595.958 381.908 626.958 363.477C657.958 345.046 626.958 323.544 616.958 315.353C610.292 309.892 586.625 304.772 545.958 299.994Z" fill="url(#paint10_linear)"/>
<path d="M571.919 374.561C576.345 376.222 579.834 374.19 582.386 368.465" stroke="#C57256" stroke-width="2.88" stroke-linecap="round" stroke-linejoin="round"/>
<path d="M556.105 332.247C555.439 354.091 556.105 365.354 558.105 366.037C560.105 366.719 563.105 366.719 567.105 366.037" stroke="#ECA08B" stroke-width="2.16" stroke-linecap="round" stroke-linejoin="round"/>
<path d="M546.172 353.945C548.499 353.945 550.386 352.013 550.386 349.631C550.386 347.248 548.499 345.316 546.172 345.316C543.845 345.316 541.958 347.248 541.958 349.631C541.958 352.013 543.845 353.945 546.172 353.945Z" fill="black"/>
<path d="M578.172 349.631C580.499 349.631 582.386 347.699 582.386 345.316C582.386 342.934 580.499 341.002 578.172 341.002C575.845 341.002 573.958 342.934 573.958 345.316C573.958 347.699 575.845 349.631 578.172 349.631Z" fill="black"/>
<path d="M430.958 491.467C432.958 493.515 441.958 506.826 451.958 503.754C461.958 500.682 469.958 485.323 469.958 475.084C469.958 464.845 467.958 460.749 464.958 448.462C461.958 436.175 463.958 424.912 452.958 422.864C441.958 420.816 444.958 441.295 443.958 445.39C442.958 449.486 439.958 449.486 432.958 457.678C425.958 465.869 428.958 489.419 430.958 491.467Z" fill="url(#paint11_linear)"/>
<path d="M451.958 449.486C456.625 460.408 458.958 468.6 458.958 474.061C458.958 482.252 456.958 487.372 451.958 491.467C448.625 494.198 443.292 494.198 435.958 491.467L444.958 475.084L451.958 449.486Z" fill="#F39793"/>
<path d="M426.959 455.63C429.959 451.534 436.959 444.367 444.959 445.391C452.959 446.415 455.959 456.654 455.959 462.797C455.959 468.941 458.959 479.18 452.959 484.3C446.959 489.419 436.959 493.515 431.959 491.467C426.959 489.419 423.959 459.726 426.959 455.63Z" fill="url(#paint12_linear)"/>
<path d="M538.959 293.85C538.292 308.868 547.292 319.448 565.959 325.592C593.959 334.807 616.959 336.855 629.959 344.022C642.959 351.19 669.959 368.596 669.959 364.501C669.959 360.405 667.959 337.879 662.959 312.281C657.959 286.683 647.959 238.558 587.959 240.606C547.959 241.972 531.625 259.719 538.959 293.85Z" fill="url(#paint13_linear)"/>
<path fill-rule="evenodd" clip-rule="evenodd" d="M679.959 433.104C692.626 444.025 704.959 462.797 716.959 489.419C734.959 529.352 731.959 597.955 731.959 620.481C731.959 643.007 731.959 698.299 734.959 711.61C737.959 724.921 738.959 743.352 736.959 743.352C734.959 743.352 726.959 721.849 726.959 724.921C726.959 727.993 726.959 741.304 724.959 743.352C722.959 745.4 696.959 751.543 696.959 748.471C696.959 745.4 691.959 666.558 690.959 651.199C689.959 635.84 683.959 584.644 679.959 565.189C675.959 545.735 661.959 515.017 664.959 486.347C666.959 467.234 671.959 449.486 679.959 433.104Z" fill="url(#paint14_linear)"/>
<path d="M623.958 341.975C627.958 333.101 632.625 328.664 637.958 328.664C645.958 328.664 649.958 341.975 642.958 351.19C638.292 357.333 630.625 362.453 619.958 366.549L623.958 341.975Z" fill="url(#paint15_linear)"/>
<path d="M577.958 666.557L559.958 680.892" stroke="#C79EFF" stroke-width="4" stroke-linecap="round" stroke-linejoin="round"/>
<path d="M624.976 151.042C655.351 151.042 679.976 125.828 679.976 94.7262C679.976 63.624 655.351 38.4106 624.976 38.4106C594.6 38.4106 569.976 63.624 569.976 94.7262C569.976 125.828 594.6 151.042 624.976 151.042Z" fill="url(#paint16_linear)"/>
<path d="M602.976 92.1665L618.976 110.597L646.976 78.8557" stroke="#FFF1F1" stroke-width="7.096" stroke-linecap="round" stroke-linejoin="round"/>
<path fill-rule="evenodd" clip-rule="evenodd" d="M138.564 574.468L174.399 679.995C176.95 687.508 184.966 691.481 192.304 688.868C192.539 688.785 192.773 688.694 193.003 688.598L377.726 611.336C384.499 608.504 388.064 600.867 385.963 593.692L354.233 485.308C352.731 480.177 347.451 477.264 342.44 478.802C342.206 478.874 341.975 478.955 341.747 479.045L146.864 556.119C139.72 558.945 136.048 567.06 138.564 574.468Z" fill="url(#paint17_linear)"/>
<path d="M209.027 618.232C210.559 589.066 220.258 576.288 238.123 579.896C264.92 585.309 270.454 591.557 293.422 591.207C316.39 590.857 303.469 554.985 315.775 541.671" stroke="#FFF1F1" stroke-width="7.096" stroke-linecap="round" stroke-linejoin="round"/>
<path d="M302.171 543.106L316.06 541.13L322.227 552.352" stroke="#FFF1F1" stroke-width="7.096" stroke-linecap="round" stroke-linejoin="round"/>
<path fill-rule="evenodd" clip-rule="evenodd" d="M449.285 60.9368C458.618 58.2064 468.951 57.8651 480.285 59.9129C497.285 62.9847 497.285 67.0803 503.285 83.4631C509.285 99.8458 518.285 139.779 530.285 144.898C542.285 150.018 521.285 150.018 515.285 150.018C509.285 150.018 463.285 160.257 437.285 150.018C419.951 143.192 423.951 113.498 449.285 60.9368Z" fill="url(#paint18_linear)"/>
<path fill-rule="evenodd" clip-rule="evenodd" d="M478.285 58.8889C491.285 62.9846 461.285 52.7454 458.285 131.587C455.285 210.429 455.285 353.778 435.285 389.615C415.285 425.453 406.285 425.453 379.285 428.524C352.285 431.596 225.285 432.62 197.285 414.19C169.285 395.759 229.285 419.309 250.285 355.826C271.285 292.343 248.285 102.918 300.285 70.152C352.285 37.3866 465.285 54.7932 478.285 58.8889Z" fill="url(#paint19_linear)"/>
<path d="M303.285 107.013H382.285" stroke="#FFF1F1" stroke-width="5.12" stroke-linecap="round" stroke-linejoin="round"/>
<path d="M303.285 132.099H348.785" stroke="#FFF1F1" stroke-width="5.12" stroke-linecap="round" stroke-linejoin="round"/>
<path d="M279.785 181.76H319.785" stroke="#FFF1F1" stroke-width="5.12" stroke-linecap="round" stroke-linejoin="round"/>
<path d="M342.785 181.76H407.785" stroke="#FFF1F1" stroke-width="5.12" stroke-linecap="round" stroke-linejoin="round"/>
<path d="M287.285 215.549H352.285" stroke="#FFF1F1" stroke-width="5.12" stroke-linecap="round" stroke-linejoin="round"/>
<path d="M287.285 240.635H329.285" stroke="#FFF1F1" stroke-width="5.12" stroke-linecap="round" stroke-linejoin="round"/>
<path d="M342.597 366.002C342.232 368.663 341.034 370.777 339.003 372.344C336.972 373.912 334.412 374.741 331.324 374.833L330.567 380.352L324.791 379.521L325.522 374.199C323.459 373.734 321.566 373.043 319.843 372.125C318.121 371.207 316.674 370.128 315.503 368.887L318.66 363.764C321.525 366.488 324.787 368.113 328.444 368.639C330.401 368.921 331.952 368.767 333.096 368.178C334.241 367.589 334.905 366.621 335.09 365.274C335.203 364.453 335.006 363.737 334.501 363.129C333.996 362.52 333.323 361.996 332.484 361.557L331.869 361.248C331.2 360.922 330.367 360.546 329.37 360.121L328.858 359.905C326.565 358.972 324.693 358.066 323.243 357.187C321.794 356.308 320.609 355.108 319.689 353.585C318.769 352.062 318.465 350.168 318.776 347.901C319.137 345.273 320.369 343.147 322.473 341.523C324.577 339.9 327.158 339.04 330.214 338.944L330.971 333.424L336.746 334.255L336.009 339.627C337.834 340.157 339.521 340.861 341.069 341.737C342.617 342.613 343.839 343.601 344.735 344.702L341.578 349.825C338.713 347.101 335.724 345.516 332.612 345.068C330.88 344.818 329.44 344.997 328.294 345.602C327.147 346.208 326.481 347.184 326.297 348.531C326.17 349.451 326.371 350.25 326.9 350.929C327.428 351.608 328.135 352.179 329.021 352.641C329.709 353.001 330.617 353.423 331.744 353.906L332.763 354.336C334.992 355.26 336.818 356.142 338.24 356.983C339.662 357.824 340.821 358.979 341.715 360.448C342.61 361.917 342.904 363.768 342.597 366.002Z" fill="white"/>
<path d="M378.321 366.002C377.956 368.663 376.758 370.777 374.727 372.344C372.696 373.912 370.136 374.741 367.048 374.833L366.291 380.352L360.515 379.521L361.246 374.199C359.183 373.734 357.29 373.043 355.568 372.125C353.845 371.207 352.398 370.128 351.227 368.887L354.384 363.764C357.249 366.488 360.511 368.113 364.168 368.639C366.126 368.921 367.676 368.767 368.82 368.178C369.965 367.589 370.629 366.621 370.814 365.274C370.927 364.453 370.731 363.737 370.225 363.129C369.72 362.52 369.047 361.996 368.208 361.557L367.594 361.248C366.924 360.922 366.091 360.546 365.094 360.121L364.582 359.905C362.289 358.972 360.417 358.066 358.968 357.187C357.518 356.308 356.333 355.108 355.413 353.585C354.493 352.062 354.189 350.168 354.5 347.901C354.861 345.273 356.093 343.147 358.197 341.523C360.302 339.9 362.882 339.04 365.938 338.944L366.695 333.424L372.47 334.255L371.733 339.627C373.558 340.157 375.245 340.861 376.793 341.737C378.341 342.613 379.564 343.601 380.46 344.702L377.302 349.825C374.437 347.101 371.448 345.516 368.336 345.068C366.604 344.818 365.164 344.997 364.018 345.602C362.871 346.208 362.206 347.184 362.021 348.531C361.894 349.451 362.096 350.25 362.624 350.929C363.152 351.608 363.859 352.179 364.745 352.641C365.433 353.001 366.341 353.423 367.468 353.906L368.487 354.336C370.716 355.26 372.542 356.142 373.964 356.983C375.387 357.824 376.545 358.979 377.439 360.448C378.334 361.917 378.628 363.768 378.321 366.002Z" fill="white"/>
<path d="M410.827 366.002C410.461 368.663 409.263 370.777 407.232 372.344C405.201 373.912 402.642 374.741 399.554 374.833L398.796 380.352L393.021 379.521L393.751 374.199C391.688 373.734 389.796 373.043 388.073 372.125C386.35 371.207 384.904 370.128 383.732 368.887L386.889 363.764C389.755 366.488 393.016 368.113 396.674 368.639C398.631 368.921 400.182 368.767 401.326 368.178C402.47 367.589 403.135 366.621 403.319 365.274C403.432 364.453 403.236 363.737 402.731 363.129C402.225 362.52 401.553 361.996 400.713 361.557L400.099 361.248C399.43 360.922 398.597 360.546 397.6 360.121L397.087 359.905C394.794 358.972 392.923 358.066 391.473 357.187C390.023 356.308 388.838 355.108 387.918 353.585C386.999 352.062 386.694 350.168 387.005 347.901C387.366 345.273 388.599 343.147 390.703 341.523C392.807 339.9 395.387 339.04 398.443 338.944L399.201 333.424L404.976 334.255L404.239 339.627C406.063 340.157 407.75 340.861 409.298 341.737C410.847 342.613 412.069 343.601 412.965 344.702L409.808 349.825C406.943 347.101 403.954 345.516 400.842 345.068C399.109 344.818 397.67 344.997 396.523 345.602C395.377 346.208 394.711 347.184 394.526 348.531C394.4 349.451 394.601 350.25 395.129 350.929C395.658 351.608 396.365 352.179 397.25 352.641C397.939 353.001 398.846 353.423 399.973 353.906L400.993 354.336C403.222 355.26 405.047 356.142 406.47 356.983C407.892 357.824 409.05 358.979 409.945 360.448C410.839 361.917 411.133 363.768 410.827 366.002Z" fill="white"/>
<path d="M198.76 87.0469H105.976C97.139 87.0469 89.9756 94.2103 89.9756 103.047V198.816C89.9756 207.652 97.139 214.816 105.976 214.816H198.76C207.596 214.816 214.76 207.652 214.76 198.816V103.047C214.76 94.2103 207.596 87.0469 198.76 87.0469Z" fill="url(#paint20_linear)"/>
<path d="M152.319 183.597C169.965 183.597 184.27 168.949 184.27 150.881C184.27 132.813 169.965 118.166 152.319 118.166C134.673 118.166 120.368 132.813 120.368 150.881C120.368 168.949 134.673 183.597 152.319 183.597Z" stroke="#FFF1F1" stroke-width="7.096" stroke-linecap="round" stroke-linejoin="round"/>
<path d="M184.27 150.881C184.27 132.813 169.965 118.166 152.319 118.166" stroke="#B4384C" stroke-width="7.096" stroke-linecap="round" stroke-linejoin="round"/>
<path fill-rule="evenodd" clip-rule="evenodd" d="M719.726 308.726C720.803 308.726 721.676 309.62 721.676 310.722V316.712H727.526C728.554 316.712 729.396 317.527 729.47 318.56L729.476 318.709C729.476 319.812 728.603 320.706 727.526 320.706H721.676V326.696C721.676 327.748 720.88 328.611 719.871 328.687L719.726 328.692C718.649 328.692 717.776 327.798 717.776 326.696V320.706H711.926C710.898 320.706 710.055 319.891 709.981 318.858L709.976 318.709C709.976 317.606 710.849 316.712 711.926 316.712H717.776V310.722C717.776 309.67 718.571 308.807 719.58 308.731L719.726 308.726Z" fill="url(#paint21_linear)"/>
<path fill-rule="evenodd" clip-rule="evenodd" d="M499.726 237.051C500.803 237.051 501.676 237.945 501.676 239.048V245.038H507.526C508.554 245.038 509.396 245.852 509.47 246.885L509.476 247.034C509.476 248.137 508.603 249.031 507.526 249.031H501.676V255.021C501.676 256.074 500.88 256.936 499.871 257.012L499.726 257.018C498.649 257.018 497.776 256.124 497.776 255.021V249.031H491.926C490.898 249.031 490.055 248.217 489.981 247.183L489.976 247.034C489.976 245.932 490.849 245.038 491.926 245.038H497.776V239.048C497.776 237.995 498.571 237.133 499.58 237.057L499.726 237.051Z" fill="url(#paint22_linear)"/>
<path d="M752.645 174.353C755.894 174.353 758.528 171.656 758.528 168.329C758.528 165.002 755.894 162.305 752.645 162.305C749.396 162.305 746.762 165.002 746.762 168.329C746.762 171.656 749.396 174.353 752.645 174.353Z" fill="url(#paint23_linear)"/>
<path d="M63.6319 368.059L56.1307 378.871C53.932 382.04 49.6405 382.784 46.5455 380.533C44.96 379.379 43.9258 377.592 43.6992 375.614L42.1725 362.286C41.8363 359.352 39.8105 356.912 37.0361 356.1L26.4433 353C23.0388 352.003 21.0677 348.369 22.0408 344.883C22.5164 343.18 23.6446 341.745 25.1689 340.906L35.8478 335.026C37.9204 333.885 39.3119 331.773 39.5689 329.377L41.0339 315.719C41.465 311.7 44.9965 308.8 48.9217 309.241C50.4848 309.417 51.9477 310.116 53.0839 311.229L62.7802 320.727C64.4806 322.393 66.8727 323.095 69.1768 322.605L82.3155 319.811C86.1819 318.989 89.967 321.532 90.77 325.491C91.0897 327.067 90.893 328.708 90.2103 330.158L84.3842 342.535C83.3625 344.706 83.4493 347.253 84.6165 349.345L90.6044 360.08C92.2882 363.099 91.2633 366.943 88.3152 368.667C86.8166 369.544 85.0272 369.735 83.3843 369.194L71.65 365.329C68.6819 364.352 65.4375 365.457 63.6319 368.059Z" fill="url(#paint24_linear)"/>
<path d="M152.476 313.048C156.955 313.048 160.586 309.33 160.586 304.743C160.586 300.157 156.955 296.438 152.476 296.438C147.996 296.438 144.365 300.157 144.365 304.743C144.365 309.33 147.996 313.048 152.476 313.048Z" stroke="#EFAA7A" stroke-width="5.2"/>
<path d="M442.476 763.573C446.955 763.573 450.586 759.855 450.586 755.268C450.586 750.682 446.955 746.964 442.476 746.964C437.996 746.964 434.365 750.682 434.365 755.268C434.365 759.855 437.996 763.573 442.476 763.573Z" stroke="#EFAA7A" stroke-width="5.2"/>
<path d="M842.476 272.091C846.955 272.091 850.586 268.373 850.586 263.786C850.586 259.2 846.955 255.482 842.476 255.482C837.996 255.482 834.365 259.2 834.365 263.786C834.365 268.373 837.996 272.091 842.476 272.091Z" stroke="#EFAA7A" stroke-width="5.2"/>
<path d="M102.476 681.659C106.955 681.659 110.586 677.941 110.586 673.355C110.586 668.768 106.955 665.05 102.476 665.05C97.9964 665.05 94.3652 668.768 94.3652 673.355C94.3652 677.941 97.9964 681.659 102.476 681.659Z" stroke="#EFAA7A" stroke-width="5.2"/>
<path d="M521.258 20.614C525.157 20.614 528.318 17.3778 528.318 13.3856C528.318 9.39349 525.157 6.15723 521.258 6.15723C517.359 6.15723 514.199 9.39349 514.199 13.3856C514.199 17.3778 517.359 20.614 521.258 20.614Z" fill="url(#paint25_linear)"/>
<path d="M781.258 481.378C785.157 481.378 788.318 478.142 788.318 474.15C788.318 470.158 785.157 466.921 781.258 466.921C777.359 466.921 774.199 470.158 774.199 474.15C774.199 478.142 777.359 481.378 781.258 481.378Z" fill="url(#paint26_linear)"/>
<path d="M411.258 563.292C415.157 563.292 418.318 560.056 418.318 556.064C418.318 552.071 415.157 548.835 411.258 548.835C407.359 548.835 404.199 552.071 404.199 556.064C404.199 560.056 407.359 563.292 411.258 563.292Z" fill="url(#paint27_linear)"/>
<defs>
<linearGradient id="paint0_linear" x1="307.853" y1="403.07" x2="25.3415" y2="601.433" gradientUnits="userSpaceOnUse">
<stop stop-color="#49E9FB"/>
<stop offset="0.599077" stop-color="#563CC9"/>
<stop offset="1" stop-color="#450B7C"/>
</linearGradient>
<linearGradient id="paint1_linear" x1="856.44" y1="-161.323" x2="146.08" y2="876.396" gradientUnits="userSpaceOnUse">
<stop stop-color="#49E9FB"/>
<stop offset="0.535966" stop-color="#563CC9"/>
<stop offset="1" stop-color="#450B7C"/>
</linearGradient>
<linearGradient id="paint2_linear" x1="654.884" y1="659.469" x2="549.116" y2="961.141" gradientUnits="userSpaceOnUse">
<stop stop-color="#FF5E62"/>
<stop offset="1" stop-color="#FF9F59"/>
</linearGradient>
<linearGradient id="paint3_linear" x1="166.323" y1="232.323" x2="660.013" y2="374.776" gradientUnits="userSpaceOnUse">
<stop stop-color="#A77F99"/>
<stop offset="1" stop-color="#6F3359"/>
</linearGradient>
<linearGradient id="paint4_linear" x1="494.948" y1="412.374" x2="517.268" y2="840.239" gradientUnits="userSpaceOnUse">
<stop stop-color="#C76EFF"/>
<stop offset="1" stop-color="#6759FF"/>
</linearGradient>
<linearGradient id="paint5_linear" x1="620.248" y1="372.354" x2="649.701" y2="1108.58" gradientUnits="userSpaceOnUse">
<stop stop-color="#C76EFF"/>
<stop offset="1" stop-color="#6759FF"/>
</linearGradient>
<linearGradient id="paint6_linear" x1="577.288" y1="429.116" x2="580.985" y2="560.996" gradientUnits="userSpaceOnUse">
<stop stop-color="#C399FF"/>
<stop offset="1" stop-color="#C9A1FF"/>
</linearGradient>
<linearGradient id="paint7_linear" x1="627.329" y1="420.446" x2="634.983" y2="560.774" gradientUnits="userSpaceOnUse">
<stop stop-color="#C399FF"/>
<stop offset="1" stop-color="#C9A1FF"/>
</linearGradient>
<linearGradient id="paint8_linear" x1="615.187" y1="525.115" x2="790.044" y2="237.487" gradientUnits="userSpaceOnUse">
<stop stop-color="#57F4E0"/>
<stop offset="1" stop-color="#399FCD"/>
</linearGradient>
<linearGradient id="paint9_linear" x1="723.514" y1="705.463" x2="699.265" y2="774.23" gradientUnits="userSpaceOnUse">
<stop stop-color="#FCDABB"/>
<stop offset="0.510733" stop-color="#FCB9AC"/>
<stop offset="1" stop-color="#FCB8AC"/>
</linearGradient>
<linearGradient id="paint10_linear" x1="646.632" y1="291.142" x2="576.856" y2="397.829" gradientUnits="userSpaceOnUse">
<stop stop-color="#FCDABB"/>
<stop offset="0.510733" stop-color="#FCB9AC"/>
<stop offset="1" stop-color="#FCB8AC"/>
</linearGradient>
<linearGradient id="paint11_linear" x1="455.53" y1="407.761" x2="426.533" y2="499.601" gradientUnits="userSpaceOnUse">
<stop stop-color="#FCDABB"/>
<stop offset="0.510733" stop-color="#FCB9AC"/>
<stop offset="1" stop-color="#FCB8AC"/>
</linearGradient>
<linearGradient id="paint12_linear" x1="449.206" y1="436.716" x2="427.85" y2="488.566" gradientUnits="userSpaceOnUse">
<stop stop-color="#FCDABB"/>
<stop offset="0.510733" stop-color="#FCB9AC"/>
<stop offset="1" stop-color="#EAA79B"/>
</linearGradient>
<linearGradient id="paint13_linear" x1="376.024" y1="263.236" x2="611.032" y2="324.748" gradientUnits="userSpaceOnUse">
<stop stop-color="#A77F99"/>
<stop offset="1" stop-color="#6F3359"/>
</linearGradient>
<linearGradient id="paint14_linear" x1="700.578" y1="403.943" x2="713.408" y2="1111.39" gradientUnits="userSpaceOnUse">
<stop stop-color="#C76EFF"/>
<stop offset="1" stop-color="#6759FF"/>
</linearGradient>
<linearGradient id="paint15_linear" x1="640.967" y1="321.709" x2="622.6" y2="363.77" gradientUnits="userSpaceOnUse">
<stop stop-color="#FCDABB"/>
<stop offset="0.510733" stop-color="#FCB9AC"/>
<stop offset="1" stop-color="#FCB8AC"/>
</linearGradient>
<linearGradient id="paint16_linear" x1="569.976" y1="38.4106" x2="682.575" y2="148.38" gradientUnits="userSpaceOnUse">
<stop stop-color="#FFA8E8"/>
<stop offset="1" stop-color="#FFE6E6"/>
</linearGradient>
<linearGradient id="paint17_linear" x1="158.522" y1="450.597" x2="353.259" y2="710.237" gradientUnits="userSpaceOnUse">
<stop stop-color="#59DBB0"/>
<stop offset="1" stop-color="#FEFFB5"/>
</linearGradient>
<linearGradient id="paint18_linear" x1="533.925" y1="69.9001" x2="489.195" y2="169.984" gradientUnits="userSpaceOnUse">
<stop stop-color="#64ABF6"/>
<stop offset="1" stop-color="#B461FA"/>
</linearGradient>
<linearGradient id="paint19_linear" x1="463.256" y1="50.6057" x2="75.0685" y2="352.871" gradientUnits="userSpaceOnUse">
<stop stop-color="#80BCFB"/>
<stop offset="1" stop-color="#C47DFF"/>
</linearGradient>
<linearGradient id="paint20_linear" x1="114.632" y1="99.4727" x2="153.896" y2="188.317" gradientUnits="userSpaceOnUse">
<stop stop-color="#FEB184"/>
<stop offset="1" stop-color="#F36077"/>
</linearGradient>
<linearGradient id="paint21_linear" x1="712.438" y1="309.192" x2="733.407" y2="334.22" gradientUnits="userSpaceOnUse">
<stop stop-color="#9CB3FF"/>
<stop offset="1" stop-color="#B0FFE9"/>
</linearGradient>
<linearGradient id="paint22_linear" x1="492.438" y1="237.517" x2="513.406" y2="262.546" gradientUnits="userSpaceOnUse">
<stop stop-color="#9CB3FF"/>
<stop offset="1" stop-color="#B0FFE9"/>
</linearGradient>
<linearGradient id="paint23_linear" x1="746.762" y1="162.305" x2="756.473" y2="174.128" gradientUnits="userSpaceOnUse">
<stop stop-color="#FF8989"/>
<stop offset="1" stop-color="#FFDDC5"/>
</linearGradient>
<linearGradient id="paint24_linear" x1="34.4031" y1="415.448" x2="66.0334" y2="296.437" gradientUnits="userSpaceOnUse">
<stop stop-color="#FF815E"/>
<stop offset="1" stop-color="#FF9C34"/>
</linearGradient>
<linearGradient id="paint25_linear" x1="514.452" y1="4.48083" x2="528.688" y2="20.2803" gradientUnits="userSpaceOnUse">
<stop stop-color="#FFAF73"/>
<stop offset="1" stop-color="#FFFECC"/>
</linearGradient>
<linearGradient id="paint26_linear" x1="774.452" y1="465.245" x2="788.689" y2="481.044" gradientUnits="userSpaceOnUse">
<stop stop-color="#FFAF73"/>
<stop offset="1" stop-color="#FFFECC"/>
</linearGradient>
<linearGradient id="paint27_linear" x1="404.452" y1="547.159" x2="418.689" y2="562.958" gradientUnits="userSpaceOnUse">
<stop stop-color="#FFAF73"/>
<stop offset="1" stop-color="#FFFECC"/>
</linearGradient>
</defs>
</svg>
