<svg width="746" height="742" viewBox="0 0 746 742" fill="none" xmlns="http://www.w3.org/2000/svg">
<path d="M183.574 296.937C135.574 301.033 17.9744 319.873 1.17439 420.627C-15.6256 521.38 152.374 534.487 213.974 582.816C275.574 631.145 313.974 772.036 390.774 710.601C467.574 649.166 529.174 562.337 600.374 551.688C671.574 541.04 745.974 536.944 745.974 450.935C745.974 364.925 583.574 321.511 609.974 243.693C636.374 165.875 665.974 81.504 589.174 29.0792C512.374 -23.3456 429.174 47.9193 365.174 145.397C301.174 242.874 231.574 292.841 183.574 296.937Z" fill="url(#paint0_linear)"/>
<path d="M464.192 718.104C457.383 694.377 471.131 671.885 501 653.774C530.869 635.663 553.191 633.663 567.205 643.883C581.218 654.103 570.434 694.439 539 714.185C507.566 733.931 471 741.831 464.192 718.104Z" fill="url(#paint1_linear)"/>
<path d="M253.39 90.446C260.948 96.0575 267.828 96.7187 274.03 92.4295C280.232 88.1404 283.62 79.5743 284.195 66.7312" stroke="#564A4A" stroke-width="2.4" stroke-linecap="round" stroke-linejoin="round"/>
<path fill-rule="evenodd" clip-rule="evenodd" d="M283.135 70.3499C285.689 70.3252 287.916 68.5441 288.544 66.0234L288.805 64.9788C289.347 62.803 288.055 60.6066 285.918 60.073C285.534 59.9771 285.137 59.9399 284.741 59.963L281.181 60.1697C278.935 60.3002 277.203 62.2556 277.313 64.5374C277.327 64.8388 277.374 65.1375 277.453 65.428L277.647 66.1471C278.325 68.6533 280.573 70.3747 283.135 70.3499Z" fill="#53D7C3"/>
<path fill-rule="evenodd" clip-rule="evenodd" d="M232 41.2004C232 41.2004 232.8 31.3708 224.8 27.2751C216.8 23.1794 210.4 23.9985 207.2 20.722C204 17.4454 201.6 14.1689 200.8 16.6263C200.266 18.2646 200.533 21.5411 201.6 26.4559C199.466 23.1794 197.866 22.0872 196.8 23.1794C195.2 24.8177 196.8 36.2856 205.6 41.2004C214.4 46.1152 232 41.2004 232 41.2004Z" fill="url(#paint2_linear)"/>
<path d="M260.8 125.571C267.733 122.295 273.6 122.295 278.4 125.571C283.2 128.848 286.4 134.855 288 143.592L295.2 138.678" stroke="#564A4A" stroke-width="2.4" stroke-linecap="round" stroke-linejoin="round"/>
<mask id="mask0" mask-type="alpha" maskUnits="userSpaceOnUse" x="167" y="39" width="99" height="105">
<path d="M265.879 124.604L263.7 55.4168C263.421 46.5791 256.344 39.5623 247.708 39.5623H189.811C180.975 39.5623 173.811 46.8971 173.811 55.945C173.811 56.5297 173.842 57.1139 173.903 57.6953L179.821 114.084C180.311 118.758 178.817 123.423 175.719 126.892L168.386 135.1C166.597 137.103 166.732 140.212 168.688 142.044C169.601 142.899 170.8 143.36 172.037 143.331L250.251 141.511C259.085 141.305 266.084 133.806 265.883 124.76C265.882 124.708 265.881 124.656 265.879 124.604Z" fill="white"/>
</mask>
<g mask="url(#mask0)">
<path d="M265.879 124.604L263.7 55.4168C263.421 46.5791 256.344 39.5623 247.708 39.5623H189.811C180.975 39.5623 173.811 46.8971 173.811 55.945C173.811 56.5297 173.842 57.1139 173.903 57.6953L179.821 114.084C180.311 118.758 178.817 123.423 175.719 126.892L168.386 135.1C166.597 137.103 166.732 140.212 168.688 142.044C169.601 142.899 170.8 143.36 172.037 143.331L250.251 141.511C259.085 141.305 266.084 133.806 265.883 124.76C265.882 124.708 265.881 124.656 265.879 124.604Z" fill="url(#paint3_linear)"/>
<path d="M269.6 112.465C264.267 105.912 258.4 103.728 252 105.912C242.4 109.189 240 115.742 230.4 112.465C220.8 109.189 216 102.636 207.2 109.189C198.4 115.742 196 125.572 174.4 110.827" stroke="#FC9CA4" stroke-width="2.4" stroke-linecap="round" stroke-linejoin="round"/>
<path d="M268.4 123.114C263.067 116.561 257.2 114.377 250.8 116.561C241.2 119.838 238.8 126.391 229.2 123.114C219.6 119.838 214.8 113.285 206 119.838C197.2 126.391 194.8 136.22 173.2 121.476" stroke="#FC9CA4" stroke-width="2.4" stroke-linecap="round" stroke-linejoin="round"/>
<path d="M268.4 132.944C263.067 126.391 257.2 124.207 250.8 126.391C241.2 129.667 238.8 136.221 229.2 132.944C219.6 129.667 214.8 123.114 206 129.667C197.2 136.221 194.8 146.05 173.2 131.306C170.689 129.591 168.49 128.085 166.603 126.786" stroke="#FC9CA4" stroke-width="2.4" stroke-linecap="round" stroke-linejoin="round"/>
<path d="M268.4 143.56C263.067 137.007 257.2 134.823 250.8 137.007C241.2 140.283 238.8 146.837 229.2 143.56C219.6 140.283 214.8 133.73 206 140.283C197.2 146.837 194.4 156.699 172.8 141.954C167.876 138.593 163.139 137.499 158.589 138.671" stroke="#FC9CA4" stroke-width="2.4" stroke-linecap="round" stroke-linejoin="round"/>
</g>
<path d="M217.6 134.582C220.8 139.497 222.133 145.504 221.6 152.603C221.067 159.702 214.933 162.16 203.2 159.975V168.167" stroke="#564A4A" stroke-width="2.4" stroke-linecap="round" stroke-linejoin="round"/>
<path d="M241.809 71.8996C239.715 71.8996 238.018 70.1617 238.018 68.0179C238.018 65.8741 239.715 64.1362 241.809 64.1362C243.902 64.1362 245.6 65.8741 245.6 68.0179C245.6 70.1617 243.902 71.8996 241.809 71.8996Z" fill="#912727"/>
<path d="M210.346 71.8996C208.252 71.8996 206.555 70.1617 206.555 68.0179C206.555 65.8741 208.252 64.1362 210.346 64.1362C212.439 64.1362 214.137 65.8741 214.137 68.0179C214.137 70.1617 212.439 71.8996 210.346 71.8996Z" fill="#912727"/>
<path fill-rule="evenodd" clip-rule="evenodd" d="M235.291 77.2424H219.291C220.891 83.2494 223.824 86.253 228.091 86.253C232.357 86.253 234.757 83.2494 235.291 77.2424Z" fill="#F65E73"/>
<path d="M188.891 98.1303C185.691 89.0939 180.357 84.5757 172.891 84.5757C165.424 84.5757 157.957 89.7635 150.491 100.139" stroke="#564A4A" stroke-width="2.4" stroke-linecap="round" stroke-linejoin="round"/>
<path fill-rule="evenodd" clip-rule="evenodd" d="M153.291 97.6819C151.173 96.2361 148.367 96.4445 146.475 98.1881L145.691 98.9106C144.058 100.416 143.925 102.991 145.395 104.664C145.66 104.965 145.966 105.223 146.305 105.432L149.352 107.304C151.274 108.484 153.767 107.846 154.921 105.878C155.073 105.618 155.197 105.342 155.291 105.054L155.523 104.342C156.33 101.861 155.416 99.1328 153.291 97.6819Z" fill="#53D7C3"/>
<path d="M156.105 624.041C202.791 624.041 240.637 585.29 240.637 537.488C240.637 489.686 202.791 450.935 156.105 450.935C109.42 450.935 71.5742 489.686 71.5742 537.488C71.5742 585.29 109.42 624.041 156.105 624.041Z" fill="url(#paint4_linear)"/>
<path fill-rule="evenodd" clip-rule="evenodd" d="M169.136 527.963L180.32 522.237C185.457 519.607 191.704 521.739 194.273 527C194.995 528.478 195.371 530.109 195.371 531.762V543.214C195.371 549.095 190.714 553.862 184.971 553.862C183.356 553.862 181.764 553.477 180.32 552.738L169.136 547.012C163.998 544.382 161.916 537.986 164.485 532.725C165.491 530.665 167.123 528.994 169.136 527.963Z" fill="url(#paint5_linear)"/>
<path d="M162.905 511.275H124.505C120.087 511.275 116.505 514.857 116.505 519.275V555.7C116.505 560.118 120.087 563.7 124.505 563.7H162.905C167.324 563.7 170.905 560.118 170.905 555.7V519.275C170.905 514.857 167.324 511.275 162.905 511.275Z" fill="url(#paint6_linear)"/>
<path d="M176.63 500.197C180.306 500.197 183.286 497.146 183.286 493.382C183.286 489.618 180.306 486.567 176.63 486.567C172.954 486.567 169.974 489.618 169.974 493.382C169.974 497.146 172.954 500.197 176.63 500.197Z" fill="url(#paint7_linear)"/>
<path d="M191.215 360.413C237.9 360.413 275.746 321.662 275.746 273.86C275.746 226.058 237.9 187.307 191.215 187.307C144.53 187.307 106.684 226.058 106.684 273.86C106.684 321.662 144.53 360.413 191.215 360.413Z" fill="url(#paint8_linear)"/>
<path fill-rule="evenodd" clip-rule="evenodd" d="M197.215 243.693C211.353 243.693 222.815 255.429 222.815 269.905V277.769C222.815 292.246 211.353 303.982 197.215 303.982L182.75 303.981L165.709 318.522C164.08 319.913 161.659 319.687 160.301 318.019C159.616 317.177 159.305 316.08 159.443 314.993L160.893 303.61C148.813 301.507 139.615 290.738 139.615 277.769V269.905C139.615 255.429 151.076 243.693 165.215 243.693H197.215Z" fill="url(#paint9_linear)"/>
<path d="M157.215 266.957H183.455" stroke="#FFF1F1" stroke-width="5.12" stroke-linecap="round" stroke-linejoin="round"/>
<path d="M157.215 280.063H174.815" stroke="#FFF1F1" stroke-width="5.12" stroke-linecap="round" stroke-linejoin="round"/>
<path fill-rule="evenodd" clip-rule="evenodd" d="M207.135 245.659C198.652 245.659 191.775 252.701 191.775 261.387V266.105C191.775 274.791 198.652 281.832 207.135 281.832L215.814 281.831L226.038 290.557C227.016 291.391 228.468 291.256 229.283 290.255C229.694 289.75 229.881 289.091 229.798 288.439L228.928 281.609C236.176 280.347 241.695 273.886 241.695 266.105V261.387C241.695 252.701 234.818 245.659 226.335 245.659H207.135Z" fill="url(#paint10_linear)"/>
<path d="M205.215 260.404H228.255" stroke="white" stroke-width="3.84" stroke-linecap="round" stroke-linejoin="round"/>
<path d="M205.215 269.578H216.735" stroke="white" stroke-width="3.84" stroke-linecap="round" stroke-linejoin="round"/>
<path d="M397.175 137.615C434.288 137.615 464.375 106.809 464.375 68.8075C464.375 30.8062 434.288 0 397.175 0C360.061 0 329.975 30.8062 329.975 68.8075C329.975 106.809 360.061 137.615 397.175 137.615Z" fill="url(#paint11_linear)"/>
<path fill-rule="evenodd" clip-rule="evenodd" d="M367.767 48.6619C369.015 48.2187 370.432 48.1329 371.558 48.5167L372.349 48.7887C374.196 49.4215 376.13 51.5085 376.642 53.436L378.533 60.5438C379.043 62.4712 378.354 65.2164 376.978 66.6253L374.467 69.1964C376.932 78.538 384.088 85.8652 393.214 88.391L395.725 85.8199C397.099 84.411 399.782 83.7057 401.664 84.2297L408.602 86.1698C410.478 86.6902 412.516 88.6666 413.141 90.5614L413.401 91.3683C413.741 92.41 413.705 93.6973 413.376 94.8785C413.33 95.1912 413.266 95.5015 413.187 95.8078C412.235 99.4601 409.178 101.962 405.708 102.309C405.629 102.326 405.58 102.335 405.571 102.335C405.51 102.335 405.449 102.336 405.389 102.336C405.006 102.358 404.618 102.356 404.229 102.325C392.821 102.072 381.916 97.332 373.817 89.0401C365.379 80.4075 360.706 68.6379 360.837 56.4278C360.837 56.4255 360.88 56.2299 360.959 55.9416C361.415 52.9841 363.331 50.3386 366.237 49.132C366.695 48.9421 367.166 48.7933 367.646 48.6865L367.767 48.6619Z" fill="#4C82DE"/>
<path d="M405.174 74.5414C405.174 64.3625 397.115 56.1108 387.174 56.1108" stroke="#4C82DE" stroke-width="4.8" stroke-linecap="round" stroke-linejoin="round"/>
<path d="M416.875 66.9644C416.875 53.7318 406.398 43.0046 393.475 43.0046" stroke="#4C82DE" stroke-width="4.8" stroke-linecap="round" stroke-linejoin="round"/>
<path d="M219.11 701.511C223.59 701.511 227.221 697.793 227.221 693.207C227.221 688.621 223.59 684.903 219.11 684.903C214.631 684.903 211 688.621 211 693.207C211 697.793 214.631 701.511 219.11 701.511Z" stroke="#EFAA7A" stroke-width="5.2"/>
<path fill-rule="evenodd" clip-rule="evenodd" d="M566.821 69.7053C556.94 60.413 536.173 64.7669 513.492 82.6069C490.811 100.447 490.492 127.659 503.832 133.349C517.171 139.039 535.44 137.185 553.866 115.965C572.292 94.7457 576.702 78.9976 566.821 69.7053Z" fill="white"/>
<path d="M67.5865 285.363C72.0657 285.363 75.6969 281.645 75.6969 277.059C75.6969 272.472 72.0657 268.754 67.5865 268.754C63.1072 268.754 59.4761 272.472 59.4761 277.059C59.4761 281.645 63.1072 285.363 67.5865 285.363Z" stroke="#EFAA7A" stroke-width="5.2"/>
<path d="M219.11 701.511C223.59 701.511 227.221 697.793 227.221 693.207C227.221 688.621 223.59 684.903 219.11 684.903C214.631 684.903 211 688.621 211 693.207C211 697.793 214.631 701.511 219.11 701.511Z" stroke="#EFAA7A" stroke-width="5.2"/>
<path d="M651.61 597.172C656.09 597.172 659.721 593.454 659.721 588.867C659.721 584.281 656.09 580.563 651.61 580.563C647.131 580.563 643.5 584.281 643.5 588.867C643.5 593.454 647.131 597.172 651.61 597.172Z" stroke="#EFAA7A" stroke-width="5.2"/>
<path d="M547.846 153.339L540.391 158.607C538.206 160.151 535.213 159.589 533.705 157.352C532.932 156.205 532.67 154.778 532.983 153.423L535.093 144.29C535.558 142.28 534.796 140.18 533.163 138.967L526.926 134.336C524.922 132.847 524.475 129.977 525.929 127.924C526.64 126.921 527.716 126.255 528.914 126.077L537.305 124.828C538.933 124.586 540.341 123.539 541.069 122.028L545.222 113.411C546.444 110.876 549.443 109.835 551.919 111.086C552.905 111.585 553.703 112.402 554.19 113.411L558.343 122.028C559.071 123.539 560.479 124.586 562.107 124.828L571.394 126.21C574.126 126.617 576.02 129.214 575.623 132.013C575.465 133.127 574.952 134.157 574.165 134.942L567.445 141.649C566.267 142.825 565.729 144.52 566.007 146.181L567.434 154.702C567.836 157.097 566.264 159.373 563.924 159.784C562.735 159.993 561.514 159.68 560.561 158.922L553.753 153.509C552.031 152.14 549.641 152.071 547.846 153.339Z" fill="url(#paint12_linear)"/>
<path fill-rule="evenodd" clip-rule="evenodd" d="M326.75 285.363C327.827 285.363 328.7 286.257 328.7 287.36V293.35H334.55C335.578 293.35 336.42 294.164 336.495 295.197L336.5 295.346C336.5 296.449 335.627 297.343 334.55 297.343H328.7V303.333C328.7 304.386 327.905 305.248 326.896 305.324L326.75 305.33C325.673 305.33 324.8 304.436 324.8 303.333V297.343H318.95C317.922 297.343 317.08 296.529 317.005 295.495L317 295.346C317 294.244 317.873 293.35 318.95 293.35H324.8V287.36C324.8 286.307 325.595 285.445 326.604 285.369L326.75 285.363Z" fill="url(#paint13_linear)"/>
<path fill-rule="evenodd" clip-rule="evenodd" d="M649.971 448.989C651.048 448.989 651.921 449.883 651.921 450.986V456.976H657.771C658.799 456.976 659.641 457.79 659.715 458.823L659.721 458.973C659.721 460.075 658.848 460.969 657.771 460.969H651.921V466.959C651.921 468.012 651.125 468.874 650.116 468.95L649.971 468.956C648.894 468.956 648.021 468.062 648.021 466.959V460.969H642.171C641.143 460.969 640.301 460.155 640.226 459.122L640.221 458.973C640.221 457.87 641.094 456.976 642.171 456.976H648.021V450.986C648.021 449.933 648.816 449.071 649.825 448.995L649.971 448.989Z" fill="url(#paint14_linear)"/>
<path fill-rule="evenodd" clip-rule="evenodd" d="M307.25 568.901C308.327 568.901 309.2 569.795 309.2 570.898V576.888H315.05C316.078 576.888 316.92 577.702 316.995 578.735L317 578.884C317 579.987 316.127 580.881 315.05 580.881H309.2V586.871C309.2 587.924 308.405 588.786 307.396 588.862L307.25 588.868C306.173 588.868 305.3 587.974 305.3 586.871V580.881H299.45C298.422 580.881 297.58 580.066 297.505 579.033L297.5 578.884C297.5 577.782 298.373 576.888 299.45 576.888H305.3V570.898C305.3 569.845 306.095 568.983 307.104 568.907L307.25 568.901Z" fill="url(#paint15_linear)"/>
<path d="M605.383 177.923C608.632 177.923 611.266 175.226 611.266 171.899C611.266 168.572 608.632 165.875 605.383 165.875C602.134 165.875 599.5 168.572 599.5 171.899C599.5 175.226 602.134 177.923 605.383 177.923Z" fill="url(#paint16_linear)"/>
<path d="M90.883 404.721C94.1321 404.721 96.766 402.024 96.766 398.697C96.766 395.371 94.1321 392.674 90.883 392.674C87.6339 392.674 85 395.371 85 398.697C85 402.024 87.6339 404.721 90.883 404.721Z" fill="url(#paint17_linear)"/>
<path d="M630.883 364.788C634.132 364.788 636.766 362.091 636.766 358.764C636.766 355.438 634.132 352.741 630.883 352.741C627.634 352.741 625 355.438 625 358.764C625 362.091 627.634 364.788 630.883 364.788Z" fill="url(#paint18_linear)"/>
<path d="M373 199.665C375.071 199.665 376.75 197.945 376.75 195.825C376.75 193.704 375.071 191.985 373 191.985C370.929 191.985 369.25 193.704 369.25 195.825C369.25 197.945 370.929 199.665 373 199.665Z" fill="url(#paint19_linear)"/>
<path fill-rule="evenodd" clip-rule="evenodd" d="M426.775 536.944L444.8 534.739C521.768 525.364 560.748 521.184 561.74 522.2C562.404 522.879 565.269 540.889 567.654 561.854C516.111 585.783 467.783 643.569 412.247 692.514C412.849 668.049 417.692 616.192 426.775 536.944Z" fill="url(#paint20_linear)"/>
<path opacity="0.4" d="M478.793 629.697L477.639 630.796C474.297 633.985 470.942 637.211 467.571 640.461C468.846 629.122 468.7 618.389 468.7 610.522C468.7 600.209 477.337 608.561 478.793 629.697Z" fill="#27006D"/>
<path opacity="0.4" d="M559.427 522.067L559.7 522.06L561.894 522.543L561.978 522.821C562.929 526.231 565.489 542.825 567.654 561.854C555.328 567.576 543.187 575.234 531.087 584.244C529.2 580.684 526.631 578.398 523.378 576.665L523 576.467C515 572.372 511 571.348 494 569.3C482.667 567.935 473.333 561.45 466 549.845L479.547 543.356C494.275 536.28 505.797 530.669 514.113 526.525L524.795 525.33C543.248 523.297 554.792 522.21 559.427 522.067Z" fill="#27006D"/>
<path d="M373.74 446.839C372.14 459.399 368.14 464.86 361.74 463.222C352.14 460.764 340.14 452.573 333.74 432.914C327.34 413.254 319.34 411.616 312.94 412.435C306.54 413.254 299.34 420.627 308.94 451.754C318.54 482.881 344.94 530.391 364.94 521.381C378.274 515.374 386.807 497.352 390.54 467.317C388.94 459.126 388.14 455.03 388.14 455.03C388.14 455.03 383.34 452.3 373.74 446.839Z" fill="#FCB8AC"/>
<path fill-rule="evenodd" clip-rule="evenodd" d="M412.14 319.873C405.207 319.873 398.274 327.791 391.34 343.628C380.94 367.383 365.74 451.754 359.34 459.945C352.94 468.137 368.94 462.403 365.74 491.891C362.54 521.38 356.14 522.2 368.14 521.38C380.14 520.561 409.74 491.072 422.54 429.637C431.074 388.68 427.607 352.092 412.14 319.873Z" fill="url(#paint21_linear)"/>
<path opacity="0.5" d="M410.774 382.946L413.873 385.317C418.683 389.005 423.032 392.389 426.921 395.468C426.449 406.497 424.988 417.887 422.54 429.637C417.042 456.027 408.443 476.523 399.472 491.383L399.814 489.595C402.57 475.045 405.695 454.706 408.217 441.126L408.374 440.286C411.041 426.087 411.841 406.974 410.774 382.946Z" fill="#006A8F"/>
<path fill-rule="evenodd" clip-rule="evenodd" d="M300.025 350.009L328.435 351.373C333.731 351.627 337.993 355.92 338.327 361.338L341.896 419.188C342.23 424.606 338.211 429.275 332.92 429.618C332.718 429.631 332.517 429.637 332.315 429.637H311.101C306.574 429.637 302.663 426.399 301.714 421.867L289.369 362.877C288.165 357.127 291.743 351.466 297.359 350.234C298.234 350.042 299.13 349.966 300.025 350.009Z" fill="url(#paint22_linear)"/>
<path d="M325.848 370.061C327.675 370.061 329.156 368.545 329.156 366.674C329.156 364.803 327.675 363.287 325.848 363.287C324.021 363.287 322.54 364.803 322.54 366.674C322.54 368.545 324.021 370.061 325.848 370.061Z" fill="black"/>
<path fill-rule="evenodd" clip-rule="evenodd" d="M404.94 323.149C417.74 312.501 439.34 310.862 479.34 308.405C519.34 305.948 544.14 309.224 556.14 316.596C568.14 323.969 576.94 544.316 570.54 554.965C564.14 565.614 550.54 563.976 522.54 561.518C494.54 559.061 476.14 554.965 456.94 561.518C437.74 568.071 419.574 568.071 419.574 561.518C419.574 554.965 422.54 437.829 413.74 404.244C404.94 370.659 392.14 333.798 404.94 323.149Z" fill="url(#paint23_linear)"/>
<path d="M437.975 444.434C453.441 425.321 461.175 419.041 461.175 425.594C461.175 435.423 459.575 446.072 469.975 438.7C480.375 431.328 485.175 417.402 489.175 425.594C493.175 433.785 489.175 445.253 496.375 441.976C501.175 439.792 506.775 434.331 513.175 425.594" stroke="#D4EEFF" stroke-width="6.4" stroke-linecap="round" stroke-linejoin="round"/>
<path d="M461.975 463.222H489.175" stroke="#D4EEFF" stroke-width="6.4" stroke-linecap="round" stroke-linejoin="round"/>
<path opacity="0.5" d="M476.636 308.572L493.175 322.33C487.841 335.982 470.774 342.809 441.974 342.809C414.087 342.809 410.536 329.496 412.599 318.296C425.576 312.073 445.279 310.513 476.636 308.572Z" fill="#006A8F"/>
<path opacity="0.5" d="M526.775 364.925L567.774 394.041C572.633 461.128 574.509 548.362 570.54 554.965C565.109 564.002 554.492 564.19 534.29 562.538C536.004 559.17 537.789 554.846 539.575 549.231C550.775 514.008 541.975 493.53 533.175 455.03C527.456 430.014 525.285 400.847 526.66 367.53L526.775 364.925Z" fill="#006A8F"/>
<path d="M504.937 252.205C504.937 258.595 504.937 264.001 504.937 268.424C504.937 275.059 499.177 279.483 491.977 278.745C484.777 278.008 486.217 266.213 489.817 261.052C492.217 257.612 497.257 254.663 504.937 252.205Z" fill="url(#paint24_linear)"/>
<path fill-rule="evenodd" clip-rule="evenodd" d="M516.913 307.912L516.802 308.232C515.347 312.37 512.726 317.069 508.94 322.33C497.74 337.894 474.54 342.809 462.54 342.809C450.54 342.809 442.54 334.617 444.14 328.064L444.263 327.551C445.112 323.944 446.124 318.338 447.298 310.734C456.416 309.843 467.003 309.163 479.34 308.405L481.395 308.283C495.003 307.504 506.809 307.403 516.913 307.912Z" fill="#D4EEFF"/>
<path d="M496.94 242.874C494.273 254.888 494.273 265.81 496.94 275.639C500.94 290.384 507.34 308.405 507.34 314.139C507.34 319.873 491.34 332.979 470.54 334.617C449.74 336.256 451.34 332.16 451.34 323.149C451.34 314.139 451.34 278.916 451.34 269.906C451.34 263.899 466.54 254.888 496.94 242.874Z" fill="#FCB8AC"/>
<path d="M483.574 260.076C481.974 296.118 471.308 316.05 451.574 319.873L451.339 319.916V274.552L483.574 260.076Z" fill="#F39793"/>
<path d="M546 416.736C554.667 476.806 559.667 517.08 561 537.558C563 568.276 564 581.28 564 590.29C564 599.301 559.34 617.219 562.54 617.219C564.673 617.219 566.827 614.045 569 607.697C569.179 605.881 569.512 606.222 570 608.721C571 613.841 570.716 625.104 572 625.104C573.333 625.104 574.98 621.656 576.94 614.762C576.98 623.704 577.667 628.175 579 628.175C581 628.175 583.34 619.677 585.74 617.219C588.14 614.762 589.74 608.209 588.94 603.294C588.14 598.379 586.54 586.092 586.54 581.997C586.54 577.901 599 502.336 599 484.314C599 472.3 596.447 448.887 591.34 414.073L546 416.736Z" fill="#FCB8AC"/>
<path d="M563 579.027C569.627 577.184 576.14 576.263 582.54 576.263C588.94 576.263 590.54 577.628 587.34 580.358" stroke="#111111" stroke-width="5.6" stroke-linecap="round" stroke-linejoin="round"/>
<path d="M581.758 584.53C585.725 584.53 588.94 581.238 588.94 577.176C588.94 573.115 585.725 569.823 581.758 569.823C577.792 569.823 574.577 573.115 574.577 577.176C574.577 581.238 577.792 584.53 581.758 584.53Z" fill="url(#paint25_linear)"/>
<path d="M582.687 581.84C585.448 581.84 587.687 579.548 587.687 576.72C587.687 573.893 585.448 571.601 582.687 571.601C579.925 571.601 577.687 573.893 577.687 576.72C577.687 579.548 579.925 581.84 582.687 581.84Z" fill="white"/>
<path fill-rule="evenodd" clip-rule="evenodd" d="M546.54 313.32C558.273 314.958 567.607 323.423 574.54 338.713C584.94 361.649 599.88 443.972 600.94 461.584C602 479.195 601.6 494.144 600 496.602C598.4 499.059 556.14 500.902 556.14 496.806C556.14 492.711 549.74 445.201 542.54 424.722C535.34 404.244 520.14 373.117 519.34 345.266C518.807 326.699 527.873 316.05 546.54 313.32Z" fill="url(#paint26_linear)"/>
<path fill-rule="evenodd" clip-rule="evenodd" d="M600.872 476.373L555.416 482.444C553.514 482.698 552.057 484.297 551.941 486.257L551.296 497.143C550.975 502.561 555.006 507.221 560.298 507.549C561.131 507.601 561.968 507.541 562.786 507.371L599.091 499.836C605.12 498.584 609.22 492.828 608.54 486.567L608.061 482.147C607.67 478.55 604.506 475.958 600.993 476.358C600.953 476.362 600.912 476.367 600.872 476.373Z" fill="#D4EEFF"/>
<path d="M411.897 215.31C405.177 269.373 410.937 296.405 429.177 296.405C456.537 296.405 494.697 265.441 499.017 255.857C503.337 246.273 501.177 207.938 481.737 196.879C468.777 189.507 445.497 195.651 411.897 215.31Z" fill="url(#paint27_linear)"/>
<path d="M489.922 243.693C493.282 238.287 498.562 235.584 505.762 235.584C516.562 235.584 514.083 254.014 505.708 261.018C497.333 268.022 493.413 270.233 487.708 269.127C483.904 268.39 484.642 259.912 489.922 243.693Z" fill="#FCB8AC"/>
<path d="M508.377 235.952C504.057 235.461 499.977 236.689 496.137 239.638C490.377 244.062 487.497 250.697 483.177 249.96C478.857 249.222 479.577 222.682 476.697 216.047C473.817 209.412 463.017 216.784 442.137 216.784C421.257 216.784 414.057 215.31 412.617 216.047C411.177 216.784 411.177 235.952 409.737 237.427C408.297 238.901 398.937 241.113 399.657 238.901C400.377 236.689 402.537 233.741 400.377 228.58C398.217 223.419 384.537 205.726 398.937 192.456C413.337 179.186 425.577 190.244 429.177 185.821C432.777 181.398 431.337 168.865 468.057 168.865C504.777 168.865 508.377 190.982 508.377 201.303C508.377 208.184 508.377 219.733 508.377 235.952Z" fill="url(#paint28_linear)"/>
<path d="M418.214 254.272C420.509 254.272 422.37 252.366 422.37 250.016C422.37 247.666 420.509 245.76 418.214 245.76C415.918 245.76 414.057 247.666 414.057 250.016C414.057 252.366 415.918 254.272 418.214 254.272Z" fill="black"/>
<path d="M452.355 253.646C454.651 253.646 456.511 251.74 456.511 249.39C456.511 247.039 454.651 245.134 452.355 245.134C450.06 245.134 448.199 247.039 448.199 249.39C448.199 251.74 450.06 253.646 452.355 253.646Z" fill="black"/>
<path d="M431.704 240.191C428.824 257.393 428.104 266.24 429.544 266.731C430.984 267.223 432.904 267.223 435.304 266.731" stroke="#ECA08B" stroke-width="2.16" stroke-linecap="round" stroke-linejoin="round"/>
<path d="M438.537 275.762C442.857 278.22 446.697 275.517 450.057 267.653" stroke="#C57256" stroke-width="2.88" stroke-linecap="round" stroke-linejoin="round"/>
<path fill-rule="evenodd" clip-rule="evenodd" d="M361.74 455.03C356.14 455.03 352.94 460.764 355.34 463.222C357.74 465.679 360.14 469.775 360.14 477.147C360.14 484.519 351.34 518.104 352.14 521.38C352.94 524.657 369.74 531.21 374.54 522.2C379.34 513.189 377.74 491.072 374.54 477.147C371.34 463.222 367.34 455.03 361.74 455.03Z" fill="#D4EEFF"/>
<path d="M305.177 435.495C298.777 424.028 295.043 415.29 293.977 409.283C292.91 403.276 292.91 396.45 293.977 388.805L300.377 403.549C306.243 396.996 310.777 392.9 313.977 391.262C318.777 388.805 338.777 375.699 340.377 377.337C341.977 378.975 342.777 383.89 340.377 385.528C337.977 387.166 340.375 392.776 342.775 397.691C345.175 402.606 341.975 414.893 337.975 420.627C333.975 426.361 330.211 424.028 326.211 428.942C323.544 432.219 316.533 434.403 305.177 435.495Z" fill="#FCB8AC"/>
<path d="M587.66 608.477C587.22 618.879 586.666 624.421 586 625.104C585 626.128 583.418 623.041 583 616.912C582.721 612.827 584.274 610.015 587.66 608.477Z" fill="#FCB8AC"/>
<path d="M589.179 604.946C589.846 613.82 589.846 618.598 589.179 619.28C588.179 620.304 587.179 615.185 586.179 612.113C585.513 610.065 586.513 607.676 589.179 604.946Z" fill="#FCB8AC"/>
<defs>
<linearGradient id="paint0_linear" x1="830.999" y1="-66.0118" x2="89.7928" y2="822.982" gradientUnits="userSpaceOnUse">
<stop stop-color="#49E9FB"/>
<stop offset="0.535966" stop-color="#563CC9"/>
<stop offset="1" stop-color="#450B7C"/>
</linearGradient>
<linearGradient id="paint1_linear" x1="598.607" y1="653.993" x2="382.696" y2="810.871" gradientUnits="userSpaceOnUse">
<stop stop-color="#49E9FB"/>
<stop offset="0.616371" stop-color="#563CC9"/>
<stop offset="1" stop-color="#450B7C"/>
</linearGradient>
<linearGradient id="paint2_linear" x1="207.692" y1="25.3991" x2="228.917" y2="46.5411" gradientUnits="userSpaceOnUse">
<stop stop-color="#FEB184"/>
<stop offset="1" stop-color="#F36077"/>
</linearGradient>
<linearGradient id="paint3_linear" x1="246.374" y1="52.7603" x2="214.002" y2="118.834" gradientUnits="userSpaceOnUse">
<stop stop-color="#FEB184"/>
<stop offset="1" stop-color="#F36077"/>
</linearGradient>
<linearGradient id="paint4_linear" x1="74.61" y1="430.861" x2="245.073" y2="620.044" gradientUnits="userSpaceOnUse">
<stop stop-color="#59DBB0"/>
<stop offset="1" stop-color="#FEFFB5"/>
</linearGradient>
<linearGradient id="paint5_linear" x1="195.371" y1="517.384" x2="173.261" y2="553.401" gradientUnits="userSpaceOnUse">
<stop stop-color="#69BED3"/>
<stop offset="0.460079" stop-color="#79AFDA"/>
<stop offset="1" stop-color="#A786EF"/>
</linearGradient>
<linearGradient id="paint6_linear" x1="170.905" y1="509.461" x2="110.891" y2="562.901" gradientUnits="userSpaceOnUse">
<stop stop-color="#69BED3"/>
<stop offset="0.460079" stop-color="#79AFDA"/>
<stop offset="1" stop-color="#A786EF"/>
</linearGradient>
<linearGradient id="paint7_linear" x1="183.286" y1="485.156" x2="167.775" y2="499.83" gradientUnits="userSpaceOnUse">
<stop stop-color="#69BED3"/>
<stop offset="0.460079" stop-color="#79AFDA"/>
<stop offset="1" stop-color="#A786EF"/>
</linearGradient>
<linearGradient id="paint8_linear" x1="106.684" y1="187.307" x2="279.742" y2="356.322" gradientUnits="userSpaceOnUse">
<stop stop-color="#FFA8E8"/>
<stop offset="1" stop-color="#FFE6E6"/>
</linearGradient>
<linearGradient id="paint9_linear" x1="181.215" y1="243.773" x2="181.215" y2="319.434" gradientUnits="userSpaceOnUse">
<stop stop-color="#FF8FCA"/>
<stop offset="1" stop-color="#DC5761"/>
</linearGradient>
<linearGradient id="paint10_linear" x1="216.735" y1="266.311" x2="160.879" y2="341.696" gradientUnits="userSpaceOnUse">
<stop stop-color="#FFAAD7"/>
<stop offset="1" stop-color="#DC5761"/>
</linearGradient>
<linearGradient id="paint11_linear" x1="346.948" y1="3.21189" x2="491.467" y2="175.718" gradientUnits="userSpaceOnUse">
<stop stop-color="#9CB3FF"/>
<stop offset="1" stop-color="#B0FFE9"/>
</linearGradient>
<linearGradient id="paint12_linear" x1="517.57" y1="177.321" x2="566.885" y2="107.377" gradientUnits="userSpaceOnUse">
<stop stop-color="#FF815E"/>
<stop offset="1" stop-color="#FF9C34"/>
</linearGradient>
<linearGradient id="paint13_linear" x1="317.35" y1="283.048" x2="337.012" y2="304.869" gradientUnits="userSpaceOnUse">
<stop stop-color="#59DBB0"/>
<stop offset="1" stop-color="#FEFFB5"/>
</linearGradient>
<linearGradient id="paint14_linear" x1="642.683" y1="449.455" x2="663.652" y2="474.484" gradientUnits="userSpaceOnUse">
<stop stop-color="#9CB3FF"/>
<stop offset="1" stop-color="#B0FFE9"/>
</linearGradient>
<linearGradient id="paint15_linear" x1="299.963" y1="569.367" x2="320.931" y2="594.396" gradientUnits="userSpaceOnUse">
<stop stop-color="#9CB3FF"/>
<stop offset="1" stop-color="#B0FFE9"/>
</linearGradient>
<linearGradient id="paint16_linear" x1="599.711" y1="164.478" x2="611.575" y2="177.644" gradientUnits="userSpaceOnUse">
<stop stop-color="#FFAF73"/>
<stop offset="1" stop-color="#FFFECC"/>
</linearGradient>
<linearGradient id="paint17_linear" x1="85" y1="392.674" x2="94.711" y2="404.497" gradientUnits="userSpaceOnUse">
<stop stop-color="#FF8989"/>
<stop offset="1" stop-color="#FFDDC5"/>
</linearGradient>
<linearGradient id="paint18_linear" x1="625" y1="352.741" x2="634.711" y2="364.564" gradientUnits="userSpaceOnUse">
<stop stop-color="#FF8989"/>
<stop offset="1" stop-color="#FFDDC5"/>
</linearGradient>
<linearGradient id="paint19_linear" x1="369.385" y1="191.095" x2="376.947" y2="199.487" gradientUnits="userSpaceOnUse">
<stop stop-color="#FFAF73"/>
<stop offset="1" stop-color="#FFFECC"/>
</linearGradient>
<linearGradient id="paint20_linear" x1="319.228" y1="805.461" x2="507.649" y2="613.119" gradientUnits="userSpaceOnUse">
<stop stop-color="#DC53FF"/>
<stop offset="1" stop-color="#7F63FF"/>
</linearGradient>
<linearGradient id="paint21_linear" x1="383.078" y1="582.862" x2="404.123" y2="223.771" gradientUnits="userSpaceOnUse">
<stop stop-color="#57F4E0"/>
<stop offset="1" stop-color="#399FCD"/>
</linearGradient>
<linearGradient id="paint22_linear" x1="326.994" y1="336.284" x2="307.133" y2="402.969" gradientUnits="userSpaceOnUse">
<stop stop-color="#DA53DD"/>
<stop offset="1" stop-color="#9740BE"/>
</linearGradient>
<linearGradient id="paint23_linear" x1="453.824" y1="679.487" x2="583.257" y2="230.381" gradientUnits="userSpaceOnUse">
<stop stop-color="#57F4E0"/>
<stop offset="1" stop-color="#399FCD"/>
</linearGradient>
<linearGradient id="paint24_linear" x1="487.567" y1="246.183" x2="504.3" y2="265.615" gradientUnits="userSpaceOnUse">
<stop stop-color="#A77F99"/>
<stop offset="1" stop-color="#6F3359"/>
</linearGradient>
<linearGradient id="paint25_linear" x1="576.05" y1="590.954" x2="587.184" y2="564.491" gradientUnits="userSpaceOnUse">
<stop stop-color="#57F4E0"/>
<stop offset="1" stop-color="#399FCD"/>
</linearGradient>
<linearGradient id="paint26_linear" x1="541.983" y1="555.725" x2="644.908" y2="324.128" gradientUnits="userSpaceOnUse">
<stop stop-color="#57F4E0"/>
<stop offset="1" stop-color="#399FCD"/>
</linearGradient>
<linearGradient id="paint27_linear" x1="423.949" y1="179.277" x2="491.235" y2="297.53" gradientUnits="userSpaceOnUse">
<stop stop-color="#FCDABB"/>
<stop offset="0.746679" stop-color="#FCB9AC"/>
<stop offset="1" stop-color="#FCB8AC"/>
</linearGradient>
<linearGradient id="paint28_linear" x1="251.559" y1="195.103" x2="468.218" y2="240.457" gradientUnits="userSpaceOnUse">
<stop stop-color="#A77F99"/>
<stop offset="1" stop-color="#6F3359"/>
</linearGradient>
</defs>
</svg>
