<svg width="844" height="779" viewBox="0 0 844 779" fill="none" xmlns="http://www.w3.org/2000/svg">
<path d="M696.796 266.891C627.497 250.686 544.985 160.221 540.451 95.3795C535.917 30.5378 608.872 -15.6638 735.443 102.796C862.015 221.255 766.095 283.097 696.796 266.891Z" fill="url(#paint0_linear)"/>
<path d="M580.566 210.362C507.566 185.362 507.566 80.2901 424.566 24.2901C341.566 -31.7099 190.566 24.2901 152.566 174.29C114.566 324.29 174.566 380.362 120.566 438.362C66.5661 496.362 36.5661 531.29 18.5661 622.29C0.566076 713.29 61.5661 790.29 164.566 777.29C267.566 764.29 351.566 668.29 492.566 680.29C633.566 692.29 753.566 697.362 753.566 520.362C753.566 343.362 653.566 235.362 580.566 210.362Z" fill="url(#paint1_linear)"/>
<path d="M62.6418 454.085C77.1202 447.731 92.9067 429.406 106.102 403.447C119.298 377.488 132.193 332.115 81.502 315.131C30.8114 298.146 1.47747 386.166 13.4501 424.149C25.4227 462.131 48.1633 460.439 62.6418 454.085Z" fill="url(#paint2_linear)"/>
<path fill-rule="evenodd" clip-rule="evenodd" d="M145.816 534.4C146.893 534.4 147.766 535.273 147.766 536.35V542.2H153.616C154.644 542.2 155.486 542.996 155.561 544.005L155.566 544.15C155.566 545.227 154.693 546.1 153.616 546.1H147.766V551.95C147.766 552.978 146.97 553.821 145.961 553.895L145.816 553.9C144.739 553.9 143.866 553.027 143.866 551.95V546.1H138.016C136.988 546.1 136.146 545.305 136.071 544.296L136.066 544.15C136.066 543.073 136.939 542.2 138.016 542.2H143.866V536.35C143.866 535.322 144.661 534.48 145.67 534.406L145.816 534.4Z" fill="url(#paint3_linear)"/>
<path fill-rule="evenodd" clip-rule="evenodd" d="M415.316 87.4868C416.393 87.4868 417.266 88.3599 417.266 89.4368V95.2868H423.116C424.144 95.2868 424.986 96.0823 425.061 97.0913L425.066 97.2368C425.066 98.3138 424.193 99.1868 423.116 99.1868H417.266V105.037C417.266 106.065 416.47 106.907 415.461 106.981L415.316 106.987C414.239 106.987 413.366 106.114 413.366 105.037V99.1868H407.516C406.488 99.1868 405.646 98.3913 405.571 97.3823L405.566 97.2368C405.566 96.1599 406.439 95.2868 407.516 95.2868H413.366V89.4368C413.366 88.4088 414.161 87.5666 415.17 87.4922L415.316 87.4868Z" fill="url(#paint4_linear)"/>
<path d="M226.449 325.056C229.698 325.056 232.332 322.422 232.332 319.173C232.332 315.924 229.698 313.29 226.449 313.29C223.2 313.29 220.566 315.924 220.566 319.173C220.566 322.422 223.2 325.056 226.449 325.056Z" fill="url(#paint5_linear)"/>
<path d="M126.449 675.056C129.698 675.056 132.332 672.422 132.332 669.173C132.332 665.924 129.698 663.29 126.449 663.29C123.2 663.29 120.566 665.924 120.566 669.173C120.566 672.422 123.2 675.056 126.449 675.056Z" fill="url(#paint6_linear)"/>
<path d="M654.449 396.747C657.698 396.747 660.332 394.113 660.332 390.864C660.332 387.615 657.698 384.981 654.449 384.981C651.2 384.981 648.566 387.615 648.566 390.864C648.566 394.113 651.2 396.747 654.449 396.747Z" fill="url(#paint7_linear)"/>
<path d="M464.449 626.747C467.698 626.747 470.332 624.113 470.332 620.864C470.332 617.615 467.698 614.981 464.449 614.981C461.2 614.981 458.566 617.615 458.566 620.864C458.566 624.113 461.2 626.747 464.449 626.747Z" fill="url(#paint8_linear)"/>
<path d="M793.329 435.401C797.808 435.401 801.439 431.769 801.439 427.29C801.439 422.811 797.808 419.18 793.329 419.18C788.849 419.18 785.218 422.811 785.218 427.29C785.218 431.769 788.849 435.401 793.329 435.401Z" stroke="#EFAA7A" stroke-width="5.2"/>
<path d="M478.566 19.2208C483.045 19.2208 486.676 15.5897 486.676 11.1104C486.676 6.63116 483.045 3 478.566 3C474.087 3 470.456 6.63116 470.456 11.1104C470.456 15.5897 474.087 19.2208 478.566 19.2208Z" stroke="#EFAA7A" stroke-width="5.2"/>
<path d="M571.632 611.136L561.948 613.48C559.11 614.168 556.252 612.424 555.565 609.585C555.213 608.131 555.493 606.596 556.336 605.36L562.019 597.033C563.27 595.2 563.297 592.794 562.086 590.933L557.465 583.83C555.979 581.547 556.626 578.492 558.909 577.006C560.025 576.28 561.387 576.036 562.686 576.33L571.783 578.385C573.549 578.784 575.398 578.289 576.727 577.06L584.309 570.056C586.541 567.995 590.02 568.132 592.081 570.364C592.902 571.252 593.407 572.386 593.518 573.591L594.466 583.87C594.632 585.672 595.675 587.278 597.254 588.163L606.259 593.209C608.908 594.694 609.853 598.046 608.368 600.696C607.776 601.751 606.853 602.582 605.742 603.06L596.259 607.137C594.596 607.852 593.392 609.34 593.038 611.115L591.223 620.224C590.713 622.785 588.223 624.448 585.662 623.937C584.36 623.678 583.227 622.883 582.54 621.747L577.632 613.635C576.391 611.583 573.963 610.571 571.632 611.136Z" fill="url(#paint9_linear)"/>
<path fill-rule="evenodd" clip-rule="evenodd" d="M245.566 614.29L306.566 601.29L412.566 620.29L417.206 683.953C350.228 696.255 296.051 730.093 242.079 753.811L245.566 614.29Z" fill="url(#paint10_linear)"/>
<path opacity="0.4" d="M379.566 665.29C382.158 665.29 382.062 679.001 381.369 692.763C377.375 693.982 373.423 695.267 369.511 696.608L369.97 694.086C372.905 678.254 376.432 665.29 379.566 665.29Z" fill="#27006D"/>
<path opacity="0.4" d="M369.566 624.29C368.624 629.003 372.912 634.405 359.566 641.29C356.076 643.09 346.076 646.09 329.566 650.29C316.495 654.212 298.727 661.47 298.571 681.989L298.562 685.686L298.552 687.37C298.417 705.626 297.189 715.419 290.659 730.778L279.113 736.416C266.658 742.49 254.363 748.413 242.079 753.811L245.303 624.733C259.61 620.573 325.031 615.093 369.566 624.29Z" fill="#27006D"/>
<path fill-rule="evenodd" clip-rule="evenodd" d="M411.566 370.29C420.899 372.29 428.566 378.29 434.566 388.29C443.566 403.29 471.566 481.29 473.566 476.29C475.566 471.29 482.566 436.29 487.566 431.29C492.566 426.29 528.566 427.29 531.566 436.29C534.566 445.29 516.566 554.29 490.566 560.29C464.566 566.29 438.566 526.29 424.566 510.29C410.566 494.29 406.566 485.29 406.566 476.29C406.566 470.29 408.233 434.957 411.566 370.29Z" fill="url(#paint11_linear)"/>
<path opacity="0.35" d="M485.817 434.022C486.419 432.79 487.005 431.851 487.566 431.29C492.261 426.595 524.286 427.19 530.662 434.731C529.093 440.472 525.745 446.264 523.009 449C519.509 452.5 508.509 454.5 496.509 449C490.165 446.092 487.111 439.675 485.817 434.022Z" fill="#6B001F"/>
<path opacity="0.35" d="M415.566 431.29C418.566 431.29 419.566 483.29 430.566 495.29C439.249 504.763 447.309 531.059 459.173 549.094C445.357 537.519 433.191 520.263 424.98 510.766L423.695 509.289C410.542 494.076 406.65 485.291 406.567 476.574V476.033C406.586 473.118 406.913 464.792 407.547 451.055L408.296 448.567C411.183 439.149 414.202 431.29 415.566 431.29Z" fill="#6B001F"/>
<path fill-rule="evenodd" clip-rule="evenodd" d="M419.404 372.79C410.404 365.79 378.404 354.79 334.404 354.79C290.404 354.79 252.404 367.79 237.404 387.79C222.404 407.79 245.566 640.29 254.566 640.29C263.566 640.29 292.566 634.29 323.566 637.29C354.566 640.29 410.566 644.29 414.566 637.29C418.566 630.29 410.404 565.79 410.404 522.79C410.404 479.79 415.404 441.79 419.404 421.79C423.404 401.79 428.404 379.79 419.404 372.79Z" fill="url(#paint12_linear)"/>
<path opacity="0.35" d="M276.566 489.29C285.566 489.29 281.566 565.29 288.566 588.29L289.57 591.564C294.218 606.636 299.829 623.711 302.715 636.466L301.288 636.488C279.491 636.882 261.349 640.29 254.566 640.29C252.261 640.29 249.027 625.04 245.744 602.016L246.064 594.125C246.399 585.387 246.566 579.11 246.566 575.29L246.559 574.083C246.398 561.626 243.866 566.66 253.566 546.29C263.566 525.29 267.566 489.29 276.566 489.29Z" fill="#6B001F"/>
<path d="M374.966 552.79C378.556 552.79 381.466 549.88 381.466 546.29C381.466 542.7 378.556 539.79 374.966 539.79C371.376 539.79 368.466 542.7 368.466 546.29C368.466 549.88 371.376 552.79 374.966 552.79Z" fill="#D4EEFF"/>
<path d="M380.334 598.369C383.924 598.369 386.834 595.459 386.834 591.869C386.834 588.279 383.924 585.369 380.334 585.369C376.744 585.369 373.834 588.279 373.834 591.869C373.834 595.459 376.744 598.369 380.334 598.369Z" fill="#D4EEFF"/>
<path fill-rule="evenodd" clip-rule="evenodd" d="M334.404 354.79C358.215 354.79 378.513 358.012 393.552 362.077C393.966 363.107 394.304 364.178 394.566 365.29C402.566 399.29 386.566 498.29 377.566 506.29C368.746 514.13 333.995 470.108 313.785 442.932L312.566 441.29C299.992 424.316 285.937 399.041 270.399 365.467C288.088 358.675 310.349 354.79 334.404 354.79Z" fill="url(#paint13_linear)"/>
<path fill-rule="evenodd" clip-rule="evenodd" d="M356.007 389.104C356.939 388.988 357.788 389.649 357.905 390.58L358.56 395.868C362.552 428.414 364.45 449.879 364.252 460.374L364.245 460.705L364.215 461.682L364.148 463.183L364.129 463.916C364.031 469.052 364.655 476.028 366.315 488.852L366.827 492.743L367.601 498.47L368.466 504.701C367.264 503.938 365.988 503.015 364.649 501.951L363.912 496.583C361.562 479.261 360.66 470.619 360.721 464.398L360.728 463.941L360.751 463.043L360.818 461.521L360.837 460.968C361.107 451.837 359.546 432.917 356.152 404.299L355.215 396.527L354.531 391.002C354.414 390.07 355.075 389.221 356.007 389.104Z" fill="#77EEEF"/>
<path fill-rule="evenodd" clip-rule="evenodd" d="M357.566 388.29C368.233 396.29 375.566 398.623 379.566 395.29C383.566 391.957 379.233 379.29 366.566 357.29C358.566 368.623 354.566 374.29 354.566 374.29C354.566 374.29 355.566 378.957 357.566 388.29Z" fill="#D4EEFF"/>
<path opacity="0.5" d="M377.566 506.29C375.218 508.377 371.034 506.789 365.775 502.823C368.55 502.564 371.148 501.054 373.566 498.29C380.566 490.29 390.566 439.29 392.566 432.29L392.998 430.813C393.513 429.082 394.175 426.947 394.893 424.654C391.27 462.096 383.096 501.374 377.566 506.29Z" fill="#006A8F"/>
<path fill-rule="evenodd" clip-rule="evenodd" d="M304.566 357.29C321.233 394.623 333.566 410.957 341.566 406.29C349.566 401.623 354.899 395.623 357.566 388.29C342.899 369.623 334.899 360.29 333.566 360.29C332.233 360.29 322.566 359.29 304.566 357.29Z" fill="#D4EEFF"/>
<path opacity="0.5" d="M308.452 356.352L354.566 389.29C318.566 401.957 295.566 406.29 285.566 402.29C273.214 397.349 262.218 378.846 264.305 368C276.675 362.427 291.776 358.408 308.452 356.352Z" fill="#006A8F"/>
<path d="M309.566 289.29C310.899 302.623 310.899 314.957 309.566 326.29C307.566 343.29 303.566 357.29 305.566 358.29C307.566 359.29 349.566 390.29 355.566 388.29C361.566 386.29 365.566 378.29 366.566 371.29C367.566 364.29 367.566 334.29 362.566 318.29C359.233 307.623 341.566 297.957 309.566 289.29Z" fill="#F69482"/>
<path d="M325.566 310.29L364.026 323.965C366.88 337.381 367.362 355.98 366.97 365.899C361.749 367.479 355.337 367.675 348.566 364.29C338.006 359.01 330.386 341.315 325.707 311.206L325.566 310.29Z" fill="#EF7A65"/>
<path d="M270.229 665.2C272.896 672.533 274.229 679.2 274.229 685.2C274.229 694.2 274.135 697 273.135 701C272.135 705 269.229 711.2 265.229 711.2C261.229 711.2 261.229 710.2 258.229 712.2C255.229 714.2 251.135 710 247.135 711C243.135 712 235.229 714.2 233.229 712.2C231.229 710.2 233.229 709.2 237.229 707.2C241.229 705.2 240.229 698.2 238.229 693.2C236.229 688.2 229.229 672.2 231.229 668.2C232.562 665.533 245.562 664.533 270.229 665.2Z" fill="#F69482"/>
<path d="M407.566 228.29C410.232 233.624 411.566 240.29 411.566 248.29C411.566 260.29 411.566 321.29 401.566 332.29C391.566 343.29 338.566 324.29 327.566 316.29C316.566 308.29 300.566 300.29 303.566 274.29C306.566 248.29 308.566 228.29 349.566 223.29C376.899 219.957 396.232 221.624 407.566 228.29Z" fill="url(#paint14_linear)"/>
<path d="M361.868 278.628C364.751 278.628 367.089 276.29 367.089 273.407C367.089 270.524 364.751 268.186 361.868 268.186C358.984 268.186 356.647 270.524 356.647 273.407C356.647 276.29 358.984 278.628 361.868 278.628Z" fill="black"/>
<path d="M401.726 279.913C404.609 279.913 406.947 277.576 406.947 274.693C406.947 271.809 404.609 269.472 401.726 269.472C398.843 269.472 396.505 271.809 396.505 274.693C396.505 277.576 398.843 279.913 401.726 279.913Z" fill="black"/>
<path fill-rule="evenodd" clip-rule="evenodd" d="M241.566 383.29C233.566 391.29 228.566 397.29 220.566 431.29C212.566 465.29 218.566 555.29 215.566 582.29C212.566 609.29 217.566 670.29 225.566 674.29C233.566 678.29 243.566 674.29 251.566 674.29C259.566 674.29 276.566 685.29 276.566 676.29C276.566 667.29 270.566 620.29 270.566 605.29C270.566 590.29 271.566 491.29 283.566 456.29C295.566 421.29 249.566 375.29 241.566 383.29Z" fill="url(#paint15_linear)"/>
<path d="M303.566 271.29C314.233 275.29 320.566 272.957 322.566 264.29C325.566 251.29 319.566 243.29 329.566 238.29C339.566 233.29 344.566 246.29 357.566 238.29C370.566 230.29 371.566 227.29 379.566 230.29C387.566 233.29 390.566 238.29 398.566 234.29C406.566 230.29 407.566 231.29 409.566 234.29C411.566 237.29 406.566 264.29 413.566 264.29C420.566 264.29 433.566 255.29 429.566 238.29C425.566 221.29 419.566 223.29 419.566 211.29C419.566 199.29 415.566 184.29 393.566 178.29C371.566 172.29 377.566 187.29 361.566 182.29C345.566 177.29 338.566 170.29 316.566 176.29C294.566 182.29 302.566 209.29 292.566 211.29C282.566 213.29 274.566 212.29 269.566 223.29C264.566 234.29 269.566 248.29 274.566 255.29C279.566 262.29 281.566 261.29 276.566 271.29C271.566 281.29 266.566 286.29 272.566 292.29C278.566 298.29 287.566 295.29 292.566 302.29C297.566 309.29 295.566 312.29 300.566 315.29C303.9 317.29 307.233 318.623 310.566 319.29C310.627 310.132 310.627 304.132 310.566 301.29C310.309 289.242 308.551 283.245 307.566 280.29C306.233 276.29 304.9 273.29 303.566 271.29Z" fill="url(#paint16_linear)"/>
<path d="M310.566 275.29C306.566 269.957 300.899 268.29 293.566 270.29C282.566 273.29 280.566 298.29 310.566 302.29C330.566 304.957 330.566 295.957 310.566 275.29Z" fill="#F69785"/>
<path d="M495.601 441.874C492.001 437.374 490.713 429.913 488.913 424.513C487.113 419.113 470.401 406.774 474.901 400.474C479.401 394.174 489.301 407.674 492.001 406.774C494.701 405.874 497.401 379.774 503.701 374.374C510.001 368.974 507.301 390.574 508.201 393.274C509.101 395.974 511.801 369.874 518.101 367.174C524.401 364.474 518.101 393.274 518.101 394.174C518.101 395.074 522.601 376.174 527.101 374.374C531.601 372.574 527.101 396.874 527.101 398.674C527.101 400.474 532.501 378.874 536.101 380.674C539.701 382.474 534.301 411.274 532.501 419.374C530.701 427.474 524.401 440.974 519.001 445.474C513.601 449.974 499.201 446.374 495.601 441.874Z" fill="#F69482"/>
<path d="M386.566 257.29C390.566 274.623 392.233 284.29 391.566 286.29C390.899 288.29 388.233 289.623 383.566 290.29" stroke="#E88572" stroke-width="2.16" stroke-linecap="round" stroke-linejoin="round"/>
<path fill-rule="evenodd" clip-rule="evenodd" d="M386.566 301.29L364.566 293.29C365.899 301.957 369.233 306.957 374.566 308.29C379.899 309.623 383.899 307.29 386.566 301.29Z" fill="#F65E73"/>
<path d="M823.566 129.29H498.566C487.52 129.29 478.566 138.244 478.566 149.29V314.29C478.566 325.336 487.52 334.29 498.566 334.29H823.566C834.612 334.29 843.566 325.336 843.566 314.29V149.29C843.566 138.244 834.612 129.29 823.566 129.29Z" fill="url(#paint17_linear)"/>
<path fill-rule="evenodd" clip-rule="evenodd" d="M507.401 224.29C505.559 224.29 504.066 222.797 504.066 220.954C504.066 218.994 505.4 217.285 507.302 216.81L522.066 213.118V173.29C522.066 167.767 526.543 163.29 532.066 163.29H636.066C641.589 163.29 646.066 167.767 646.066 173.29V214.29C646.066 219.813 641.589 224.29 636.066 224.29H507.401Z" fill="url(#paint18_linear)"/>
<path d="M539.066 183.79H608.066" stroke="#FFF1F1" stroke-width="5.12" stroke-linecap="round" stroke-linejoin="round"/>
<path d="M539.066 203.29H576.066" stroke="#FFF1F1" stroke-width="5.12" stroke-linecap="round" stroke-linejoin="round"/>
<path fill-rule="evenodd" clip-rule="evenodd" d="M814.73 300.29C816.573 300.29 818.066 298.797 818.066 296.954C818.066 294.994 816.732 293.285 814.83 292.81L800.066 289.118V249.29C800.066 243.767 795.589 239.29 790.066 239.29H686.066C680.543 239.29 676.066 243.767 676.066 249.29V290.29C676.066 295.813 680.543 300.29 686.066 300.29H814.73Z" fill="url(#paint19_linear)"/>
<path d="M783.066 259.79H714.066" stroke="#FFF1F1" stroke-width="5.12" stroke-linecap="round" stroke-linejoin="round"/>
<path d="M783.066 279.29H746.066" stroke="#FFF1F1" stroke-width="5.12" stroke-linecap="round" stroke-linejoin="round"/>
<path fill-rule="evenodd" clip-rule="evenodd" d="M369.08 94.5615C352.595 82.1818 326.655 64.9453 307.496 62.5079C288.337 60.0704 281.29 81.4091 299.952 102.521C318.614 123.634 342.133 135.29 363.476 134.091C384.82 132.892 385.564 106.941 369.08 94.5615Z" fill="white"/>
<path d="M62.3955 620.215C85.0184 620.215 103.358 601.875 103.358 579.252C103.358 556.63 85.0184 538.29 62.3955 538.29C39.7726 538.29 21.4331 556.63 21.4331 579.252C21.4331 601.875 39.7726 620.215 62.3955 620.215Z" fill="url(#paint20_linear)"/>
<path d="M56.3955 620.215C79.0184 620.215 97.3579 601.875 97.3579 579.252C97.3579 556.63 79.0184 538.29 56.3955 538.29C33.7726 538.29 15.4331 556.63 15.4331 579.252C15.4331 601.875 33.7726 620.215 56.3955 620.215Z" fill="url(#paint21_linear)"/>
<path d="M34.0513 596.126C38.9411 602.125 46.3895 605.957 54.7328 605.957C69.4606 605.957 81.3998 594.018 81.3998 579.29C81.3998 564.562 69.4606 552.623 54.7328 552.623" stroke="white" stroke-width="3" stroke-linecap="round" stroke-linejoin="round"/>
<path d="M595.968 504.286C602.748 521.067 621.847 529.174 638.628 522.394C655.408 515.614 663.516 496.515 656.736 479.735C649.956 462.954 630.857 454.847 614.076 461.627C597.296 468.406 589.189 487.506 595.968 504.286Z" fill="url(#paint22_linear)"/>
<path d="M594.17 499.836C600.95 516.616 620.049 524.723 636.83 517.944C653.61 511.164 661.717 492.065 654.937 475.284C648.158 458.504 629.058 450.396 612.278 457.176C595.497 463.956 587.39 483.055 594.17 499.836Z" fill="url(#paint23_linear)"/>
<path d="M605.342 476.043C602.357 481.468 601.747 488.141 604.247 494.33C608.661 505.254 621.095 510.532 632.019 506.118C642.944 501.705 648.222 489.271 643.808 478.346" stroke="white" stroke-width="2.4" stroke-linecap="round" stroke-linejoin="round"/>
<path fill-rule="evenodd" clip-rule="evenodd" d="M194.335 437.29C185.335 434.29 160.335 424.29 145.335 407.29C130.335 390.29 120.335 372.29 114.335 372.29C108.335 372.29 102.15 380.29 90.1498 386.29C78.1498 392.29 74.1498 388.29 70.1498 393.29C66.1498 398.29 83.3355 433.29 102.335 448.29C121.335 463.29 141.335 486.29 151.335 481.29C161.335 476.29 203.335 440.29 194.335 437.29Z" fill="url(#paint24_linear)"/>
<path fill-rule="evenodd" clip-rule="evenodd" d="M114.336 372.29C116.719 372.29 119.734 375.131 123.442 379.621C120.99 381.294 117.91 382.29 114.566 382.29C110.125 382.29 106.151 380.535 103.491 377.77L105.003 376.672C108.565 374.113 111.471 372.29 114.336 372.29Z" fill="#EEFFE3"/>
<path fill-rule="evenodd" clip-rule="evenodd" d="M79.4209 389.853L79.7125 389.804C79.9438 390.708 80.0658 391.649 80.0658 392.614C80.0658 397.755 76.6059 402.185 71.6219 404.202L71.3525 403.46C69.5714 398.447 69.029 394.691 70.1497 393.29C72.6155 390.208 75.0812 390.546 79.4209 389.853L79.7125 389.804L79.4209 389.853Z" fill="#EEFFE3"/>
<path fill-rule="evenodd" clip-rule="evenodd" d="M182.356 432.762L182.432 432.618C187.39 434.821 191.601 436.379 194.335 437.29C197.407 438.314 194.538 443.181 189.029 449.349C184.318 447.244 181.091 442.942 181.091 437.977C181.091 436.119 181.543 434.354 182.356 432.762L182.432 432.618L182.356 432.762Z" fill="#EEFFE3"/>
<path fill-rule="evenodd" clip-rule="evenodd" d="M147.078 467.738C152.96 467.738 158.024 470.817 160.298 475.243L159.52 475.83C156.06 478.427 153.163 480.376 151.335 481.29C147.062 483.427 140.963 480.451 133.896 475.171C136.188 470.783 141.229 467.738 147.078 467.738Z" fill="#EEFFE3"/>
<path d="M129.066 439.889C137.074 439.889 143.566 434.181 143.566 427.139C143.566 420.097 137.074 414.389 129.066 414.389C121.058 414.389 114.566 420.097 114.566 427.139C114.566 434.181 121.058 439.889 129.066 439.889Z" fill="#EEFFE3"/>
<path d="M162.838 210.771C184.354 217.762 207.463 205.987 214.454 184.472C221.445 162.956 209.67 139.847 188.154 132.856C166.639 125.865 143.53 137.64 136.539 159.156C129.548 180.671 141.323 203.78 162.838 210.771Z" fill="url(#paint25_linear)"/>
<path d="M155.151 208.273C176.666 215.264 199.775 203.49 206.766 181.974C213.757 160.458 201.982 137.349 180.467 130.358C158.951 123.367 135.842 135.142 128.851 156.658C121.86 178.173 133.635 201.282 155.151 208.273Z" fill="url(#paint26_linear)"/>
<path d="M159.212 195.773C173.824 200.521 189.519 192.525 194.266 177.912C199.014 163.3 191.017 147.606 176.405 142.858C161.793 138.111 146.099 146.107 141.351 160.719C136.603 175.331 144.6 191.026 159.212 195.773Z" stroke="white" stroke-width="3" stroke-linecap="round" stroke-linejoin="round"/>
<path d="M172.525 175.377C171.84 176.664 170.822 177.514 169.471 177.927C168.12 178.34 166.63 178.277 165.001 177.737L163.581 180.407L160.721 178.886L162.09 176.311C161.099 175.682 160.239 174.97 159.51 174.175C158.781 173.38 158.226 172.555 157.845 171.7L160.444 169.687C161.434 171.62 162.835 173.069 164.647 174.032C165.616 174.547 166.454 174.764 167.161 174.681C167.868 174.598 168.394 174.231 168.741 173.579C168.952 173.182 168.982 172.78 168.831 172.373C168.681 171.967 168.427 171.572 168.07 171.189L167.807 170.914C167.518 170.621 167.153 170.271 166.711 169.865L166.484 169.657C165.46 168.746 164.651 167.928 164.057 167.205C163.463 166.481 163.067 165.644 162.87 164.693C162.672 163.742 162.865 162.718 163.448 161.621C164.124 160.35 165.162 159.5 166.562 159.072C167.961 158.644 169.468 158.696 171.081 159.228L172.501 156.558L175.362 158.079L173.98 160.677C174.834 161.295 175.584 161.974 176.23 162.715C176.876 163.456 177.33 164.192 177.594 164.923L174.995 166.935C174.005 165.002 172.739 163.626 171.197 162.806C170.339 162.35 169.554 162.167 168.843 162.258C168.132 162.349 167.604 162.72 167.257 163.372C167.021 163.817 166.977 164.262 167.127 164.709C167.277 165.156 167.54 165.581 167.916 165.985C168.209 166.299 168.605 166.687 169.103 167.147L169.556 167.56C170.548 168.455 171.337 169.251 171.924 169.951C172.51 170.65 172.901 171.459 173.095 172.377C173.289 173.296 173.099 174.296 172.525 175.377Z" fill="white"/>
<defs>
<linearGradient id="paint0_linear" x1="809.076" y1="-33.0236" x2="497.19" y2="588.766" gradientUnits="userSpaceOnUse">
<stop stop-color="#49E9FB"/>
<stop offset="0.49216" stop-color="#563CC9"/>
<stop offset="1" stop-color="#450B7C"/>
</linearGradient>
<linearGradient id="paint1_linear" x1="794.834" y1="-148.374" x2="48.9626" y2="880.714" gradientUnits="userSpaceOnUse">
<stop stop-color="#49E9FB"/>
<stop offset="0.535966" stop-color="#563CC9"/>
<stop offset="1" stop-color="#450B7C"/>
</linearGradient>
<linearGradient id="paint2_linear" x1="172.685" y1="290.089" x2="-102.264" y2="541.049" gradientUnits="userSpaceOnUse">
<stop stop-color="#49E9FB"/>
<stop offset="0.49216" stop-color="#563CC9"/>
<stop offset="1" stop-color="#450B7C"/>
</linearGradient>
<linearGradient id="paint3_linear" x1="138.529" y1="534.856" x2="158.917" y2="559.774" gradientUnits="userSpaceOnUse">
<stop stop-color="#9CB3FF"/>
<stop offset="1" stop-color="#B0FFE9"/>
</linearGradient>
<linearGradient id="paint4_linear" x1="405.916" y1="85.2256" x2="425.066" y2="106.987" gradientUnits="userSpaceOnUse">
<stop stop-color="#59DBB0"/>
<stop offset="1" stop-color="#FEFFB5"/>
</linearGradient>
<linearGradient id="paint5_linear" x1="220.566" y1="313.29" x2="230.004" y2="325.056" gradientUnits="userSpaceOnUse">
<stop stop-color="#FF8989"/>
<stop offset="1" stop-color="#FFDDC5"/>
</linearGradient>
<linearGradient id="paint6_linear" x1="120.566" y1="663.29" x2="130.004" y2="675.056" gradientUnits="userSpaceOnUse">
<stop stop-color="#FF8989"/>
<stop offset="1" stop-color="#FFDDC5"/>
</linearGradient>
<linearGradient id="paint7_linear" x1="648.777" y1="383.617" x2="660.332" y2="396.747" gradientUnits="userSpaceOnUse">
<stop stop-color="#FFAF73"/>
<stop offset="1" stop-color="#FFFECC"/>
</linearGradient>
<linearGradient id="paint8_linear" x1="458.777" y1="613.617" x2="470.332" y2="626.747" gradientUnits="userSpaceOnUse">
<stop stop-color="#FFAF73"/>
<stop offset="1" stop-color="#FFFECC"/>
</linearGradient>
<linearGradient id="paint9_linear" x1="531.307" y1="623.254" x2="607.711" y2="570.842" gradientUnits="userSpaceOnUse">
<stop stop-color="#FF815E"/>
<stop offset="1" stop-color="#FF9C34"/>
</linearGradient>
<linearGradient id="paint10_linear" x1="171.694" y1="860.995" x2="287.608" y2="662.677" gradientUnits="userSpaceOnUse">
<stop stop-color="#DC53FF"/>
<stop offset="1" stop-color="#7F63FF"/>
</linearGradient>
<linearGradient id="paint11_linear" x1="450.282" y1="311.931" x2="576.505" y2="749.906" gradientUnits="userSpaceOnUse">
<stop stop-color="#FF8FCA"/>
<stop offset="1" stop-color="#DC5761"/>
</linearGradient>
<linearGradient id="paint12_linear" x1="328.46" y1="355.092" x2="328.46" y2="641.18" gradientUnits="userSpaceOnUse">
<stop stop-color="#FF8FCA"/>
<stop offset="1" stop-color="#DC5761"/>
</linearGradient>
<linearGradient id="paint13_linear" x1="333.569" y1="541.329" x2="441.295" y2="154.787" gradientUnits="userSpaceOnUse">
<stop stop-color="#57F4E0"/>
<stop offset="1" stop-color="#399FCD"/>
</linearGradient>
<linearGradient id="paint14_linear" x1="427" y1="175" x2="335.289" y2="334.572" gradientUnits="userSpaceOnUse">
<stop stop-color="#FCDABB"/>
<stop offset="0.340111" stop-color="#FCB9AC"/>
<stop offset="1" stop-color="#F48C79"/>
</linearGradient>
<linearGradient id="paint15_linear" x1="255.052" y1="348.825" x2="173.42" y2="659.69" gradientUnits="userSpaceOnUse">
<stop stop-color="#FF8FCA"/>
<stop offset="1" stop-color="#DC5761"/>
</linearGradient>
<linearGradient id="paint16_linear" x1="752.683" y1="78.6208" x2="276.457" y2="294.049" gradientUnits="userSpaceOnUse">
<stop stop-color="#A77F99"/>
<stop offset="1" stop-color="#6F3359"/>
</linearGradient>
<linearGradient id="paint17_linear" x1="919.235" y1="199.457" x2="343.704" y2="402.099" gradientUnits="userSpaceOnUse">
<stop stop-color="#80BCFB"/>
<stop offset="1" stop-color="#C47DFF"/>
</linearGradient>
<linearGradient id="paint18_linear" x1="506.616" y1="186.856" x2="660.452" y2="266.439" gradientUnits="userSpaceOnUse">
<stop stop-color="#59DBB0"/>
<stop offset="1" stop-color="#FEFFB5"/>
</linearGradient>
<linearGradient id="paint19_linear" x1="818.066" y1="264.162" x2="654" y2="336.093" gradientUnits="userSpaceOnUse">
<stop stop-color="#FFA8E8"/>
<stop offset="1" stop-color="#FFE6E6"/>
</linearGradient>
<linearGradient id="paint20_linear" x1="21.4331" y1="538.29" x2="87.1494" y2="620.215" gradientUnits="userSpaceOnUse">
<stop stop-color="#FF8989"/>
<stop offset="1" stop-color="#FFDDC5"/>
</linearGradient>
<linearGradient id="paint21_linear" x1="16.9042" y1="528.79" x2="97.3579" y2="620.215" gradientUnits="userSpaceOnUse">
<stop stop-color="#FFAF73"/>
<stop offset="1" stop-color="#FFFECC"/>
</linearGradient>
<linearGradient id="paint22_linear" x1="644.46" y1="449.351" x2="603.387" y2="522.647" gradientUnits="userSpaceOnUse">
<stop stop-color="#FF8989"/>
<stop offset="1" stop-color="#FFDDC5"/>
</linearGradient>
<linearGradient id="paint23_linear" x1="650.149" y1="443.145" x2="606.446" y2="530.219" gradientUnits="userSpaceOnUse">
<stop stop-color="#FFAF73"/>
<stop offset="1" stop-color="#FFFECC"/>
</linearGradient>
<linearGradient id="paint24_linear" x1="71.8289" y1="375.943" x2="180.759" y2="483.691" gradientUnits="userSpaceOnUse">
<stop stop-color="#59DBB0"/>
<stop offset="1" stop-color="#FEFFB5"/>
</linearGradient>
<linearGradient id="paint25_linear" x1="149.197" y1="120.198" x2="186.381" y2="218.421" gradientUnits="userSpaceOnUse">
<stop stop-color="#FF8989"/>
<stop offset="1" stop-color="#FFDDC5"/>
</linearGradient>
<linearGradient id="paint26_linear" x1="145.844" y1="109.12" x2="194.108" y2="220.931" gradientUnits="userSpaceOnUse">
<stop stop-color="#FFAF73"/>
<stop offset="1" stop-color="#FFFECC"/>
</linearGradient>
</defs>
</svg>
