<?xml version="1.0" encoding="utf-8"?>
<!-- Generator: Adobe Illustrator 24.0.2, SVG Export Plug-In . SVG Version: 6.00 Build 0)  -->
<svg version="1.1" id="Layer_1" xmlns="http://www.w3.org/2000/svg" xmlns:xlink="http://www.w3.org/1999/xlink" x="0px" y="0px"
	 viewBox="0 0 183.7 187.1" style="enable-background:new 0 0 183.7 187.1;" xml:space="preserve">
<style type="text/css">
	.st0{fill:url(#SVGID_1_);}
	.st1{fill:url(#SVGID_2_);}
	.st2{fill:none;stroke:#FF934A;stroke-width:3;stroke-miterlimit:10;}
	.st3{fill:#FF934A;}
</style>
<linearGradient id="SVGID_1_" gradientUnits="userSpaceOnUse" x1="48.6801" y1="206.7757" x2="126.6978" y2="0.6885" gradientTransform="matrix(1 0 0 -1 0 184.9388)">
	<stop  offset="0" style="stop-color:#FF8989"/>
	<stop  offset="1" style="stop-color:#FFDDC5"/>
</linearGradient>
<path class="st0" d="M64.9,172.9c45.1,14.7,93.6-10,108.3-55.2c14.7-45.1-10-93.6-55.2-108.3C72.9-5.3,24.4,19.5,9.7,64.6
	C-5,109.7,19.8,158.2,64.9,172.9z"/>
<linearGradient id="SVGID_2_" gradientUnits="userSpaceOnUse" x1="60.067" y1="163.27" x2="118.5293" y2="27.833" gradientTransform="matrix(1 0 0 -1 0 184.9388)">
	<stop  offset="0" style="stop-color:#FFAF73"/>
	<stop  offset="1" style="stop-color:#FFFECC"/>
</linearGradient>
<path class="st1" d="M75.4,140c26.1,8.5,54.1-5.8,62.5-31.9c8.5-26.1-5.8-54.1-31.9-62.5C80,37.2,52.1,51.4,43.6,77.5
	C35.1,103.5,49.4,131.5,75.4,140z"/>
<path class="st2" d="M80.4,124.9c17.7,5.8,36.7-3.9,42.5-21.6c5.8-17.7-3.9-36.7-21.6-42.5C83.5,55,64.5,64.7,58.7,82.4
	S62.7,119.1,80.4,124.9z"/>
<path class="st3" d="M96.5,100.2c-0.8,1.6-2.1,2.6-3.7,3.1c-1.6,0.5-3.4,0.4-5.4-0.2l-1.7,3.2l-3.5-1.8l1.7-3.1
	c-1.2-0.8-2.2-1.6-3.1-2.6c-0.9-1-1.6-2-2-3l3.1-2.4c1.2,2.3,2.9,4.1,5.1,5.3c1.2,0.6,2.2,0.9,3,0.8c0.9-0.1,1.5-0.5,1.9-1.3
	c0.3-0.5,0.3-1,0.1-1.5c-0.2-0.5-0.5-1-0.9-1.4l-0.3-0.3c-0.4-0.4-0.8-0.8-1.3-1.3l-0.3-0.3c-1.2-1.1-2.2-2.1-2.9-3
	c-0.7-0.9-1.2-1.9-1.4-3c-0.2-1.2,0-2.4,0.7-3.7c0.8-1.5,2.1-2.6,3.8-3.1c1.7-0.5,3.5-0.5,5.5,0.2l1.7-3.2l3.5,1.8l-1.7,3.1
	c1,0.7,1.9,1.6,2.7,2.5c0.8,0.9,1.3,1.8,1.7,2.7l-3.1,2.4c-1.2-2.3-2.7-4-4.6-5c-1-0.6-2-0.8-2.9-0.7c-0.9,0.1-1.5,0.6-1.9,1.3
	c-0.3,0.5-0.3,1.1-0.2,1.6c0.2,0.5,0.5,1.1,1,1.5c0.4,0.4,0.8,0.9,1.4,1.4l0.5,0.5c1.2,1.1,2.2,2,2.9,2.9c0.7,0.8,1.2,1.8,1.4,2.9
	C97.4,97.6,97.2,98.8,96.5,100.2z"/>
</svg>
