<?xml version="1.0" encoding="utf-8"?>
<!-- Generator: Adobe Illustrator 24.0.2, SVG Export Plug-In . SVG Version: 6.00 Build 0)  -->
<svg version="1.1" id="Layer_1" xmlns="http://www.w3.org/2000/svg" xmlns:xlink="http://www.w3.org/1999/xlink" x="0px" y="0px"
	 viewBox="0 0 183.7 187.1" style="enable-background:new 0 0 183.7 187.1;" xml:space="preserve">
<style type="text/css">
	.st0{fill:url(#SVGID_1_);}
	.st1{fill-rule:evenodd;clip-rule:evenodd;fill:url(#SVGID_2_);}
	.st2{fill:url(#SVGID_3_);}
	.st3{fill:url(#SVGID_4_);}
</style>
<linearGradient id="SVGID_1_" gradientUnits="userSpaceOnUse" x1="2.913" y1="193.1584" x2="173.376" y2="3.9754" gradientTransform="matrix(1 0 0 -1 0 184.9388)">
	<stop  offset="0" style="stop-color:#59DBB0"/>
	<stop  offset="1" style="stop-color:#FEFFB5"/>
</linearGradient>
<path class="st0" d="M92.5,177.7c46.7,0,84.5-38.8,84.5-86.6S139.1,4.6,92.5,4.6C45.8,4.6,7.9,43.4,7.9,91.2S45.8,177.7,92.5,177.7z
	"/>
<linearGradient id="SVGID_2_" gradientUnits="userSpaceOnUse" x1="130.3466" y1="114.7302" x2="108.2366" y2="78.7132" gradientTransform="matrix(1 0 0 -1 0 184.9388)">
	<stop  offset="0" style="stop-color:#69BED3"/>
	<stop  offset="0.4601" style="stop-color:#79AFDA"/>
	<stop  offset="1" style="stop-color:#A786EF"/>
</linearGradient>
<path class="st1" d="M105.5,81.6l11.2-5.7c5.1-2.6,11.4-0.5,14,4.8c0.7,1.5,1.1,3.1,1.1,4.8v11.5c0,5.9-4.7,10.6-10.4,10.6
	c-1.6,0-3.2-0.4-4.7-1.1l-11.2-5.7c-5.1-2.6-7.2-9-4.7-14.3C101.8,84.3,103.5,82.7,105.5,81.6z"/>
<linearGradient id="SVGID_3_" gradientUnits="userSpaceOnUse" x1="109.1455" y1="119.6864" x2="49.1315" y2="66.2464" gradientTransform="matrix(1 0 0 -1 0 184.9388)">
	<stop  offset="0" style="stop-color:#69BED3"/>
	<stop  offset="0.4601" style="stop-color:#79AFDA"/>
	<stop  offset="1" style="stop-color:#A786EF"/>
</linearGradient>
<path class="st2" d="M99.3,64.9H60.9c-4.4,0-8,3.6-8,8v36.4c0,4.4,3.6,8,8,8h38.4c4.4,0,8-3.6,8-8V72.9
	C107.3,68.5,103.7,64.9,99.3,64.9z"/>
<linearGradient id="SVGID_4_" gradientUnits="userSpaceOnUse" x1="120.5993" y1="145.0963" x2="105.0883" y2="130.4223" gradientTransform="matrix(1 0 0 -1 0 184.9388)">
	<stop  offset="0" style="stop-color:#69BED3"/>
	<stop  offset="0.4601" style="stop-color:#79AFDA"/>
	<stop  offset="1" style="stop-color:#A786EF"/>
</linearGradient>
<path class="st3" d="M113,53.9c3.7,0,6.7-3.1,6.7-6.8c0-3.8-3-6.8-6.7-6.8c-3.7,0-6.7,3.1-6.7,6.8C106.3,50.8,109.3,53.9,113,53.9z"
	/>
</svg>
