<?xml version="1.0" encoding="utf-8"?>
<!-- Generator: Adobe Illustrator 24.0.2, SVG Export Plug-In . SVG Version: 6.00 Build 0)  -->
<svg version="1.1" id="Layer_1" xmlns="http://www.w3.org/2000/svg" xmlns:xlink="http://www.w3.org/1999/xlink" x="0px" y="0px"
	 viewBox="0 0 183.7 187.1" style="enable-background:new 0 0 183.7 187.1;" xml:space="preserve">
<style type="text/css">
	.st0{fill:url(#SVGID_1_);}
	.st1{fill:url(#SVGID_2_);}
	.st2{fill:url(#SVGID_3_);}
	.st3{fill:url(#SVGID_4_);}
	.st4{fill:url(#SVGID_5_);}
</style>
<linearGradient id="SVGID_1_" gradientUnits="userSpaceOnUse" x1="22.449" y1="173.7652" x2="205.1462" y2="-44.3127" gradientTransform="matrix(1 0 0 -1 0 184.9388)">
	<stop  offset="0" style="stop-color:#DCA6FE"/>
	<stop  offset="1" style="stop-color:#F6E9FF"/>
</linearGradient>
<path class="st0" d="M89.5,178.1c46.9,0,85-38.9,85-87c0-48-38-87-85-87c-46.9,0-85,38.9-85,87C4.5,139.2,42.5,178.1,89.5,178.1z"/>
<g>
	<g>
		<g>
			<linearGradient id="SVGID_2_" gradientUnits="userSpaceOnUse" x1="124.6318" y1="108.6334" x2="130.2517" y2="108.6334">
				<stop  offset="0" style="stop-color:#A640FF"/>
				<stop  offset="1" style="stop-color:#C573FF"/>
			</linearGradient>
			<path class="st1" d="M127,105c-0.7,0.8-1.5,1.6-2.4,2.2v9.3h1.2c2.5,0,4.4-2,4.5-4.4v-11.3L127,105z"/>
		</g>
	</g>
</g>
<g>
	<g>
		<g>
			<linearGradient id="SVGID_3_" gradientUnits="userSpaceOnUse" x1="48.6599" y1="96.9046" x2="120.469" y2="96.9046">
				<stop  offset="0" style="stop-color:#A640FF"/>
				<stop  offset="1" style="stop-color:#C573FF"/>
			</linearGradient>
			<path class="st2" d="M107.4,85h12c0.4,0,0.7,0,1.1-0.1V73c0-2.5-2-4.4-4.4-4.4H53.1c-2.5,0-4.4,2-4.5,4.4v47.7
				c0,2.5,2,4.5,4.5,4.5H116c2.5,0,4.4-2,4.4-4.5l0-12.1c-0.4,0-0.7,0.1-1.1,0.1h-12c-6.5,0-11.8-5.3-11.8-11.9S100.8,85,107.4,85z"
				/>
		</g>
	</g>
</g>
<g>
	<g>
		<g>
			<linearGradient id="SVGID_4_" gradientUnits="userSpaceOnUse" x1="58.4426" y1="70.7827" x2="130.2517" y2="70.7827">
				<stop  offset="0" style="stop-color:#A640FF"/>
				<stop  offset="1" style="stop-color:#C573FF"/>
			</linearGradient>
			<path class="st3" d="M125.8,59.9H62.9c-2.5,0-4.4,2-4.4,4.5v0.1H116c4.7,0,8.6,3.8,8.6,8.6v8.7l5.6-7.2V64.3
				C130.2,61.9,128.3,59.9,125.8,59.9z"/>
		</g>
	</g>
</g>
<g>
	<g>
		<g>
			<linearGradient id="SVGID_5_" gradientUnits="userSpaceOnUse" x1="99.6756" y1="92.9395" x2="130.2517" y2="92.9395">
				<stop  offset="0" style="stop-color:#A640FF"/>
				<stop  offset="1" style="stop-color:#C573FF"/>
			</linearGradient>
			<path class="st4" d="M130.2,81.3l-3.2,4.2c-0.9,1.2-2.1,2.2-3.5,2.8c-1.3,0.6-2.7,0.9-4.1,0.9h-12c-4.2,0-7.7,3.5-7.7,7.7
				s3.4,7.7,7.7,7.7h12c1.7,0,3.3-0.8,4.4-2.2l6.5-8.5L130.2,81.3z M112,99h-5c-1.1,0-2.1-0.9-2.1-2.1s0.9-2.1,2.1-2.1h5
				c1.1,0,2.1,0.9,2.1,2.1S113.2,99,112,99z"/>
		</g>
	</g>
</g>
</svg>
