<svg width="803" height="893" viewBox="0 0 803 893" fill="none" xmlns="http://www.w3.org/2000/svg">
<path d="M144.001 213C239.001 124 250.402 88.2737 163.615 -10.0002H458.562C452.084 4.20464 684.154 -27.8468 668.105 -10.0002L1031 -10.0002V739.923C1028.4 744.879 1025.54 750.93 1022.32 757.731L1022.31 757.762C994.672 816.259 940.86 930.158 798 880C724.871 854.325 725.956 800.983 726.946 752.293C727.282 735.733 727.608 719.712 725 705.5C710.593 627 658 604.5 594.5 617C567.643 622.287 553.04 644.128 536.125 669.425C513.048 703.939 485.67 744.887 417 759C216.001 800.31 118.321 770.192 43.4999 683.5C-49.2663 576.016 20.7173 345.914 144.001 213Z" fill="url(#paint0_linear)"/>
<defs>
<linearGradient id="paint0_linear" x1="1291.18" y1="-204.742" x2="-461.061" y2="1563.77" gradientUnits="userSpaceOnUse">
<stop stop-color="#49E9FB"/>
<stop offset="0.49241" stop-color="#563CC9"/>
<stop offset="1" stop-color="#450B7C"/>
</linearGradient>
</defs>
</svg>
