<svg width="759" height="703" viewBox="0 0 759 703" fill="none" xmlns="http://www.w3.org/2000/svg">
<path fill-rule="evenodd" clip-rule="evenodd" d="M730.725 299.051C731.802 299.051 732.675 299.945 732.675 301.048V307.038H738.525C739.553 307.038 740.395 307.852 740.47 308.885L740.475 309.034C740.475 310.137 739.602 311.031 738.525 311.031H732.675V317.021C732.675 318.074 731.88 318.936 730.871 319.012L730.725 319.018C729.648 319.018 728.775 318.124 728.775 317.021V311.031H722.925C721.897 311.031 721.055 310.217 720.98 309.183L720.975 309.034C720.975 307.932 721.848 307.038 722.925 307.038H728.775V301.048C728.775 299.995 729.571 299.133 730.58 299.057L730.725 299.051Z" fill="url(#paint0_linear)"/>
<path fill-rule="evenodd" clip-rule="evenodd" d="M170.726 189.051C171.803 189.051 172.676 189.945 172.676 191.048V197.038H178.526C179.554 197.038 180.396 197.852 180.47 198.885L180.476 199.034C180.476 200.137 179.603 201.031 178.526 201.031H172.676V207.021C172.676 208.073 171.88 208.936 170.871 209.012L170.726 209.017C169.649 209.017 168.776 208.123 168.776 207.021V201.031H162.926C161.898 201.031 161.055 200.216 160.981 199.183L160.976 199.034C160.976 197.931 161.849 197.038 162.926 197.038H168.776V191.048C168.776 189.995 169.571 189.133 170.58 189.056L170.726 189.051Z" fill="url(#paint1_linear)"/>
<path d="M265 22C271.075 22 276 17.0751 276 11C276 4.92487 271.075 0 265 0C258.925 0 254 4.92487 254 11C254 17.0751 258.925 22 265 22Z" fill="url(#paint2_linear)"/>
<path d="M308.75 699.184C284.478 701.623 262.084 702.615 241.322 702.205C236.409 657.888 232.25 618.306 232.25 613.011C232.25 609.996 232.042 602.935 231.777 593.915C230.942 565.478 229.534 517.565 232.25 515.528C235.827 512.845 279.65 504.796 294.854 504.796C307.017 504.796 345.831 496.449 363.718 492.275C370.873 504.2 385.897 530.911 388.759 542.358C390.234 548.256 394.465 615.46 398.649 685.289C376.741 689.674 356.077 693.194 336.55 695.869L332.385 657.747C332.385 657.747 324.783 597.379 318.523 595.591C312.263 593.802 308.269 635.996 308.269 647.443C308.269 649.562 308.34 656.741 308.443 667.114C308.531 675.893 308.641 686.961 308.75 699.184Z" fill="url(#paint3_linear)"/>
<path d="M193.793 568.741C193.793 564.448 189.023 545.19 187.085 536.545L218.387 557.115C217.791 562.63 216.688 574.286 217.046 576.79C217.493 579.92 218.387 585.734 218.387 591.547C218.387 597.36 217.046 600.49 214.81 601.385C212.574 602.279 211.68 596.019 211.233 591.547C210.785 587.075 209.444 583.498 207.208 583.498C204.972 583.498 206.314 592.441 207.208 597.807C208.102 603.173 217.94 611.222 214.81 614.353C211.68 617.483 202.736 606.751 199.159 603.173C195.582 599.596 190.663 589.758 191.11 585.734C191.557 581.709 193.793 574.107 193.793 568.741Z" fill="#FCB8AC"/>
<path d="M190.216 570.083C189.142 569.367 188.278 562.928 187.98 559.798L217.94 566.952C218.089 568.89 218.298 572.944 217.94 573.66C217.493 574.554 206.314 573.213 203.631 572.766C200.948 572.318 191.557 570.977 190.216 570.083Z" fill="#F4EAEA"/>
<path d="M283.979 289.741C300.331 291.073 352.669 283.67 368.905 288.133C374.528 296.218 380.398 516.087 378.843 518.652C377.289 521.218 374.614 521 364.7 521.538C354.786 522.077 347.546 522.833 330.811 529.994C314.076 537.156 295.031 539.642 272.099 529.25C249.166 518.858 231.24 524.128 222.507 521.173C213.775 518.219 207.929 331.103 221.187 311.545C234.445 291.987 266.152 288.289 283.979 289.741Z" fill="#F4EAEA"/>
<path d="M280.712 329.854C274.236 330.044 266.751 317.65 263.818 311.429L266.773 302.696L304.257 310.685C299.107 316.995 287.188 329.663 280.712 329.854Z" fill="#E0CACA"/>
<path d="M322.188 327.399C318.295 326.723 310.329 320.601 306.833 317.624L326.558 301.285C331.292 303.764 340.818 309.086 341.059 310.542C341.359 312.361 356.393 507.851 344.194 497.885C331.995 487.918 330.267 338.376 330.184 333.883C330.102 329.39 327.054 328.244 322.188 327.399Z" fill="#E0CACA"/>
<path d="M282.283 470.73C282.748 465.026 296.803 369.15 300.458 324.283L310.626 320.625C310.936 327.829 311.527 345.913 311.406 360.619C311.255 379.001 311.062 469.934 310.626 475.282C310.191 480.631 305.572 493.265 300.151 493.721C294.73 494.177 281.702 477.862 282.283 470.73Z" fill="url(#paint4_linear)"/>
<path d="M295.523 308.627C296.294 307.972 308.578 306.251 313.195 306.478C315.266 308.59 318.729 314.555 318.227 316.309C317.6 318.501 308.706 328.544 305.55 328.736C302.394 328.928 292.941 318.287 292.532 317.805C292.122 317.323 294.559 309.446 295.523 308.627Z" fill="url(#paint5_linear)"/>
<path d="M305.149 310.757C295.218 302.321 279.75 292.088 275.475 289.497L271.836 290.098C270.01 299.67 273.553 318.592 278.582 322.95C283.611 327.308 296.815 315.761 305.149 310.757Z" fill="#F4EAEA"/>
<path opacity="0.5" d="M262.646 320.306C275.038 322.392 295.823 315.082 304.667 311.167C295.851 303.719 277.686 288.78 275.547 288.606C272.873 288.388 257.128 288.9 251.008 292.439C244.887 295.979 247.156 317.699 262.646 320.306Z" fill="#5B6569"/>
<path d="M330.646 322.704C324.978 326.191 310.531 316.28 305.149 310.757L307.403 305.108L329.466 287.613L334.887 287.158C335.104 297.345 336.314 319.218 330.646 322.704Z" fill="#F4EAEA"/>
<path d="M274.065 290.28L279.438 224.317L328.682 225.636L330.358 287.686C324.492 295.434 311.328 310.902 305.594 310.794C299.86 310.686 282.186 297.073 274.065 290.28Z" fill="url(#paint6_linear)"/>
<path d="M277.689 262.31C268.585 255.107 264.13 239.67 263.04 232.851L309.781 226.339L325.814 260.845C313.566 264.334 286.793 269.512 277.689 262.31Z" fill="url(#paint7_linear)"/>
<path d="M256.496 208.54C265.998 206.442 267.248 212.406 268.54 214.904C278.464 219.75 299.916 237.29 276.421 239.324C247.051 241.867 244.617 211.162 256.496 208.54Z" fill="url(#paint8_linear)"/>
<path d="M363.835 218.18C354.797 214.572 353.018 219.392 351.339 221.648C340.761 224.825 320.491 238.069 343.347 243.879C372.027 249.804 375.133 222.689 363.835 218.18Z" fill="url(#paint9_linear)"/>
<path d="M274.421 285.905L277.354 249.89L322.004 269.06C319.988 275.793 305.16 289.547 274.421 285.905Z" fill="#F39793"/>
<path d="M349.496 195.925C347.05 190.701 347.389 181.397 347.865 177.398C349.729 174.708 355.052 168.472 361.433 165.043C369.409 160.758 374.348 160.711 374.286 166.987C374.223 173.263 369.113 180.923 375.498 179.648C381.883 178.374 377.7 185.66 374.191 195.693C370.682 205.727 361.088 218.853 360.606 219.263C360.606 219.263 349.765 220.174 349.319 220.138C348.873 220.102 352.554 202.455 349.496 195.925Z" fill="url(#paint10_linear)"/>
<path d="M510.965 227.281C507.536 223.432 506.033 216.83 504.169 212.092C502.306 207.355 486.797 197.127 490.517 191.287C494.238 185.448 503.719 197.035 506.087 196.104C508.456 195.172 509.632 171.735 515.002 166.614C520.373 161.493 518.985 180.911 519.916 183.28C520.848 185.649 522.023 162.211 527.522 159.502C533.021 156.792 528.758 182.811 528.8 183.615C528.843 184.419 531.967 167.326 535.901 165.506C539.834 163.685 536.966 185.6 537.051 187.208C537.137 188.815 540.936 169.269 544.237 170.706C547.537 172.143 544.078 198.12 542.854 205.439C541.63 212.758 536.643 225.113 532.033 229.388C527.424 233.662 514.393 231.129 510.965 227.281Z" fill="#FCB8AC"/>
<path d="M309.172 277.885C272.774 275.279 264.406 228.925 264.772 206.073C267.458 173.092 281.674 169.315 315.801 168.954C349.928 168.593 355.416 183.845 356.327 194.687C357.239 205.529 354.669 281.142 309.172 277.885Z" fill="url(#paint11_linear)"/>
<path d="M516.679 214.477C509.729 211.668 501.862 214.617 500.898 215.435C500.136 216.083 501.207 222.194 501.859 225.276C505.693 226.073 514.484 228.207 518.974 230.367C523.464 232.527 530.833 237.166 533.956 239.215C534.953 236.155 536.797 229.665 536.2 228.181C535.454 226.326 523.628 217.287 516.679 214.477Z" fill="#F4EAEA"/>
<path d="M294.46 254.703C295.443 257.325 299.206 262.537 306.395 262.404" stroke="#C57256" stroke-width="2.88" stroke-linecap="round" stroke-linejoin="round"/>
<path d="M311.445 222.437C313.004 228.995 315.887 242.809 314.942 245.603C313.996 248.398 309.351 248.139 307.147 247.66" stroke="#ECA08B" stroke-width="2.16" stroke-linecap="round" stroke-linejoin="round"/>
<path d="M273.22 195.994C271.068 204.792 266.947 210.588 265.155 212.386L258.652 209.613C257.444 206.075 254.953 197.736 254.646 192.686C254.263 186.374 250.901 156.041 285.044 144.465C322.981 135.89 326.639 146.058 340.466 152.568C354.292 159.078 359.475 150.527 363.041 150.818C366.606 151.108 370.472 153.217 364.89 166.671C359.308 180.124 353.705 182.809 334.141 186.15C314.577 189.492 301.787 181.272 292.355 181.401C282.923 181.53 275.911 184.997 273.22 195.994Z" fill="url(#paint12_linear)"/>
<path d="M402.115 293.531C389.926 288.949 365.24 287.237 362.293 286.698L369.084 359.018C400.863 367.289 490.826 397.485 502.61 376.192C517.34 349.575 537.386 246.672 535.92 237.131C534.644 228.827 512.476 210.995 500.872 221.266C499.501 222.478 498.812 236.48 496.792 243.814C486.218 268.975 481.686 308.087 470.974 318.431C466.191 323.049 417.351 299.258 402.115 293.531Z" fill="url(#paint13_linear)"/>
<path d="M449.773 379.929C446.292 377.93 442.707 375.449 439.603 373.301C437.594 371.91 435.787 370.66 434.34 369.769C428.527 366.192 424.055 364.85 412.429 362.167C405.251 360.511 394.837 354.765 387.496 350.715C382.945 348.204 379.576 346.345 378.891 346.516C377.551 346.851 380.288 357.402 382.11 363.639C402.26 369.385 428.036 376.549 449.773 379.929Z" fill="#5F1F47"/>
<path d="M201.955 325.949C208.302 309.597 222.336 303.349 228.56 302.269L235.743 374.645L239.404 468.575L219.77 570.751L187.533 564.717C183.855 559.572 179.521 555.265 179.521 520.769C179.521 493.03 181.004 482.765 184.1 441.265C186.6 407.765 194.022 346.389 201.955 325.949Z" fill="url(#paint14_linear)"/>
<path d="M238.177 437.088L239.404 468.575L219.77 570.751L206.954 568.352C206.826 557.953 208.093 545.891 210.308 539.247C214.332 527.173 215.227 493.188 210.308 471.724C206.373 454.553 211.947 425.218 215.227 412.698L234.902 421.194L238.177 437.088Z" fill="#5F1F47"/>
<path d="M339.064 413.046C337.734 385.301 332.158 316.995 330.394 287.24C338.545 286.46 353.759 286.18 364.072 286.888C369.778 287.28 379.332 288.409 380.011 289.487C381.602 292.011 391.472 332.603 392.642 371.273C393.226 390.567 386.796 409.998 385.757 422.756C386.481 452.426 394.312 497.607 399.908 511.522C405.505 525.438 407.775 549.49 399.908 552.439C392.041 555.387 348.036 557.655 344.459 553.408C340.882 549.16 340.725 447.728 339.064 413.046Z" fill="url(#paint15_linear)"/>
<path d="M264.475 424.542C264.158 397.597 272.701 321.723 272.837 288.833C258.575 287.672 220.684 301.186 215.911 310.219C211.137 319.252 214.937 359.472 212.991 410.909C212.044 435.937 219.718 479.33 223.423 508.839C227.333 539.977 222.558 550.474 223.423 554C225.107 560.867 238.659 559.727 253.73 556.468C268.801 553.209 283.11 559.31 290.122 555.843C297.134 552.376 264.873 458.224 264.475 424.542Z" fill="url(#paint16_linear)"/>
<circle cx="292.099" cy="223.105" r="5.36605" transform="rotate(4.65642 292.099 223.105)" fill="url(#paint17_linear)"/>
<circle cx="330.429" cy="226.227" r="5.36605" transform="rotate(4.65642 330.429 226.227)" fill="url(#paint18_linear)"/>
<path d="M265.076 428.181C264.041 414.457 270.77 328.894 273.765 288.46C261.213 288.335 241.503 293.46 238.539 296.808C233.755 300.456 244.595 338.128 245.978 343.176C247.362 348.224 235.14 366.072 231.651 386.874C228.86 403.516 265.535 481.308 283.957 515.86C278.271 493.861 266.112 441.904 265.076 428.181Z" fill="url(#paint19_linear)"/>
<path opacity="0.5" d="M256.619 290.417C254.414 290.944 252.445 291.608 251.008 292.439C244.887 295.979 247.156 317.699 262.646 320.306C265.246 320.744 268.215 320.768 271.365 320.497C271.745 315.407 272.115 310.485 272.465 305.826C272.94 299.511 273.378 293.678 273.757 288.563C271.322 288.574 267.163 288.767 262.919 289.307C260.815 289.614 258.691 289.99 256.619 290.417Z" fill="#5B6569"/>
<path d="M337.906 431.869C337.613 417.847 332.194 329.411 329.985 286.758L352.451 286.345C361.986 301.478 351.672 334.467 351.033 342.311C350.235 352.116 360.822 354.324 363.583 381.02C365.792 402.376 348.427 467.431 341.329 497.66C339.07 481.324 338.2 445.891 337.906 431.869Z" fill="url(#paint20_linear)"/>
<path d="M423.053 143.692C452.905 143.692 477.105 118.913 477.105 88.3461C477.105 57.7794 452.905 33.0002 423.053 33.0002C393.2 33.0002 369 57.7794 369 88.3461C369 118.913 393.2 143.692 423.053 143.692Z" fill="url(#paint21_linear)"/>
<path fill-rule="evenodd" clip-rule="evenodd" d="M431.384 82.2559L438.536 78.5946C441.821 76.9127 445.816 78.2761 447.458 81.6398C447.92 82.5853 448.16 83.6279 448.16 84.685V92.0076C448.16 95.7683 445.183 98.8169 441.51 98.8169C440.478 98.8169 439.459 98.5708 438.536 98.098L431.384 94.4367C428.099 92.7549 426.768 88.6647 428.41 85.3011C429.054 83.9833 430.097 82.9148 431.384 82.2559Z" fill="url(#paint22_linear)"/>
<path d="M424.516 71.585H405.73C401.312 71.585 397.73 75.1667 397.73 79.585V97.1075C397.73 101.526 401.312 105.108 405.73 105.108H424.516C428.934 105.108 432.516 101.526 432.516 97.1075V79.585C432.516 75.1667 428.934 71.585 424.516 71.585Z" fill="url(#paint23_linear)"/>
<path d="M436.177 64.5008C438.527 64.5008 440.433 62.5497 440.433 60.143C440.433 57.7362 438.527 55.7852 436.177 55.7852C433.826 55.7852 431.921 57.7362 431.921 60.143C431.921 62.5497 433.826 64.5008 436.177 64.5008Z" fill="url(#paint24_linear)"/>
<path d="M560 66.0002C560 54.9546 568.954 46.0002 580 46.0002H682.573C693.619 46.0002 702.573 54.9545 702.573 66.0002V214.514C702.573 225.56 693.619 234.514 682.573 234.514H580C568.954 234.514 560 225.56 560 214.514V66.0002Z" fill="url(#paint25_linear)"/>
<path d="M615.154 144.092C615.154 145.511 614.679 146.703 613.729 147.668C612.779 148.634 611.5 149.252 609.891 149.521L609.891 152.463L606.81 152.443L606.81 149.606C605.698 149.511 604.658 149.286 603.691 148.929C602.724 148.573 601.889 148.112 601.187 147.547L602.471 144.64C604.166 145.859 605.989 146.475 607.94 146.488C608.984 146.495 609.784 146.303 610.34 145.913C610.897 145.522 611.175 144.968 611.175 144.25C611.175 143.812 611.021 143.452 610.713 143.17C610.405 142.888 610.015 142.662 609.545 142.493L609.201 142.375C608.828 142.253 608.365 142.116 607.813 141.965L607.529 141.889C606.262 141.565 605.218 141.226 604.397 140.87C603.575 140.515 602.869 139.972 602.279 139.241C601.688 138.511 601.393 137.541 601.393 136.333C601.393 134.932 601.885 133.732 602.869 132.731C603.853 131.731 605.141 131.096 606.733 130.826L606.733 127.884L609.814 127.904L609.814 130.767C610.807 130.914 611.74 131.161 612.613 131.508C613.486 131.855 614.196 132.284 614.744 132.795L613.46 135.703C611.765 134.483 610.088 133.868 608.428 133.857C607.503 133.851 606.763 134.048 606.207 134.447C605.651 134.846 605.372 135.405 605.372 136.123C605.372 136.613 605.535 137.017 605.86 137.334C606.185 137.651 606.596 137.899 607.093 138.077C607.479 138.216 607.984 138.372 608.608 138.544L609.172 138.695C610.405 139.018 611.423 139.349 612.228 139.687C613.032 140.025 613.721 140.546 614.294 141.25C614.868 141.954 615.154 142.902 615.154 144.092Z" fill="white"/>
<path d="M638.388 144.092C638.388 145.511 637.913 146.703 636.963 147.668C636.013 148.634 634.734 149.252 633.125 149.521L633.125 152.463L630.044 152.443L630.044 149.606C628.931 149.511 627.891 149.286 626.924 148.929C625.957 148.573 625.123 148.112 624.421 147.547L625.705 144.64C627.399 145.859 629.222 146.475 631.173 146.488C632.218 146.495 633.018 146.303 633.574 145.913C634.13 145.522 634.408 144.968 634.409 144.25C634.409 143.812 634.254 143.452 633.946 143.17C633.638 142.888 633.249 142.662 632.778 142.493L632.435 142.375C632.061 142.253 631.598 142.116 631.046 141.965L630.763 141.889C629.496 141.565 628.452 141.226 627.63 140.87C626.809 140.515 626.103 139.972 625.512 139.241C624.922 138.511 624.626 137.541 624.626 136.333C624.626 134.932 625.119 133.732 626.103 132.731C627.087 131.731 628.375 131.096 629.967 130.826L629.967 127.884L633.048 127.904L633.048 130.767C634.041 130.914 634.973 131.161 635.846 131.508C636.719 131.855 637.43 132.284 637.977 132.795L636.694 135.703C634.999 134.483 633.322 133.868 631.661 133.857C630.737 133.851 629.997 134.048 629.441 134.447C628.884 134.846 628.606 135.405 628.606 136.123C628.606 136.613 628.769 137.017 629.094 137.334C629.419 137.651 629.83 137.899 630.326 138.077C630.712 138.216 631.217 138.372 631.842 138.544L632.406 138.695C633.638 139.018 634.657 139.349 635.461 139.687C636.266 140.025 636.955 140.546 637.528 141.25C638.101 141.954 638.388 142.902 638.388 144.092Z" fill="white"/>
<path d="M661.622 144.092C661.622 145.511 661.147 146.703 660.197 147.668C659.248 148.634 657.968 149.252 656.359 149.521L656.359 152.463L653.278 152.443L653.278 149.606C652.166 149.511 651.126 149.286 650.159 148.929C649.192 148.573 648.357 148.112 647.655 147.547L648.939 144.64C650.634 145.859 652.457 146.475 654.408 146.488C655.452 146.495 656.252 146.303 656.808 145.913C657.365 145.522 657.643 144.968 657.643 144.25C657.643 143.812 657.489 143.452 657.181 143.17C656.873 142.888 656.483 142.662 656.013 142.493L655.669 142.375C655.296 142.253 654.833 142.116 654.281 141.965L653.997 141.889C652.73 141.565 651.686 141.226 650.865 140.87C650.043 140.515 649.337 139.972 648.747 139.241C648.156 138.511 647.861 137.541 647.861 136.333C647.861 134.932 648.353 133.732 649.337 132.731C650.321 131.731 651.609 131.096 653.201 130.826L653.201 127.884L656.282 127.904L656.282 130.767C657.275 130.914 658.208 131.161 659.081 131.508C659.954 131.855 660.664 132.284 661.212 132.795L659.928 135.703C658.233 134.483 656.556 133.868 654.896 133.857C653.971 133.851 653.231 134.048 652.675 134.447C652.119 134.846 651.84 135.405 651.84 136.123C651.84 136.613 652.003 137.017 652.328 137.334C652.653 137.651 653.064 137.899 653.561 138.077C653.947 138.216 654.452 138.372 655.076 138.544L655.64 138.695C656.873 139.018 657.891 139.349 658.696 139.687C659.5 140.025 660.189 140.546 660.762 141.25C661.336 141.954 661.622 142.902 661.622 144.092Z" fill="white"/>
<path d="M582.178 71.3467H610.693" stroke="#FFF1F1" stroke-width="5.12" stroke-linecap="round" stroke-linejoin="round"/>
<path d="M582.178 87.7161H638.151" stroke="#FFF1F1" stroke-width="5.12" stroke-linecap="round" stroke-linejoin="round"/>
<path d="M582.178 192.798H610.693" stroke="#FFF1F1" stroke-width="5.12" stroke-linecap="round" stroke-linejoin="round"/>
<path d="M582.178 209.167H638.151" stroke="#FFF1F1" stroke-width="5.12" stroke-linecap="round" stroke-linejoin="round"/>
<path d="M418 488C418 476.955 426.954 468 438 468H629.634C640.68 468 649.634 476.955 649.634 488V600.039C649.634 611.084 640.68 620.038 629.634 620.038H438C426.954 620.038 418 611.084 418 600.038V488Z" fill="url(#paint26_linear)"/>
<path d="M451.81 504.407C451.81 506.024 451.269 507.383 450.186 508.484C449.103 509.585 447.644 510.289 445.81 510.596L445.81 513.95L442.297 513.927L442.297 510.693C441.029 510.585 439.843 510.328 438.741 509.921C437.638 509.515 436.687 508.99 435.887 508.346L437.35 505.031C439.282 506.421 441.36 507.124 443.585 507.138C444.775 507.146 445.688 506.927 446.322 506.482C446.956 506.037 447.273 505.405 447.273 504.587C447.273 504.088 447.098 503.677 446.746 503.356C446.395 503.034 445.951 502.777 445.415 502.584L445.023 502.449C444.597 502.31 444.07 502.154 443.44 501.982L443.117 501.895C441.673 501.526 440.482 501.139 439.546 500.734C438.609 500.328 437.804 499.709 437.131 498.876C436.458 498.043 436.121 496.938 436.121 495.561C436.121 493.964 436.682 492.595 437.804 491.454C438.926 490.314 440.395 489.59 442.209 489.282L442.209 485.928L445.722 485.951L445.722 489.215C446.854 489.382 447.917 489.664 448.912 490.06C449.908 490.455 450.718 490.945 451.342 491.528L449.878 494.842C447.947 493.452 446.034 492.751 444.141 492.738C443.088 492.732 442.244 492.956 441.609 493.411C440.975 493.866 440.658 494.502 440.658 495.321C440.658 495.88 440.843 496.34 441.214 496.702C441.585 497.064 442.053 497.346 442.619 497.55C443.059 497.708 443.635 497.885 444.347 498.081L444.99 498.254C446.395 498.622 447.556 498.999 448.473 499.384C449.391 499.77 450.176 500.364 450.83 501.167C451.483 501.969 451.81 503.049 451.81 504.407Z" fill="white"/>
<path d="M475.063 504.407C475.063 506.024 474.521 507.383 473.438 508.484C472.355 509.585 470.896 510.289 469.062 510.596L469.062 513.95L465.55 513.927L465.55 510.693C464.281 510.585 463.096 510.328 461.993 509.921C460.891 509.515 459.939 508.99 459.139 508.346L460.603 505.031C462.535 506.421 464.613 507.124 466.838 507.138C468.028 507.146 468.94 506.927 469.574 506.482C470.209 506.037 470.526 505.405 470.526 504.587C470.526 504.088 470.35 503.677 469.999 503.356C469.648 503.034 469.204 502.777 468.667 502.584L468.275 502.449C467.85 502.31 467.322 502.154 466.692 501.982L466.369 501.895C464.925 501.526 463.735 501.139 462.798 500.734C461.862 500.328 461.057 499.709 460.383 498.876C459.71 498.043 459.374 496.938 459.374 495.561C459.374 493.964 459.935 492.595 461.057 491.454C462.179 490.314 463.647 489.59 465.462 489.282L465.462 485.928L468.974 485.951L468.974 489.215C470.106 489.382 471.17 489.664 472.165 490.06C473.16 490.455 473.97 490.945 474.594 491.528L473.131 494.842C471.199 493.452 469.287 492.751 467.394 492.738C466.34 492.732 465.496 492.956 464.862 493.411C464.228 493.866 463.911 494.502 463.911 495.321C463.911 495.88 464.096 496.34 464.467 496.702C464.837 497.064 465.306 497.346 465.872 497.55C466.312 497.708 466.888 497.885 467.599 498.081L468.243 498.254C469.648 498.622 470.809 498.999 471.726 499.384C472.643 499.77 473.428 500.364 474.082 501.167C474.736 501.969 475.063 503.049 475.063 504.407Z" fill="white"/>
<path d="M450.197 578.667C452.169 572.356 457.77 560.917 472.285 557.762C486.8 554.606 504.833 577.479 523.168 565.256C530.268 560.523 535.79 536.462 549.989 532.912C570.106 528.968 581.939 560.917 605.211 528.968" stroke="#FFF1F1" stroke-width="7.096" stroke-linecap="round" stroke-linejoin="round"/>
<circle cx="607.972" cy="519.501" r="9.46652" stroke="#FFF1F1" stroke-width="7.096" stroke-linecap="round" stroke-linejoin="round"/>
<path d="M91.6803 285C94.885 285 97.4829 287.598 97.4829 290.803V352.31C97.4829 355.515 94.885 358.112 91.6803 358.112H16.7906L10.3962 366.399C7.01405 370.782 -0.000282288 368.39 -0.000282288 362.854V290.803C-0.000282288 287.598 2.59763 285 5.80228 285H91.6803Z" fill="url(#paint27_linear)"/>
<path d="M21.4644 310.936H65.2871" stroke="#FFF1F1" stroke-width="5.12" stroke-linecap="round" stroke-linejoin="round"/>
<path d="M21.4639 333.294H45.6111" stroke="#FFF1F1" stroke-width="5.12" stroke-linecap="round" stroke-linejoin="round"/>
<path d="M36.9432 103C32.0038 103 27.9998 107.004 27.9998 111.943V206.744C27.9998 211.683 32.0038 215.687 36.9432 215.687H152.37L162.225 228.459C167.438 235.214 178.249 231.528 178.249 222.995V111.943C178.249 107.004 174.245 103 169.306 103H36.9432Z" fill="url(#paint28_linear)"/>
<path d="M53.0415 145.928H98.6529" stroke="#FFF1F1" stroke-width="5.12" stroke-linecap="round" stroke-linejoin="round"/>
<path d="M53.0415 167.393H135.321" stroke="#FFF1F1" stroke-width="5.12" stroke-linecap="round" stroke-linejoin="round"/>
<path d="M545 683C551.075 683 556 678.075 556 672C556 665.925 551.075 661 545 661C538.925 661 534 665.925 534 672C534 678.075 538.925 683 545 683Z" fill="url(#paint29_linear)"/>
<path fill-rule="evenodd" clip-rule="evenodd" d="M748.316 571.487C749.393 571.487 750.266 572.36 750.266 573.437V579.287H756.116C757.144 579.287 757.986 580.083 758.061 581.092L758.066 581.237C758.066 582.314 757.193 583.187 756.116 583.187H750.266V589.037C750.266 590.065 749.47 590.907 748.461 590.982L748.316 590.987C747.239 590.987 746.366 590.114 746.366 589.037V583.187H740.516C739.488 583.187 738.646 582.392 738.571 581.383L738.566 581.237C738.566 580.16 739.439 579.287 740.516 579.287H746.366V573.437C746.366 572.409 747.161 571.567 748.17 571.492L748.316 571.487Z" fill="url(#paint30_linear)"/>
<path fill-rule="evenodd" clip-rule="evenodd" d="M668.725 310.051C669.802 310.051 670.675 310.945 670.675 312.048V318.038H676.525C677.553 318.038 678.395 318.852 678.47 319.885L678.475 320.034C678.475 321.137 677.602 322.031 676.525 322.031H670.675V328.021C670.675 329.074 669.88 329.936 668.871 330.012L668.725 330.018C667.648 330.018 666.775 329.124 666.775 328.021V322.031H660.925C659.897 322.031 659.055 321.217 658.98 320.183L658.975 320.034C658.975 318.932 659.848 318.038 660.925 318.038H666.775V312.048C666.775 310.995 667.571 310.133 668.58 310.057L668.725 310.051Z" fill="url(#paint31_linear)"/>
<path fill-rule="evenodd" clip-rule="evenodd" d="M148.726 280.051C149.803 280.051 150.676 280.945 150.676 282.048V288.038H156.526C157.554 288.038 158.396 288.852 158.471 289.885L158.476 290.034C158.476 291.137 157.603 292.031 156.526 292.031H150.676V298.021C150.676 299.074 149.881 299.936 148.872 300.012L148.726 300.018C147.649 300.018 146.776 299.124 146.776 298.021V292.031H140.926C139.898 292.031 139.056 291.217 138.981 290.183L138.976 290.034C138.976 288.932 139.849 288.038 140.926 288.038H146.776V282.048C146.776 280.995 147.572 280.133 148.581 280.057L148.726 280.051Z" fill="url(#paint32_linear)"/>
<path d="M429.11 196.609C433.59 196.609 437.221 192.891 437.221 188.304C437.221 183.718 433.59 180 429.11 180C424.631 180 421 183.718 421 188.304C421 192.891 424.631 196.609 429.11 196.609Z" stroke="#EFAA7A" stroke-width="5.2"/>
<path d="M262.11 71.6086C266.589 71.6086 270.221 67.8907 270.221 63.3043C270.221 58.718 266.589 55 262.11 55C257.631 55 254 58.718 254 63.3043C254 67.8907 257.631 71.6086 262.11 71.6086Z" stroke="#EFAA7A" stroke-width="5.2"/>
<path d="M46.1102 529.609C50.5894 529.609 54.2206 525.891 54.2206 521.305C54.2206 516.718 50.5894 513 46.1102 513C41.6309 513 37.9998 516.718 37.9998 521.305C37.9998 525.891 41.6309 529.609 46.1102 529.609Z" stroke="#EFAA7A" stroke-width="5.2"/>
<path d="M566.11 379.609C570.589 379.609 574.221 375.891 574.221 371.304C574.221 366.718 570.589 363 566.11 363C561.631 363 558 366.718 558 371.304C558 375.891 561.631 379.609 566.11 379.609Z" stroke="#EFAA7A" stroke-width="5.2"/>
<path d="M106.035 459.427L98.5338 470.239C96.3351 473.408 92.0436 474.152 88.9486 471.9C87.363 470.747 86.3288 468.96 86.1023 466.982L84.5755 453.654C84.2394 450.719 82.2136 448.279 79.4392 447.467L68.8464 444.367C65.4418 443.371 63.4708 439.737 64.4439 436.251C64.9195 434.547 66.0477 433.113 67.572 432.273L78.2509 426.394C80.3235 425.253 81.715 423.14 81.9719 420.745L83.437 407.087C83.8681 403.068 87.3996 400.168 91.3248 400.609C92.8879 400.785 94.3507 401.483 95.4869 402.596L105.183 412.095C106.884 413.76 109.276 414.463 111.58 413.973L124.719 411.179C128.585 410.357 132.37 412.899 133.173 416.858C133.493 418.435 133.296 420.075 132.613 421.526L126.787 433.903C125.766 436.074 125.852 438.62 127.02 440.713L133.008 451.448C134.691 454.466 133.666 458.311 130.718 460.035C129.22 460.911 127.43 461.102 125.787 460.561L114.053 456.697C111.085 455.72 107.841 456.824 106.035 459.427Z" fill="url(#paint33_linear)"/>
<defs>
<linearGradient id="paint0_linear" x1="723.438" y1="299.517" x2="744.406" y2="324.546" gradientUnits="userSpaceOnUse">
<stop stop-color="#9CB3FF"/>
<stop offset="1" stop-color="#B0FFE9"/>
</linearGradient>
<linearGradient id="paint1_linear" x1="163.438" y1="189.517" x2="184.406" y2="214.546" gradientUnits="userSpaceOnUse">
<stop stop-color="#9CB3FF"/>
<stop offset="1" stop-color="#B0FFE9"/>
</linearGradient>
<linearGradient id="paint2_linear" x1="254" y1="0" x2="271.647" y2="22" gradientUnits="userSpaceOnUse">
<stop stop-color="#FF8989"/>
<stop offset="1" stop-color="#FFDDC5"/>
</linearGradient>
<linearGradient id="paint3_linear" x1="399" y1="253.5" x2="198.863" y2="651.781" gradientUnits="userSpaceOnUse">
<stop stop-color="#A77F99"/>
<stop offset="1" stop-color="#6F3359"/>
</linearGradient>
<linearGradient id="paint4_linear" x1="264.627" y1="361.135" x2="315.143" y2="367.476" gradientUnits="userSpaceOnUse">
<stop stop-color="#A77F99"/>
<stop offset="1" stop-color="#6F3359"/>
</linearGradient>
<linearGradient id="paint5_linear" x1="264.76" y1="308.538" x2="304.687" y2="323.25" gradientUnits="userSpaceOnUse">
<stop stop-color="#A77F99"/>
<stop offset="1" stop-color="#6F3359"/>
</linearGradient>
<linearGradient id="paint6_linear" x1="339.261" y1="223.134" x2="270.643" y2="285.433" gradientUnits="userSpaceOnUse">
<stop stop-color="#FCDABB"/>
<stop offset="0.510733" stop-color="#FCB9AC"/>
<stop offset="1" stop-color="#FCB8AC"/>
</linearGradient>
<linearGradient id="paint7_linear" x1="184.514" y1="224.639" x2="286.521" y2="275.528" gradientUnits="userSpaceOnUse">
<stop stop-color="#A77F99"/>
<stop offset="1" stop-color="#6F3359"/>
</linearGradient>
<linearGradient id="paint8_linear" x1="285.421" y1="209.711" x2="271.095" y2="237.897" gradientUnits="userSpaceOnUse">
<stop stop-color="#FCDABB"/>
<stop offset="0.510733" stop-color="#FCB9AC"/>
<stop offset="1" stop-color="#FCB8AC"/>
</linearGradient>
<linearGradient id="paint9_linear" x1="335.52" y1="213.791" x2="345.096" y2="243.924" gradientUnits="userSpaceOnUse">
<stop stop-color="#FCDABB"/>
<stop offset="0.510733" stop-color="#FCB9AC"/>
<stop offset="1" stop-color="#FCB8AC"/>
</linearGradient>
<linearGradient id="paint10_linear" x1="309.34" y1="167.697" x2="368.365" y2="180.666" gradientUnits="userSpaceOnUse">
<stop stop-color="#A77F99"/>
<stop offset="1" stop-color="#6F3359"/>
</linearGradient>
<linearGradient id="paint11_linear" x1="365.298" y1="162.758" x2="274.934" y2="255.623" gradientUnits="userSpaceOnUse">
<stop stop-color="#FCDABB"/>
<stop offset="0.510733" stop-color="#FCB9AC"/>
<stop offset="1" stop-color="#FCB8AC"/>
</linearGradient>
<linearGradient id="paint12_linear" x1="122.676" y1="141.291" x2="300.236" y2="224.998" gradientUnits="userSpaceOnUse">
<stop stop-color="#A77F99"/>
<stop offset="1" stop-color="#6F3359"/>
</linearGradient>
<linearGradient id="paint13_linear" x1="190.955" y1="229.141" x2="451.915" y2="306.8" gradientUnits="userSpaceOnUse">
<stop stop-color="#A77F99"/>
<stop offset="1" stop-color="#6F3359"/>
</linearGradient>
<linearGradient id="paint14_linear" x1="125.967" y1="340.683" x2="233.975" y2="364.931" gradientUnits="userSpaceOnUse">
<stop stop-color="#A77F99"/>
<stop offset="1" stop-color="#6F3359"/>
</linearGradient>
<linearGradient id="paint15_linear" x1="216.349" y1="329.51" x2="413.513" y2="390.32" gradientUnits="userSpaceOnUse">
<stop stop-color="#A77F99"/>
<stop offset="1" stop-color="#6F3359"/>
</linearGradient>
<linearGradient id="paint16_linear" x1="93.2894" y1="330.739" x2="273.722" y2="361.96" gradientUnits="userSpaceOnUse">
<stop stop-color="#A77F99"/>
<stop offset="1" stop-color="#6F3359"/>
</linearGradient>
<linearGradient id="paint17_linear" x1="273.693" y1="219.693" x2="292.845" y2="224.399" gradientUnits="userSpaceOnUse">
<stop stop-color="#A77F99"/>
<stop offset="1" stop-color="#6F3359"/>
</linearGradient>
<linearGradient id="paint18_linear" x1="312.023" y1="222.816" x2="331.175" y2="227.521" gradientUnits="userSpaceOnUse">
<stop stop-color="#A77F99"/>
<stop offset="1" stop-color="#6F3359"/>
</linearGradient>
<linearGradient id="paint19_linear" x1="203.891" y1="336.608" x2="369.197" y2="425.787" gradientUnits="userSpaceOnUse">
<stop stop-color="#A77F99"/>
<stop offset="1" stop-color="#86496F"/>
</linearGradient>
<linearGradient id="paint20_linear" x1="307.284" y1="334.568" x2="425.086" y2="381.172" gradientUnits="userSpaceOnUse">
<stop stop-color="#A77F99"/>
<stop offset="1" stop-color="#86496F"/>
</linearGradient>
<linearGradient id="paint21_linear" x1="370.941" y1="20.1645" x2="479.942" y2="141.136" gradientUnits="userSpaceOnUse">
<stop stop-color="#59DBB0"/>
<stop offset="1" stop-color="#FEFFB5"/>
</linearGradient>
<linearGradient id="paint22_linear" x1="448.16" y1="75.4911" x2="434.023" y2="98.5221" gradientUnits="userSpaceOnUse">
<stop stop-color="#69BED3"/>
<stop offset="0.460079" stop-color="#79AFDA"/>
<stop offset="1" stop-color="#A786EF"/>
</linearGradient>
<linearGradient id="paint23_linear" x1="432.516" y1="70.425" x2="394.14" y2="104.597" gradientUnits="userSpaceOnUse">
<stop stop-color="#69BED3"/>
<stop offset="0.460079" stop-color="#79AFDA"/>
<stop offset="1" stop-color="#A786EF"/>
</linearGradient>
<linearGradient id="paint24_linear" x1="440.433" y1="54.883" x2="430.515" y2="64.2664" gradientUnits="userSpaceOnUse">
<stop stop-color="#69BED3"/>
<stop offset="0.460079" stop-color="#79AFDA"/>
<stop offset="1" stop-color="#A786EF"/>
</linearGradient>
<linearGradient id="paint25_linear" x1="693.635" y1="46.0002" x2="501.632" y2="193.241" gradientUnits="userSpaceOnUse">
<stop stop-color="#80BCFB"/>
<stop offset="1" stop-color="#C47DFF"/>
</linearGradient>
<linearGradient id="paint26_linear" x1="447.253" y1="471.549" x2="582.448" y2="723.292" gradientUnits="userSpaceOnUse">
<stop stop-color="#9CB3FF"/>
<stop offset="1" stop-color="#B0FFE9"/>
</linearGradient>
<linearGradient id="paint27_linear" x1="-30.8551" y1="327.034" x2="135.1" y2="377.352" gradientUnits="userSpaceOnUse">
<stop stop-color="#59DBB0"/>
<stop offset="1" stop-color="#FEFFB5"/>
</linearGradient>
<linearGradient id="paint28_linear" x1="27.9998" y1="103" x2="155.465" y2="251.512" gradientUnits="userSpaceOnUse">
<stop stop-color="#FFA8E8"/>
<stop offset="1" stop-color="#FFE6E6"/>
</linearGradient>
<linearGradient id="paint29_linear" x1="534" y1="661" x2="551.647" y2="683" gradientUnits="userSpaceOnUse">
<stop stop-color="#FF8989"/>
<stop offset="1" stop-color="#FFDDC5"/>
</linearGradient>
<linearGradient id="paint30_linear" x1="738.916" y1="569.226" x2="758.066" y2="590.987" gradientUnits="userSpaceOnUse">
<stop stop-color="#59DBB0"/>
<stop offset="1" stop-color="#FEFFB5"/>
</linearGradient>
<linearGradient id="paint31_linear" x1="661.438" y1="310.517" x2="682.406" y2="335.546" gradientUnits="userSpaceOnUse">
<stop stop-color="#9CB3FF"/>
<stop offset="1" stop-color="#B0FFE9"/>
</linearGradient>
<linearGradient id="paint32_linear" x1="141.439" y1="280.517" x2="162.407" y2="305.546" gradientUnits="userSpaceOnUse">
<stop stop-color="#9CB3FF"/>
<stop offset="1" stop-color="#B0FFE9"/>
</linearGradient>
<linearGradient id="paint33_linear" x1="76.8061" y1="506.815" x2="108.436" y2="387.804" gradientUnits="userSpaceOnUse">
<stop stop-color="#FF815E"/>
<stop offset="1" stop-color="#FF9C34"/>
</linearGradient>
</defs>
</svg>
